<svg width="320" height="480" viewBox="0 0 320 480" fill="none" xmlns="http://www.w3.org/2000/svg">
<rect width="320" height="480" fill="#2E86C1"/>
<path d="M106.489 354V336.324H110.151V350.973H117.769V354H106.489ZM126.521 354.269C122.517 354.269 120.026 351.51 120.026 347.408C120.026 343.307 122.517 340.572 126.521 340.572C130.524 340.572 133.039 343.307 133.039 347.408C133.039 351.51 130.524 354.269 126.521 354.269ZM126.545 351.461C128.4 351.461 129.353 349.728 129.353 347.408C129.353 345.064 128.4 343.331 126.545 343.331C124.665 343.331 123.688 345.064 123.688 347.408C123.688 349.728 124.665 351.461 126.545 351.461ZM135.175 350.289C135.175 347.335 137.567 346.358 140.106 346.212C141.059 346.151 142.841 346.065 143.402 346.041V344.967C143.378 343.868 142.621 343.209 141.278 343.209C140.058 343.209 139.276 343.771 139.081 344.674H135.639C135.858 342.379 137.86 340.572 141.376 340.572C144.257 340.572 146.991 341.866 146.991 345.064V354H143.573V352.169H143.476C142.816 353.39 141.571 354.244 139.594 354.244C137.055 354.244 135.175 352.926 135.175 350.289ZM138.642 350.191C138.642 351.217 139.472 351.754 140.619 351.754C142.255 351.754 143.427 350.655 143.402 349.264V348.287C142.853 348.312 141.315 348.397 140.692 348.458C139.447 348.58 138.642 349.166 138.642 350.191ZM155.133 354.22C152.105 354.22 149.737 351.803 149.737 347.384C149.737 342.843 152.203 340.572 155.133 340.572C157.354 340.572 158.404 341.891 158.893 342.965H159.015V336.324H162.628V354H159.063V351.876H158.893C158.38 352.975 157.281 354.22 155.133 354.22ZM156.256 351.339C158.062 351.339 159.088 349.752 159.088 347.359C159.088 344.967 158.062 343.453 156.256 343.453C154.425 343.453 153.448 345.04 153.448 347.359C153.448 349.703 154.425 351.339 156.256 351.339ZM166.033 354V340.743H169.646V354H166.033ZM167.84 339.01C166.741 339.01 165.862 338.18 165.862 337.179C165.862 336.153 166.741 335.323 167.84 335.323C168.914 335.323 169.793 336.153 169.793 337.179C169.793 338.18 168.914 339.01 167.84 339.01ZM176.567 346.334V354H172.954V340.743H176.396V343.062H176.543C177.153 341.524 178.569 340.572 180.522 340.572C183.281 340.572 185.112 342.452 185.088 345.553V354H181.499V346.188C181.499 344.552 180.596 343.575 179.106 343.575C177.593 343.575 176.567 344.576 176.567 346.334ZM194.353 359.249C190.69 359.249 188.444 357.613 188.225 355.099H191.789C191.984 356.148 192.985 356.637 194.426 356.637C196.11 356.637 197.233 355.929 197.233 354.073V351.656H197.062C196.574 352.73 195.402 353.805 193.278 353.805C190.275 353.805 187.883 351.705 187.883 347.286C187.883 342.794 190.349 340.572 193.278 340.572C195.5 340.572 196.574 341.891 197.062 342.965H197.209V340.743H200.798V354.146C200.798 357.516 198.112 359.249 194.353 359.249ZM194.401 351.095C196.208 351.095 197.233 349.679 197.233 347.335C197.233 344.967 196.208 343.453 194.401 343.453C192.57 343.453 191.594 345.04 191.594 347.335C191.594 349.63 192.57 351.095 194.401 351.095ZM206.229 354.22C205.082 354.22 204.154 353.292 204.179 352.169C204.154 351.046 205.082 350.143 206.229 350.143C207.304 350.143 208.256 351.046 208.256 352.169C208.256 353.292 207.304 354.22 206.229 354.22ZM213.785 354.22C212.638 354.22 211.71 353.292 211.734 352.169C211.71 351.046 212.638 350.143 213.785 350.143C214.859 350.143 215.812 351.046 215.812 352.169C215.812 353.292 214.859 354.22 213.785 354.22ZM221.341 354.22C220.193 354.22 219.266 353.292 219.29 352.169C219.266 351.046 220.193 350.143 221.341 350.143C222.415 350.143 223.367 351.046 223.367 352.169C223.367 353.292 222.415 354.22 221.341 354.22Z" fill="#8DB0D0"/>
<g clip-path="url(#clip0_106_49)">
<path d="M122.501 135.625H61.0027V182.125H122.501V135.625Z" fill="white"/>
<path d="M122.5 145.943H61.0021V151.204H122.5V145.943Z" fill="#0D5EAF"/>
<path d="M122.5 156.262H61.0021V161.523H122.5V156.262Z" fill="#0D5EAF"/>
<path d="M122.5 166.581H61.0021V171.842H122.5V166.581Z" fill="#0D5EAF"/>
<path d="M122.5 176.835H61.0021V182.096H122.5V176.835Z" fill="#0D5EAF"/>
<path d="M122.501 135.625H61.0027V140.886H122.501V135.625Z" fill="#0D5EAF"/>
<path d="M84.8009 135.625H61.0027V156.726H84.8009V135.625Z" fill="#0D5EAF"/>
<path d="M84.8003 145.995H61V151.256H84.8003V145.995Z" fill="white"/>
<path d="M75.3038 135.634H70.4556V161.826H75.3038V135.634Z" fill="white"/>
</g>
<path d="M146.686 171.619C145.282 171.985 143.427 172.168 141.12 172.168C138.825 172.168 136.853 171.881 135.205 171.307C133.57 170.734 132.16 169.885 130.976 168.762C128.437 166.394 127.167 163.098 127.167 158.875C127.167 156.116 127.826 153.735 129.145 151.733C130.927 149.011 133.667 147.278 137.366 146.533C138.501 146.313 139.893 146.204 141.541 146.204C143.189 146.204 144.611 146.283 145.807 146.442V149.957C144.757 149.689 143.256 149.554 141.303 149.554C139.362 149.554 137.769 149.774 136.524 150.214C135.279 150.653 134.247 151.282 133.429 152.1C131.793 153.699 130.976 155.957 130.976 158.875C130.976 161.841 131.781 164.215 133.393 165.997C135.15 167.938 137.659 168.909 140.918 168.909C141.675 168.909 142.377 168.878 143.024 168.817V159.424H146.686V171.619ZM152.875 146.387H160.108C164.929 146.387 168.036 147.815 169.428 150.671C169.928 151.721 170.178 152.905 170.178 154.224C170.178 155.53 170.001 156.635 169.647 157.538C169.306 158.441 168.823 159.216 168.201 159.863C167.005 161.108 165.357 161.926 163.257 162.317C164.124 164.99 165.595 166.833 167.67 167.847C168.354 168.188 168.927 168.372 169.391 168.396C170.172 168.42 170.722 168.396 171.039 168.323V171.875H170.215C167.469 171.875 165.131 170.898 163.202 168.945C161.505 167.249 160.364 165.112 159.778 162.537H156.537V171.875H152.875V146.387ZM159.87 159.607C162.079 159.607 163.715 159.18 164.777 158.325C165.839 157.471 166.37 156.14 166.37 154.333C166.37 151.929 165.253 150.378 163.019 149.683C162.238 149.438 161.292 149.316 160.181 149.316H156.537V159.607H159.87ZM174.481 146.387H190.943V149.573H178.144V157.08H187.83V160.156H178.144V168.652H190.943V171.875H174.481V146.387ZM196.381 146.387H212.842V149.573H200.043V157.08H209.729V160.156H200.043V168.652H212.842V171.875H196.381V146.387ZM235.602 171.729C234.394 171.948 232.764 172.058 230.713 172.058C228.675 172.058 226.831 171.777 225.183 171.216C223.548 170.654 222.138 169.824 220.954 168.726C218.415 166.37 217.145 163.086 217.145 158.875C217.145 156.128 217.798 153.748 219.104 151.733C220.874 149.011 223.59 147.278 227.252 146.533C228.375 146.313 229.712 146.204 231.262 146.204C232.825 146.204 234.076 146.289 235.016 146.46V149.957C234.162 149.689 232.837 149.554 231.043 149.554C229.26 149.554 227.747 149.774 226.502 150.214C225.257 150.653 224.225 151.282 223.407 152.1C221.771 153.699 220.954 155.957 220.954 158.875C220.954 161.816 221.759 164.148 223.371 165.869C225.116 167.725 227.625 168.652 230.896 168.652C232.813 168.652 234.381 168.506 235.602 168.213V171.729ZM240.18 146.387H256.641V149.573H243.842V157.08H253.528V160.156H243.842V168.652H256.641V171.875H240.18V146.387Z" fill="white"/>
<defs>
<clipPath id="clip0_106_49">
<rect x="61" y="135.625" width="61.5" height="46.5" rx="23.25" fill="white"/>
</clipPath>
</defs>
</svg>
