<svg width="491" height="134" viewBox="0 0 491 134" fill="none" xmlns="http://www.w3.org/2000/svg">
<path d="M47.82 131.805V90.5876L75.5221 4.9823H54.8453L44.3073 43.8596C41.9124 52.7674 39.7569 62.0527 38.1602 70.6582H36.8829C36.0047 63.1095 33.45 53.2204 30.8954 43.7086L20.6768 4.9823H0L27.3029 90.5876V131.805H47.82Z" fill="#333333"/>
<path d="M103.398 36.6881C79.2089 36.6881 70.9062 49.8988 70.9062 78.3582V91.8709C70.9062 117.387 76.0954 133.39 102.919 133.39C129.344 133.39 135.012 118.141 135.012 91.8709V78.3582C135.012 52.9184 129.584 36.6881 103.398 36.6881ZM113.697 100.25C113.697 112.631 111.382 120.406 102.999 120.406C94.7763 120.406 92.4612 112.555 92.4612 100.25V69.7524C92.4612 59.1841 94.0578 49.7479 102.999 49.7479C112.419 49.7479 113.697 59.7125 113.697 69.7524V100.25Z" fill="#333333"/>
<path d="M168.631 133.239C180.287 133.239 187.552 128.635 193.539 120.331H194.417L195.295 131.805H211.181V38.4999H190.106V113.461C187.87 117.16 182.681 119.878 177.811 119.878C171.664 119.878 169.749 115.273 169.749 107.573V38.4999H148.752V108.479C148.752 123.652 153.383 133.239 168.631 133.239Z" fill="#333333"/>
<path d="M252.893 131.805V20.4577H277.162V4.9823H207.787V20.4577H232.056V131.805H252.893Z" fill="#333333"/>
<path d="M293.182 133.239C304.838 133.239 312.103 128.635 318.09 120.331H318.968L319.846 131.805H335.733V38.4999H314.657V113.461C312.422 117.16 307.233 119.878 302.363 119.878C296.216 119.878 294.3 115.273 294.3 107.573V38.4999H273.304V108.479C273.304 123.652 277.934 133.239 293.182 133.239Z" fill="#333333"/>
<path d="M395.381 36.4616C385.163 36.4616 377.818 40.6891 372.948 47.5587H371.91C372.549 38.4999 373.028 30.7999 373.028 24.6852V0H352.671L352.591 81.0759L352.671 131.805H370.394L371.91 122.746H372.469C377.179 128.861 384.444 132.711 394.104 132.711C410.15 132.711 417.016 119.651 417.016 91.8709V77.4524C417.016 51.4841 413.903 36.4616 395.381 36.4616ZM396.1 91.8709C396.1 109.234 393.386 119.576 384.843 119.576C380.852 119.576 375.343 117.764 372.868 114.367V58.8821C375.024 53.5978 379.814 49.7479 385.163 49.7479C393.785 49.7479 396.1 59.637 396.1 77.6788V91.8709Z" fill="#333333"/>
<path d="M491 75.9425C491 53.4468 488.605 36.7635 461.223 36.7635C435.436 36.7635 429.688 52.9939 429.688 76.8484V93.2297C429.688 116.481 434.957 133.39 460.584 133.39C480.861 133.39 491.32 123.803 490.122 105.233L472.16 104.327C471.92 115.801 469.126 120.482 461.063 120.482C450.924 120.482 450.445 111.347 450.445 97.7591V91.4179H491V75.9425ZM460.744 49.2949C470.483 49.2949 471.202 57.9762 471.202 72.6964V80.3209H450.445V72.6964C450.445 58.1272 451.084 49.2949 460.744 49.2949Z" fill="#333333"/>
</svg>
