<svg width="111" height="78" viewBox="0 0 111 78" fill="none" xmlns="http://www.w3.org/2000/svg">
<path d="M108.681 12.2044C107.404 7.40045 103.643 3.61705 98.867 2.33309C90.2107 0 55.5 0 55.5 0C55.5 0 20.7895 0 12.133 2.33309C7.35733 3.61725 3.59605 7.40045 2.31945 12.2044C0 20.9117 0 39.0788 0 39.0788C0 39.0788 0 57.2459 2.31945 65.9533C3.59605 70.7572 7.35733 74.383 12.133 75.6669C20.7895 78 55.5 78 55.5 78C55.5 78 90.2105 78 98.867 75.6669C103.643 74.383 107.404 70.7572 108.681 65.9533C111 57.2459 111 39.0788 111 39.0788C111 39.0788 111 20.9117 108.681 12.2044ZM44.1476 55.5732V22.5845L73.1589 39.0792L44.1476 55.5732Z" fill="white"/>
</svg>
