<svg width="194" height="140" viewBox="0 0 194 140" fill="none" xmlns="http://www.w3.org/2000/svg">
<g clip-path="url(#clip0_153_37)">
<path d="M142.201 0H52.2037V67.5H142.201V0Z" fill="white"/>
<path d="M142.2 14.9785H52.2031V22.6157H142.2V14.9785Z" fill="#0D5EAF"/>
<path d="M142.2 29.957H52.2031V37.5942H142.2V29.957Z" fill="#0D5EAF"/>
<path d="M142.2 44.9355H52.2031V52.5727H142.2V44.9355Z" fill="#0D5EAF"/>
<path d="M142.2 59.8213H52.2031V67.4584H142.2V59.8213Z" fill="#0D5EAF"/>
<path d="M142.201 0H52.2037V7.63714H142.201V0Z" fill="#0D5EAF"/>
<path d="M87.0303 0H52.2037V30.6309H87.0303V0Z" fill="#0D5EAF"/>
<path d="M87.0297 15.0518H52.2V22.6889H87.0297V15.0518Z" fill="white"/>
<path d="M73.1324 0.0136719H66.0374V38.0348H73.1324V0.0136719Z" fill="white"/>
</g>
<path d="M31.5879 125.631C29.5664 126.158 26.8945 126.422 23.5723 126.422C20.2676 126.422 17.4287 126.009 15.0557 125.183C12.7002 124.356 10.6699 123.135 8.96484 121.518C5.30859 118.107 3.48047 113.361 3.48047 107.279C3.48047 103.307 4.42969 99.8789 6.32812 96.9961C8.89453 93.0762 12.8408 90.5801 18.167 89.5078C19.8018 89.1914 21.8057 89.0332 24.1787 89.0332C26.5518 89.0332 28.5996 89.1475 30.3223 89.376V94.4385C28.8105 94.0518 26.6484 93.8584 23.8359 93.8584C21.041 93.8584 18.7471 94.1748 16.9541 94.8076C15.1611 95.4404 13.6758 96.3457 12.498 97.5234C10.1426 99.8262 8.96484 103.078 8.96484 107.279C8.96484 111.551 10.125 114.97 12.4453 117.536C14.9766 120.331 18.5889 121.729 23.2822 121.729C24.3721 121.729 25.3828 121.685 26.3145 121.597V108.07H31.5879V125.631ZM40.5 89.2969H50.915C57.8584 89.2969 62.332 91.3535 64.3359 95.4668C65.0566 96.9785 65.417 98.6836 65.417 100.582C65.417 102.463 65.1621 104.054 64.6523 105.354C64.1602 106.655 63.4658 107.771 62.5693 108.703C60.8467 110.496 58.4736 111.674 55.4502 112.236C56.6982 116.086 58.8164 118.74 61.8047 120.199C62.7891 120.691 63.6152 120.955 64.2832 120.99C65.4082 121.025 66.1992 120.99 66.6562 120.885V126H65.4697C61.5146 126 58.1484 124.594 55.3711 121.781C52.9277 119.338 51.2842 116.262 50.4404 112.553H45.7734V126H40.5V89.2969ZM50.5723 108.334C53.7539 108.334 56.1094 107.719 57.6387 106.488C59.168 105.258 59.9326 103.342 59.9326 100.74C59.9326 97.2773 58.3242 95.0449 55.1074 94.043C53.9824 93.6914 52.6201 93.5156 51.0205 93.5156H45.7734V108.334H50.5723ZM71.6133 89.2969H95.3174V93.8848H76.8867V104.695H90.835V109.125H76.8867V121.359H95.3174V126H71.6133V89.2969ZM103.148 89.2969H126.853V93.8848H108.422V104.695H122.37V109.125H108.422V121.359H126.853V126H103.148V89.2969ZM159.627 125.789C157.887 126.105 155.54 126.264 152.587 126.264C149.651 126.264 146.997 125.859 144.624 125.051C142.269 124.242 140.238 123.047 138.533 121.465C134.877 118.072 133.049 113.344 133.049 107.279C133.049 103.324 133.989 99.8965 135.87 96.9961C138.419 93.0762 142.33 90.5801 147.604 89.5078C149.221 89.1914 151.146 89.0332 153.378 89.0332C155.628 89.0332 157.43 89.1562 158.783 89.4023V94.4385C157.553 94.0518 155.646 93.8584 153.062 93.8584C150.495 93.8584 148.315 94.1748 146.522 94.8076C144.729 95.4404 143.244 96.3457 142.066 97.5234C139.711 99.8262 138.533 103.078 138.533 107.279C138.533 111.516 139.693 114.873 142.014 117.352C144.527 120.023 148.14 121.359 152.851 121.359C155.61 121.359 157.869 121.148 159.627 120.727V125.789ZM166.219 89.2969H189.923V93.8848H171.492V104.695H185.44V109.125H171.492V121.359H189.923V126H166.219V89.2969Z" fill="#2E86C1"/>
<defs>
<clipPath id="clip0_153_37">
<rect x="52.2" width="90" height="67.5" rx="33.75" fill="white"/>
</clipPath>
</defs>
</svg>
