<svg width="216" height="155" viewBox="0 0 216 155" fill="none" xmlns="http://www.w3.org/2000/svg">
<g clip-path="url(#clip0_153_37)">
<path d="M158.001 0H58.0041V75H158.001V0Z" fill="white"/>
<path d="M158 16.6426H58.0035V25.1283H158V16.6426Z" fill="#0D5EAF"/>
<path d="M158 33.2861H58.0035V41.7718H158V33.2861Z" fill="#0D5EAF"/>
<path d="M158 49.9287H58.0035V58.4144H158V49.9287Z" fill="#0D5EAF"/>
<path d="M158 66.4678H58.0035V74.9535H158V66.4678Z" fill="#0D5EAF"/>
<path d="M158.001 0H58.0041V8.48571H158.001V0Z" fill="#0D5EAF"/>
<path d="M96.7004 0H58.0041V34.0343H96.7004V0Z" fill="#0D5EAF"/>
<path d="M96.6996 16.7246H58V25.2103H96.6996V16.7246Z" fill="white"/>
<path d="M81.2582 0.0146484H73.3748V42.2604H81.2582V0.0146484Z" fill="white"/>
</g>
<path d="M35.0977 139.59C32.8516 140.176 29.8828 140.469 26.1914 140.469C22.5195 140.469 19.3652 140.01 16.7285 139.092C14.1113 138.174 11.8555 136.816 9.96094 135.02C5.89844 131.23 3.86719 125.957 3.86719 119.199C3.86719 114.785 4.92188 110.977 7.03125 107.773C9.88281 103.418 14.2676 100.645 20.1855 99.4531C22.002 99.1016 24.2285 98.9258 26.8652 98.9258C29.502 98.9258 31.7773 99.0527 33.6914 99.3066V104.932C32.0117 104.502 29.6094 104.287 26.4844 104.287C23.3789 104.287 20.8301 104.639 18.8379 105.342C16.8457 106.045 15.1953 107.051 13.8867 108.359C11.2695 110.918 9.96094 114.531 9.96094 119.199C9.96094 123.945 11.25 127.744 13.8281 130.596C16.6406 133.701 20.6543 135.254 25.8691 135.254C27.0801 135.254 28.2031 135.205 29.2383 135.107V120.078H35.0977V139.59ZM45 99.2188H56.5723C64.2871 99.2188 69.2578 101.504 71.4844 106.074C72.2852 107.754 72.6855 109.648 72.6855 111.758C72.6855 113.848 72.4023 115.615 71.8359 117.061C71.2891 118.506 70.5176 119.746 69.5215 120.781C67.6074 122.773 64.9707 124.082 61.6113 124.707C62.998 128.984 65.3516 131.934 68.6719 133.555C69.7656 134.102 70.6836 134.395 71.4258 134.434C72.6758 134.473 73.5547 134.434 74.0625 134.316V140H72.7441C68.3496 140 64.6094 138.438 61.5234 135.312C58.8086 132.598 56.9824 129.18 56.0449 125.059H50.8594V140H45V99.2188ZM56.1914 120.371C59.7266 120.371 62.3438 119.688 64.043 118.32C65.7422 116.953 66.5918 114.824 66.5918 111.934C66.5918 108.086 64.8047 105.605 61.2305 104.492C59.9805 104.102 58.4668 103.906 56.6895 103.906H50.8594V120.371H56.1914ZM79.5703 99.2188H105.908V104.316H85.4297V116.328H100.928V121.25H85.4297V134.844H105.908V140H79.5703V99.2188ZM114.609 99.2188H140.947V104.316H120.469V116.328H135.967V121.25H120.469V134.844H140.947V140H114.609V99.2188ZM177.363 139.766C175.43 140.117 172.822 140.293 169.541 140.293C166.279 140.293 163.33 139.844 160.693 138.945C158.076 138.047 155.82 136.719 153.926 134.961C149.863 131.191 147.832 125.938 147.832 119.199C147.832 114.805 148.877 110.996 150.967 107.773C153.799 103.418 158.145 100.645 164.004 99.4531C165.801 99.1016 167.939 98.9258 170.42 98.9258C172.92 98.9258 174.922 99.0625 176.426 99.3359V104.932C175.059 104.502 172.939 104.287 170.068 104.287C167.217 104.287 164.795 104.639 162.803 105.342C160.811 106.045 159.16 107.051 157.852 108.359C155.234 110.918 153.926 114.531 153.926 119.199C153.926 123.906 155.215 127.637 157.793 130.391C160.586 133.359 164.6 134.844 169.834 134.844C172.9 134.844 175.41 134.609 177.363 134.141V139.766ZM184.688 99.2188H211.025V104.316H190.547V116.328H206.045V121.25H190.547V134.844H211.025V140H184.688V99.2188Z" fill="#2E86C1"/>
<defs>
<clipPath id="clip0_153_37">
<rect x="58" width="100" height="75" rx="37.5" fill="white"/>
</clipPath>
</defs>
</svg>
