<svg width="160" height="38" viewBox="0 0 160 38" fill="none" xmlns="http://www.w3.org/2000/svg">
<g clip-path="url(#clip0_106_50)">
<path d="M49.3301 0.601582H0.0020752V37.8996H49.3301V0.601582Z" fill="white"/>
<path d="M49.3296 8.87782H0.00158691V13.0978H49.3296V8.87782Z" fill="#0D5EAF"/>
<path d="M49.3296 17.1548H0.00158691V21.3748H49.3296V17.1548Z" fill="#0D5EAF"/>
<path d="M49.3296 25.4314H0.00158691V29.6514H49.3296V25.4314Z" fill="#0D5EAF"/>
<path d="M49.3296 33.6565H0.00158691V37.8765H49.3296V33.6565Z" fill="#0D5EAF"/>
<path d="M49.3302 0.601582H0.00219727V4.82159H49.3302V0.601582Z" fill="#0D5EAF"/>
<path d="M19.0909 0.601582H0.00219727V17.5271H19.0909V0.601582Z" fill="#0D5EAF"/>
<path d="M19.0904 8.91902H0V13.139H19.0904V8.91902Z" fill="white"/>
<path d="M11.4732 0.608662H7.58435V21.6178H11.4732V0.608662Z" fill="white"/>
</g>
<path d="M68.6504 29.7953C67.5295 30.0877 66.0479 30.2339 64.2056 30.2339C62.3731 30.2339 60.7989 30.0049 59.483 29.5467C58.1769 29.0886 57.0511 28.4112 56.1056 27.5144C54.0781 25.6234 53.0644 22.9916 53.0644 19.619C53.0644 17.4161 53.5907 15.5154 54.6435 13.9168C56.0666 11.7432 58.2549 10.359 61.2083 9.76445C62.1148 9.58899 63.226 9.50127 64.5419 9.50127C65.8578 9.50127 66.9934 9.56462 67.9486 9.69134V12.4986C67.1103 12.2841 65.9114 12.1769 64.3518 12.1769C62.802 12.1769 61.53 12.3524 60.5357 12.7033C59.5415 13.0542 58.7179 13.5562 58.0648 14.2092C56.7586 15.4862 56.1056 17.2894 56.1056 19.619C56.1056 21.9877 56.7489 23.8835 58.0355 25.3066C59.4392 26.8565 61.4423 27.6314 64.0448 27.6314C64.6491 27.6314 65.2096 27.607 65.7262 27.5583V20.0577H68.6504V29.7953ZM73.5924 9.64748H79.3677C83.2179 9.64748 85.6986 10.7879 86.8098 13.0688C87.2094 13.9071 87.4093 14.8526 87.4093 15.9053C87.4093 16.9483 87.2679 17.8304 86.9852 18.5517C86.7123 19.273 86.3273 19.892 85.8302 20.4086C84.8749 21.4028 83.559 22.0559 81.8825 22.3678C82.5746 24.5025 83.7491 25.9743 85.4062 26.7834C85.952 27.0563 86.4102 27.2025 86.7806 27.222C87.4044 27.2415 87.843 27.222 88.0965 27.1635V30H87.4385C85.2453 30 83.3787 29.2202 81.8386 27.6606C80.4837 26.3057 79.5724 24.6 79.1045 22.5433H76.5166V30H73.5924V9.64748ZM79.1776 20.2039C80.9419 20.2039 82.248 19.8627 83.096 19.1804C83.9441 18.4981 84.3681 17.4356 84.3681 15.993C84.3681 14.0728 83.4762 12.8349 81.6924 12.2793C81.0686 12.0843 80.3132 11.9868 79.4262 11.9868H76.5166V20.2039H79.1776ZM90.8452 9.64748H103.99V12.1915H93.7694V18.1862H101.504V20.6425H93.7694V27.4267H103.99V30H90.8452V9.64748ZM108.332 9.64748H121.476V12.1915H111.256V18.1862H118.991V20.6425H111.256V27.4267H121.476V30H108.332V9.64748ZM139.65 29.883C138.685 30.0585 137.384 30.1462 135.747 30.1462C134.119 30.1462 132.647 29.922 131.331 29.4736C130.025 29.0253 128.899 28.3624 127.953 27.4852C125.926 25.6039 124.912 22.9819 124.912 19.619C124.912 17.4259 125.434 15.5251 126.477 13.9168C127.89 11.7432 130.059 10.359 132.983 9.76445C133.88 9.58899 134.947 9.50127 136.185 9.50127C137.433 9.50127 138.432 9.5695 139.182 9.70596V12.4986C138.5 12.2841 137.443 12.1769 136.01 12.1769C134.587 12.1769 133.378 12.3524 132.384 12.7033C131.389 13.0542 130.566 13.5562 129.913 14.2092C128.607 15.4862 127.953 17.2894 127.953 19.619C127.953 21.9682 128.597 23.8299 129.883 25.2043C131.277 26.6859 133.28 27.4267 135.893 27.4267C137.423 27.4267 138.676 27.3097 139.65 27.0758V29.883ZM143.306 9.64748H156.45V12.1915H146.23V18.1862H153.964V20.6425H146.23V27.4267H156.45V30H143.306V9.64748Z" fill="white"/>
<defs>
<clipPath id="clip0_106_50">
<rect y="0.596189" width="49.3297" height="36.9637" rx="18.4818" fill="white"/>
</clipPath>
</defs>
</svg>
