<svg width="2000" height="1471" viewBox="0 0 2000 1471" fill="none" xmlns="http://www.w3.org/2000/svg">
<g opacity="0.5">
<path opacity="0.6" d="M1407.4 1188.87C1321.42 1155.94 1233.72 1137.16 1179.96 1058.91C1156.76 1025.13 1147.64 985.725 1129.77 950.072C1093.07 876.891 1030.42 844.049 953.238 817.256C870.684 788.589 790.07 817.256 712.164 844.006C678.763 855.508 644.64 874.761 610.02 877.573C580.817 879.915 546.874 871.865 519.251 863.303C470.729 848.266 437.915 823.816 408.079 786.033C359.919 724.992 341.548 642.653 338.027 567.896C334.507 492.884 333.649 419.916 278.583 360.025C213.044 288.761 103.949 262.352 7.85375 261.287C5.19069 261.287 2.61792 261.244 0 261.244V1448.62H1561.72C1572.78 1417.7 1576.66 1385.11 1570.03 1355.25C1549.63 1263.71 1495.6 1222.69 1407.45 1188.91L1407.4 1188.87Z" fill="#9AE7EF"/>
<g style="mix-blend-mode:multiply" opacity="0.8">
<path d="M1779.51 1346.35C1648.57 1322.45 1519.34 1318.91 1420.49 1222.6C1377.79 1181.03 1353.37 1127.87 1317.67 1082.25C1244.37 988.622 1146.33 958.719 1029.65 941.169C904.807 922.384 799.549 983.851 697.54 1042.04C653.803 1067 611.374 1103.12 563.349 1116.11C522.862 1127.06 472.625 1124.63 431.144 1119.78C358.294 1111.26 304.807 1085.4 251.636 1039.91C165.741 966.429 115.595 855.167 88.6482 750.635C67.9756 670.554 49.8759 591.75 0 527.771V1448.58H2000C1946.33 1390.6 1874.43 1363.64 1779.51 1346.35Z" fill="#9AE7EF"/>
</g>
<g style="mix-blend-mode:multiply" opacity="0.8">
<path d="M747.822 1302.56C684.089 1305.41 614.76 1321.26 553.87 1308.61C502.55 1297.96 448.928 1267.07 406.454 1238.49C331.889 1188.27 289.415 1129.91 259.716 1050.13C211.735 921.319 226.766 771.081 263.011 641.247C299.391 510.987 339.156 385.583 278.673 255.281C225.683 141.037 118.393 56.6533 0 0V1448.58H1263.87C1237.1 1424.17 1207.54 1401 1175.9 1378.08C1050.69 1287.44 896.457 1295.87 747.867 1302.56H747.822Z" fill="#9AE7EF"/>
</g>
</g>
<path opacity="0.65" d="M64.4406 1398V1392.8H73.7406C76.474 1392.8 78.8073 1392.25 80.7406 1391.15C82.674 1390.05 84.1406 1388.52 85.1406 1386.55C86.174 1384.58 86.6906 1382.33 86.6906 1379.8C86.6906 1377.3 86.174 1375.1 85.1406 1373.2C84.1406 1371.3 82.674 1369.83 80.7406 1368.8C78.8406 1367.73 76.5073 1367.2 73.7406 1367.2H64.5406V1362H73.7406C77.674 1362 81.1073 1362.73 84.0406 1364.2C86.974 1365.67 89.2406 1367.75 90.8406 1370.45C92.474 1373.12 93.2906 1376.27 93.2906 1379.9C93.2906 1383.53 92.474 1386.72 90.8406 1389.45C89.2073 1392.15 86.924 1394.25 83.9906 1395.75C81.0906 1397.25 77.6906 1398 73.7906 1398H64.4406ZM60.4906 1398V1362H66.9906V1398H60.4906ZM109.788 1398.5C107.088 1398.5 104.722 1397.93 102.688 1396.8C100.688 1395.67 99.1216 1394.1 97.9883 1392.1C96.8883 1390.1 96.3383 1387.8 96.3383 1385.2C96.3383 1382.6 96.8883 1380.32 97.9883 1378.35C99.1216 1376.35 100.688 1374.8 102.688 1373.7C104.688 1372.57 107.022 1372 109.688 1372C112.222 1372 114.422 1372.53 116.288 1373.6C118.155 1374.63 119.605 1376.1 120.638 1378C121.672 1379.9 122.188 1382.12 122.188 1384.65C122.188 1385.12 122.172 1385.55 122.138 1385.95C122.105 1386.35 122.055 1386.75 121.988 1387.15H100.238V1382.75H117.138L115.838 1383.95C115.838 1381.55 115.288 1379.75 114.188 1378.55C113.088 1377.35 111.555 1376.75 109.588 1376.75C107.455 1376.75 105.755 1377.48 104.488 1378.95C103.255 1380.42 102.638 1382.53 102.638 1385.3C102.638 1388.03 103.255 1390.13 104.488 1391.6C105.755 1393.03 107.538 1393.75 109.838 1393.75C111.172 1393.75 112.338 1393.5 113.338 1393C114.338 1392.5 115.072 1391.73 115.538 1390.7H121.488C120.655 1393.1 119.238 1395 117.238 1396.4C115.272 1397.8 112.788 1398.5 109.788 1398.5ZM136.799 1398.5C133.266 1398.5 130.449 1397.77 128.349 1396.3C126.249 1394.8 125.099 1392.73 124.899 1390.1H130.649C130.816 1391.4 131.433 1392.38 132.499 1393.05C133.566 1393.72 134.999 1394.05 136.799 1394.05C138.433 1394.05 139.649 1393.8 140.449 1393.3C141.283 1392.77 141.699 1392.02 141.699 1391.05C141.699 1390.35 141.466 1389.78 140.999 1389.35C140.533 1388.88 139.649 1388.5 138.349 1388.2L134.249 1387.25C131.449 1386.65 129.366 1385.72 127.999 1384.45C126.666 1383.15 125.999 1381.53 125.999 1379.6C125.999 1377.23 126.899 1375.38 128.699 1374.05C130.533 1372.68 133.049 1372 136.249 1372C139.416 1372 141.949 1372.68 143.849 1374.05C145.783 1375.38 146.849 1377.23 147.049 1379.6H141.299C141.133 1378.57 140.599 1377.78 139.699 1377.25C138.833 1376.72 137.633 1376.45 136.099 1376.45C134.666 1376.45 133.583 1376.68 132.849 1377.15C132.116 1377.58 131.749 1378.23 131.749 1379.1C131.749 1379.77 132.033 1380.33 132.599 1380.8C133.166 1381.23 134.116 1381.62 135.449 1381.95L139.849 1382.95C142.349 1383.52 144.233 1384.5 145.499 1385.9C146.799 1387.3 147.449 1388.95 147.449 1390.85C147.449 1393.28 146.516 1395.17 144.649 1396.5C142.783 1397.83 140.166 1398.5 136.799 1398.5ZM151.903 1398V1372.5H158.203V1398H151.903ZM151.603 1368.3V1361.35H158.453V1368.3H151.603ZM175.896 1408.75C172.529 1408.75 169.762 1408.02 167.596 1406.55C165.462 1405.08 164.196 1403.1 163.796 1400.6H169.796C170.096 1401.47 170.746 1402.13 171.746 1402.6C172.779 1403.1 174.112 1403.35 175.746 1403.35C178.112 1403.35 179.862 1402.82 180.996 1401.75C182.129 1400.72 182.696 1399.13 182.696 1397V1391.5L183.146 1391.6C182.746 1393.47 181.729 1394.97 180.096 1396.1C178.462 1397.2 176.462 1397.75 174.096 1397.75C171.829 1397.75 169.846 1397.22 168.146 1396.15C166.479 1395.08 165.179 1393.6 164.246 1391.7C163.312 1389.77 162.846 1387.52 162.846 1384.95C162.846 1382.35 163.329 1380.08 164.296 1378.15C165.262 1376.22 166.612 1374.72 168.346 1373.65C170.112 1372.55 172.162 1372 174.496 1372C176.896 1372 178.862 1372.58 180.396 1373.75C181.962 1374.88 182.929 1376.47 183.296 1378.5L182.896 1378.55V1372.5H189.046V1396.95C189.046 1400.58 187.862 1403.45 185.496 1405.55C183.162 1407.68 179.962 1408.75 175.896 1408.75ZM176.146 1392.75C178.179 1392.75 179.796 1392.07 180.996 1390.7C182.229 1389.3 182.846 1387.35 182.846 1384.85C182.846 1382.35 182.229 1380.42 180.996 1379.05C179.762 1377.68 178.129 1377 176.096 1377C174.096 1377 172.479 1377.7 171.246 1379.1C170.012 1380.47 169.396 1382.4 169.396 1384.9C169.396 1387.4 170.012 1389.33 171.246 1390.7C172.479 1392.07 174.112 1392.75 176.146 1392.75ZM195.75 1398V1372.5H201.9V1378.5H202.05V1398H195.75ZM213.65 1398V1381.9C213.65 1380.33 213.25 1379.15 212.45 1378.35C211.65 1377.55 210.484 1377.15 208.95 1377.15C207.617 1377.15 206.417 1377.45 205.35 1378.05C204.317 1378.65 203.5 1379.48 202.9 1380.55C202.334 1381.62 202.05 1382.85 202.05 1384.25L201.4 1378.15C202.267 1376.28 203.534 1374.8 205.2 1373.7C206.867 1372.57 208.867 1372 211.2 1372C213.967 1372 216.117 1372.78 217.65 1374.35C219.217 1375.92 220 1378 220 1380.6V1398H213.65ZM237.816 1398.5C235.116 1398.5 232.749 1397.93 230.716 1396.8C228.716 1395.67 227.149 1394.1 226.016 1392.1C224.916 1390.1 224.366 1387.8 224.366 1385.2C224.366 1382.6 224.916 1380.32 226.016 1378.35C227.149 1376.35 228.716 1374.8 230.716 1373.7C232.716 1372.57 235.049 1372 237.716 1372C240.249 1372 242.449 1372.53 244.316 1373.6C246.182 1374.63 247.632 1376.1 248.666 1378C249.699 1379.9 250.216 1382.12 250.216 1384.65C250.216 1385.12 250.199 1385.55 250.166 1385.95C250.132 1386.35 250.082 1386.75 250.016 1387.15H228.266V1382.75H245.166L243.866 1383.95C243.866 1381.55 243.316 1379.75 242.216 1378.55C241.116 1377.35 239.582 1376.75 237.616 1376.75C235.482 1376.75 233.782 1377.48 232.516 1378.95C231.282 1380.42 230.666 1382.53 230.666 1385.3C230.666 1388.03 231.282 1390.13 232.516 1391.6C233.782 1393.03 235.566 1393.75 237.866 1393.75C239.199 1393.75 240.366 1393.5 241.366 1393C242.366 1392.5 243.099 1391.73 243.566 1390.7H249.516C248.682 1393.1 247.266 1395 245.266 1396.4C243.299 1397.8 240.816 1398.5 237.816 1398.5ZM273.374 1398V1392.25L273.874 1392.35C273.441 1394.22 272.391 1395.72 270.724 1396.85C269.058 1397.95 267.074 1398.5 264.774 1398.5C262.441 1398.5 260.408 1397.97 258.674 1396.9C256.974 1395.8 255.658 1394.27 254.724 1392.3C253.791 1390.33 253.324 1388.02 253.324 1385.35C253.324 1382.65 253.808 1380.3 254.774 1378.3C255.741 1376.3 257.091 1374.75 258.824 1373.65C260.591 1372.55 262.641 1372 264.974 1372C267.374 1372 269.358 1372.58 270.924 1373.75C272.491 1374.88 273.458 1376.47 273.824 1378.5L273.174 1378.55V1362H279.524V1398H273.374ZM266.624 1393.35C268.658 1393.35 270.274 1392.65 271.474 1391.25C272.708 1389.82 273.324 1387.82 273.324 1385.25C273.324 1382.68 272.708 1380.7 271.474 1379.3C270.241 1377.9 268.608 1377.2 266.574 1377.2C264.574 1377.2 262.958 1377.92 261.724 1379.35C260.491 1380.75 259.874 1382.73 259.874 1385.3C259.874 1387.87 260.491 1389.85 261.724 1391.25C262.958 1392.65 264.591 1393.35 266.624 1393.35ZM310.447 1398.5C308.014 1398.5 306.014 1397.93 304.447 1396.8C302.914 1395.63 301.964 1394.03 301.597 1392L302.047 1391.95V1398H295.897V1362H302.197V1378.25L301.747 1378.15C302.18 1376.25 303.197 1374.75 304.797 1373.65C306.43 1372.55 308.447 1372 310.847 1372C313.114 1372 315.08 1372.55 316.747 1373.65C318.447 1374.72 319.764 1376.23 320.697 1378.2C321.63 1380.17 322.097 1382.48 322.097 1385.15C322.097 1387.85 321.614 1390.2 320.647 1392.2C319.68 1394.2 318.33 1395.75 316.597 1396.85C314.864 1397.95 312.814 1398.5 310.447 1398.5ZM308.847 1393.3C310.88 1393.3 312.497 1392.6 313.697 1391.2C314.897 1389.77 315.497 1387.77 315.497 1385.2C315.497 1382.63 314.88 1380.65 313.647 1379.25C312.447 1377.85 310.83 1377.15 308.797 1377.15C306.797 1377.15 305.18 1377.87 303.947 1379.3C302.714 1380.7 302.097 1382.68 302.097 1385.25C302.097 1387.82 302.714 1389.8 303.947 1391.2C305.18 1392.6 306.814 1393.3 308.847 1393.3ZM327.868 1408.25L334.468 1393.45L335.618 1391.55L342.818 1372.5H349.518L334.268 1408.25H327.868ZM333.518 1397.75L323.168 1372.5H330.018L338.668 1395.4L333.518 1397.75ZM362.493 1398V1362H368.993V1398H362.493ZM365.593 1383.55V1378.4H385.843V1383.55H365.593ZM365.593 1367.15V1362H387.043V1367.15H365.593ZM392.43 1398V1372.5H398.58V1378.65H398.73V1398H392.43ZM398.73 1384.7L398.08 1378.65C398.68 1376.48 399.697 1374.83 401.13 1373.7C402.563 1372.57 404.28 1372 406.28 1372C406.98 1372 407.48 1372.07 407.78 1372.2V1378.15C407.613 1378.08 407.38 1378.05 407.08 1378.05C406.78 1378.02 406.413 1378 405.98 1378C403.547 1378 401.73 1378.53 400.53 1379.6C399.33 1380.67 398.73 1382.37 398.73 1384.7ZM422.825 1398.5C420.125 1398.5 417.759 1397.93 415.725 1396.8C413.725 1395.67 412.159 1394.1 411.025 1392.1C409.925 1390.1 409.375 1387.8 409.375 1385.2C409.375 1382.6 409.925 1380.32 411.025 1378.35C412.159 1376.35 413.725 1374.8 415.725 1373.7C417.725 1372.57 420.059 1372 422.725 1372C425.259 1372 427.459 1372.53 429.325 1373.6C431.192 1374.63 432.642 1376.1 433.675 1378C434.709 1379.9 435.225 1382.12 435.225 1384.65C435.225 1385.12 435.209 1385.55 435.175 1385.95C435.142 1386.35 435.092 1386.75 435.025 1387.15H413.275V1382.75H430.175L428.875 1383.95C428.875 1381.55 428.325 1379.75 427.225 1378.55C426.125 1377.35 424.592 1376.75 422.625 1376.75C420.492 1376.75 418.792 1377.48 417.525 1378.95C416.292 1380.42 415.675 1382.53 415.675 1385.3C415.675 1388.03 416.292 1390.13 417.525 1391.6C418.792 1393.03 420.575 1393.75 422.875 1393.75C424.209 1393.75 425.375 1393.5 426.375 1393C427.375 1392.5 428.109 1391.73 428.575 1390.7H434.525C433.692 1393.1 432.275 1395 430.275 1396.4C428.309 1397.8 425.825 1398.5 422.825 1398.5ZM451.732 1398.5C449.032 1398.5 446.665 1397.93 444.632 1396.8C442.632 1395.67 441.065 1394.1 439.932 1392.1C438.832 1390.1 438.282 1387.8 438.282 1385.2C438.282 1382.6 438.832 1380.32 439.932 1378.35C441.065 1376.35 442.632 1374.8 444.632 1373.7C446.632 1372.57 448.965 1372 451.632 1372C454.165 1372 456.365 1372.53 458.232 1373.6C460.098 1374.63 461.548 1376.1 462.582 1378C463.615 1379.9 464.132 1382.12 464.132 1384.65C464.132 1385.12 464.115 1385.55 464.082 1385.95C464.048 1386.35 463.998 1386.75 463.932 1387.15H442.182V1382.75H459.082L457.782 1383.95C457.782 1381.55 457.232 1379.75 456.132 1378.55C455.032 1377.35 453.498 1376.75 451.532 1376.75C449.398 1376.75 447.698 1377.48 446.432 1378.95C445.198 1380.42 444.582 1382.53 444.582 1385.3C444.582 1388.03 445.198 1390.13 446.432 1391.6C447.698 1393.03 449.482 1393.75 451.782 1393.75C453.115 1393.75 454.282 1393.5 455.282 1393C456.282 1392.5 457.015 1391.73 457.482 1390.7H463.432C462.598 1393.1 461.182 1395 459.182 1396.4C457.215 1397.8 454.732 1398.5 451.732 1398.5ZM483.396 1398.5C480.963 1398.5 478.979 1397.93 477.446 1396.8C475.946 1395.63 475.013 1394.03 474.646 1392L475.146 1391.95V1408.25H468.846V1372.5H474.996V1378.25L474.496 1378.15C474.963 1376.25 476.029 1374.75 477.696 1373.65C479.363 1372.55 481.396 1372 483.796 1372C486.063 1372 488.029 1372.55 489.696 1373.65C491.396 1374.72 492.713 1376.23 493.646 1378.2C494.579 1380.17 495.046 1382.48 495.046 1385.15C495.046 1387.85 494.563 1390.2 493.596 1392.2C492.629 1394.2 491.279 1395.75 489.546 1396.85C487.813 1397.95 485.763 1398.5 483.396 1398.5ZM481.796 1393.3C483.829 1393.3 485.446 1392.6 486.646 1391.2C487.846 1389.77 488.446 1387.77 488.446 1385.2C488.446 1382.63 487.829 1380.65 486.596 1379.25C485.396 1377.85 483.779 1377.15 481.746 1377.15C479.746 1377.15 478.129 1377.87 476.896 1379.3C475.663 1380.7 475.046 1382.68 475.046 1385.25C475.046 1387.82 475.663 1389.8 476.896 1391.2C478.129 1392.6 479.763 1393.3 481.796 1393.3ZM499.754 1398V1372.5H506.054V1398H499.754ZM499.454 1368.3V1361.35H506.304V1368.3H499.454ZM512.743 1398V1361.65H519.043V1398H512.743ZM529.193 1398L517.593 1384.75L528.843 1372.5H536.443L523.443 1385.9L523.793 1383.55L536.943 1398H529.193Z" fill="white"/>
</svg>
