<svg width="668" height="1020" viewBox="0 0 668 1020" fill="none" xmlns="http://www.w3.org/2000/svg">
<path style="mix-blend-mode:multiply" opacity="0.4" d="M-6.10352e-05 0V954.945H586.182C584.599 946.111 582.098 937.467 578.995 929.425C566.172 896.117 545.75 863.601 548.315 827.982C551.228 786.948 583.554 755.065 612.556 725.873C641.527 696.681 671.194 660.65 666.761 619.744C661.537 571.65 612.778 542.204 569.053 521.498C546.922 511.018 523.271 499.176 504.02 483.947C485.213 469.066 470.617 450.924 465.647 427.558C457.605 389.976 478.375 352.71 504.02 323.55C505.73 321.555 507.472 319.655 509.245 317.756C537.233 287.772 570.731 261.335 588.082 224.164C606.731 184.207 603.596 136.81 589.222 95.1114C579.628 67.3758 565.381 41.5716 549.898 16.749C546.067 10.575 542.838 4.87588 539.703 0.0949847H0.0632324L-6.10352e-05 0Z" fill="url(#paint0_linear_310_41)"/>
<mask id="mask0_310_41" style="mask-type:luminance" maskUnits="userSpaceOnUse" x="0" y="0" width="668" height="1020">
<path d="M0.000366211 0V954.945C54.5849 980.4 155.997 1019.09 288.406 1019.98C425.912 1020.9 532.263 993.603 586.151 954.945C591.185 950.29 598.721 941.932 601.064 930.154C608.726 892.065 551.703 871.611 548.284 827.982C546.352 803.571 551.292 787.55 612.525 725.873C641.495 696.681 671.162 660.65 666.73 619.744C661.506 571.65 612.747 542.204 569.022 521.498C546.891 511.018 523.239 499.176 503.989 483.915C485.182 469.034 470.586 450.892 465.615 427.526C457.573 389.944 478.343 352.678 503.989 323.518C505.699 321.523 507.44 319.624 509.213 317.724C537.202 287.709 570.7 261.303 588.051 224.132C606.699 184.175 603.565 136.778 589.191 95.0797C579.597 67.3442 565.349 41.54 549.867 16.7173C546.036 10.5433 542.806 4.84422 539.672 0.0633231H0.0319824L0.000366211 0Z" fill="white"/>
</mask>
<g mask="url(#mask0_310_41)">
<path opacity="0.4" d="M272.321 624.492L321.649 539.038C326.684 530.331 339.285 530.331 344.319 539.038L359.453 565.222C366.134 576.81 382.851 576.81 389.564 565.222L425.341 503.26C433.478 489.171 453.805 489.171 461.942 503.26L541.634 641.273C549.771 655.362 539.608 672.966 523.334 672.966H363.981C348.783 672.966 338.937 657.61 344.319 644.122H283.687C273.619 644.122 267.318 633.231 272.352 624.492H272.321Z" fill="url(#paint1_linear_310_41)"/>
<path opacity="0.4" d="M510.194 596.155L535.081 553.063C537.613 548.663 543.977 548.663 546.51 553.063L554.141 566.266C557.529 572.124 565.951 572.124 569.307 566.266L587.354 535.016C591.47 527.924 601.696 527.924 605.812 535.016L645.991 604.609C650.107 611.701 644.978 620.598 636.777 620.598H556.42C548.758 620.598 543.787 612.841 546.51 606.033H515.925C510.859 606.033 507.662 600.524 510.226 596.123L510.194 596.155Z" fill="url(#paint2_linear_310_41)"/>
<path opacity="0.4" d="M-55.2482 582.921L-33.0534 544.515C-30.8054 540.589 -25.138 540.589 -22.8584 544.515L-16.0511 556.294C-13.0433 561.518 -5.50784 561.518 -2.49998 556.294L13.584 528.431C17.2251 522.099 26.3754 522.099 30.0481 528.431L60.7915 581.686L72.1264 562.056C74.3743 558.13 80.0417 558.13 82.3214 562.056L89.1286 573.834C92.1365 579.058 99.6719 579.058 102.68 573.834L118.764 545.972C122.405 539.64 131.555 539.64 135.228 545.972L171.069 608.029C174.71 614.361 170.151 622.276 162.837 622.276H91.1866C84.3477 622.276 79.915 615.374 82.353 609.295H55.0924C52.1796 609.295 49.9948 607.237 49.3933 604.736H-13.9615C-20.8004 604.736 -25.233 597.834 -22.7951 591.755H-50.0557C-54.5833 591.755 -57.4012 586.847 -55.1532 582.921H-55.2482Z" fill="url(#paint3_linear_310_41)"/>
<path d="M119.839 617.464C119.269 617.685 126.298 578.551 151.279 600.145C151.216 600.145 153.717 590.868 162.171 597.295C162.107 597.327 161.537 584.124 171.891 593.179C171.701 593.179 181.737 578.995 191.014 598.055C190.983 598.055 197.853 594.477 204.407 601.379C204.28 601.379 213.209 589.063 220.301 604.102C220.365 604.166 222.834 611.574 235.53 606.065C248.48 600.746 248.005 615.469 247.973 615.406C247.91 615.406 257.314 611.543 262.221 620.851C262.189 620.851 269.028 614.044 269.63 625.917C269.63 625.917 270.358 622.213 275.931 623.036C281.535 623.922 296.131 627.089 295.212 639.12C293.471 662.138 120.567 649.125 122.277 626.075C122.499 623.099 120.631 620.345 119.776 617.464H119.839Z" fill="url(#paint4_linear_310_41)"/>
<path d="M176.576 625.347C274.474 635.89 376.171 630.666 470.396 610.244C511.777 601.284 551.639 589.443 593.021 580.482C627.88 572.947 664.291 567.406 701.145 567.691C708.712 567.754 714.475 568.229 719.541 569.243C725.366 568.704 731.224 568.261 737.081 567.976C756.806 567.058 764.5 569.528 780.552 577.158C794.294 583.68 807.37 591.057 817.122 600.271C832.224 614.582 837.86 634.687 823.707 649.41C810.789 662.834 785.048 668.47 760.986 669.103C752.944 669.293 744.933 669.04 736.923 668.628C728.849 669.641 720.49 669.99 712.385 669.768C699.974 669.42 687.721 667.995 675.468 666.507C651.278 667.52 627.374 671.256 603.533 674.454C492.495 689.367 377.849 692.533 265.324 683.731C252.532 682.718 239.108 681.42 228.945 676.195C220.649 671.921 215.678 664.164 218.401 657.8C217.8 657.705 217.166 657.642 216.565 657.578C203.932 655.9 190.729 653.842 181.262 648.08C171.795 642.317 167.933 631.648 176.545 625.315L176.576 625.347Z" fill="url(#paint5_linear_310_41)"/>
<path d="M-314.081 666.665C-313.068 646.75 -311.104 625.189 -290.714 609.833C-277.86 600.113 -259.464 594.319 -239.929 590.646C-232.204 589.158 -224.32 588.018 -216.468 587.1C-127.847 576.556 -36.567 585.453 50.9456 598.118C116.2 607.585 180.726 621.737 246.582 628.196C316.269 635.035 386.59 635.795 456.404 630.413C521.88 625.347 586.913 614.93 652.484 611.162C729.865 606.73 867.497 601.189 902.99 690.316C911.349 711.308 900.394 737.366 870.22 746.041C856.701 749.935 841.408 749.872 826.654 749.714C702.762 748.479 578.902 745.851 455.169 741.861C361.672 738.854 268.239 735.054 174.806 731.255C135.007 729.64 95.2401 728.025 55.4415 726.411C52.117 726.284 48.6026 726.062 45.1514 725.714C-39.2583 727.899 -123.668 730.083 -208.109 732.268C-238.346 733.06 -272.382 732.965 -293.691 719.572C-314.619 706.369 -315.031 685.377 -314.081 666.697V666.665Z" fill="url(#paint6_linear_310_41)"/>
<path d="M760.227 666.73C760.227 666.73 510.069 699.974 182.087 639.057C-282.547 552.748 -486.859 741.198 -486.859 741.198L-402.924 1024.76C-459.63 931.484 167.206 761.144 1026.56 798.378C987.811 754.685 963.811 659.954 760.227 666.73Z" fill="url(#paint7_linear_310_41)"/>
<path style="mix-blend-mode:overlay" d="M-228.122 680.122C-75.038 638.044 85.4227 663.341 241.324 688.797C348.277 706.274 455.262 723.783 562.214 741.26C625.601 751.614 688.987 761.967 752.342 772.352C765.038 774.41 780.426 779.191 783.212 793.375C785.27 803.887 778.431 814.557 769.851 819.148C761.271 823.77 751.392 823.739 741.862 823.549C649.442 821.744 557.148 812.341 465.931 795.433C322.631 768.869 182.086 723.783 37.7722 705.673C-106.541 687.531 -258.897 698.454 -386.271 777.418C-405.585 789.386 -476.538 846.345 -496.739 821.776C-483.884 803.729 -455.357 790.462 -437.31 778.684C-415.21 764.278 -392.667 750.696 -369.649 738.253C-324.278 713.715 -277.007 693.546 -228.122 680.09V680.122Z" fill="url(#paint8_linear_310_41)"/>
<path d="M-508.676 852.804C-494.998 830.04 -465.869 814.051 -432.434 802.304C-430.788 778.526 -404.509 633.231 -294.897 712.797C-295.118 712.923 -286.569 669.547 -246.328 694.971C-246.549 695.161 -253.008 635.448 -203.521 671.953C-204.344 671.985 -163.089 603.184 -115.47 685.473C-115.66 685.473 -85.4869 666.191 -53.8887 694.528C-54.4902 694.528 -17.5413 634.656 18.9646 699.847C19.2179 700.069 32.6423 732.68 88.5566 702C145.737 672.048 147.796 739.044 147.606 738.791C147.352 738.696 188.766 717.103 213.778 757.155C213.557 757.091 241.514 724.575 248.448 774.062C248.859 774.062 249.271 774.062 249.682 774.03C251.614 769.186 257.788 760.068 276.595 760.922C283.592 761.334 289.639 765.482 295.845 771.466C324.815 751.487 353.849 745.472 398.207 801.323C435.219 736.955 548.568 712.797 548.568 712.797C548.568 712.797 569.781 668.027 583.902 690.792C594.699 708.206 607.078 706.844 612.302 705.23C615.975 697.789 620.629 689.146 625.632 681.484C625.664 681.42 625.727 681.357 625.759 681.294C636.935 659.827 654.191 632.661 665.146 643.933C669.895 648.84 674.169 648.555 677.874 645.611C680.691 637.791 682.18 630.825 682.18 630.825C686.391 622.086 690.602 614.646 694.876 608.345C749.745 499.018 803.095 603.279 803.095 603.279L790.715 716.976C859.801 716.754 934.459 722.802 996.199 741.989C1055.98 760.574 1060.19 838.208 1057.69 875.094C1055.88 901.468 1045.62 930.217 1013.33 945.826C985.529 959.251 948.422 959.694 913.942 959.567C488.506 958.079 63.0692 956.591 -362.399 955.071C-391.654 954.976 -421.765 954.755 -448.709 947.219C-501.457 932.497 -529.762 887.917 -508.644 852.773L-508.676 852.804Z" fill="url(#paint9_linear_310_41)"/>
<path d="M-561.264 870.883C-547.586 848.118 -518.457 832.129 -485.023 820.383C-483.376 796.605 -457.097 651.31 -347.485 730.875C-347.707 731.002 -339.158 687.626 -298.916 713.05C-299.138 713.24 -305.597 653.526 -256.11 690.032C-256.933 690.064 -215.678 621.263 -168.059 703.551C-168.249 703.551 -138.075 684.27 -106.477 712.607C-107.079 712.607 -70.1296 652.735 -33.6239 717.926C-33.3706 718.147 -19.946 750.759 35.9683 720.079C93.1491 690.127 95.2071 757.123 95.0172 756.87C94.7639 756.775 136.177 735.181 161.19 775.233C160.968 775.17 188.925 742.654 195.859 792.141C196.271 792.141 196.682 792.141 197.094 792.109C199.025 787.265 205.199 778.146 224.006 779.001C231.004 779.413 237.051 783.56 243.257 789.544C272.227 769.566 301.261 763.55 345.618 819.401C382.631 755.033 494.998 727.139 494.998 727.139C494.998 727.139 503.8 701.462 530.332 705.135C546.385 707.351 549.646 726.918 559.746 723.308C563.418 715.868 568.073 707.224 573.075 699.562C573.107 699.499 573.17 699.435 573.202 699.372C584.378 677.906 601.634 650.74 612.589 662.011C617.338 666.919 621.612 666.634 625.317 663.69C628.135 655.869 629.623 648.904 629.623 648.904C633.834 640.165 638.045 632.725 642.319 626.424C697.189 517.096 750.538 621.358 750.538 621.358L738.159 735.055C807.244 734.833 881.902 740.88 943.642 760.067C1003.42 778.653 1007.63 856.287 1005.13 893.173C1003.32 919.547 993.066 948.295 960.771 963.905C932.972 977.329 895.865 977.772 861.386 977.646C435.949 976.158 10.5125 974.669 -414.956 973.15C-444.211 973.055 -474.321 972.833 -501.265 965.298C-554.013 950.575 -582.319 905.996 -561.201 870.851L-561.264 870.883Z" fill="url(#paint10_linear_310_41)"/>
<path d="M-155.996 1008.9C-142.318 986.13 -113.189 970.141 -79.7548 958.395C-78.0768 934.617 -51.8293 789.322 57.7831 868.888C57.5614 869.014 66.11 825.638 106.352 851.062C106.13 851.252 99.6713 791.538 149.158 828.044C148.335 828.076 189.59 759.275 237.209 841.564C237.019 841.564 267.193 822.282 298.791 850.619C298.189 850.619 335.138 790.747 371.644 855.938C371.897 856.16 385.322 888.771 441.236 858.091C498.417 828.139 500.475 895.135 500.285 894.882C500.032 894.787 541.445 873.194 566.458 913.245C566.236 913.182 594.193 880.666 601.127 930.153C601.539 930.153 601.95 930.153 602.362 930.121C604.293 925.277 610.467 916.158 629.274 917.013C636.272 917.425 642.319 921.572 648.525 927.556C677.495 907.578 706.529 901.562 750.887 957.413C787.899 893.045 901.247 868.888 901.247 868.888C901.247 868.888 922.461 824.118 936.582 846.883C947.378 864.297 959.758 862.935 964.982 861.321C968.655 853.88 973.309 845.236 978.312 837.574C978.343 837.511 978.407 837.448 978.438 837.384C989.615 815.918 1006.87 788.752 1017.83 800.024C1022.57 804.931 1026.85 804.646 1030.55 801.702C1033.37 793.881 1034.86 786.916 1034.86 786.916C1039.07 778.177 1043.28 770.737 1047.56 764.436C1102.42 655.109 1155.77 759.37 1155.77 759.37L1143.39 873.067C1212.48 872.845 1287.14 878.893 1348.88 898.08C1408.66 916.665 1412.84 994.299 1410.33 1031.18C1408.53 1057.56 1398.27 1086.31 1365.98 1101.92C1338.18 1115.34 1301.07 1115.78 1266.59 1115.66C841.154 1114.17 415.717 1112.68 -9.7511 1111.16C-39.0065 1111.07 -69.1166 1110.85 -96.0605 1103.31C-148.809 1088.59 -177.114 1044.01 -155.996 1008.86V1008.9Z" fill="url(#paint11_linear_310_41)"/>
</g>
<path d="M326.907 242.243C331.434 242.243 335.645 243.351 339.413 245.314C346.758 229.99 362.462 219.383 380.636 219.383C395.644 219.383 408.973 226.634 417.269 237.779C422.556 234.644 428.73 232.839 435.347 232.839C454.598 232.839 470.333 248.29 470.682 267.446H300.152C300.976 253.356 312.659 242.243 326.938 242.243H326.907Z" fill="white"/>
<path d="M75.7667 109.834C84.157 109.834 91.9456 111.892 98.8479 115.501C112.462 87.1956 141.433 67.5654 175.026 67.5654C202.73 67.5654 227.362 80.9583 242.75 101.538C252.533 95.7442 263.931 92.4198 276.121 92.4198C311.709 92.4198 340.742 120.947 341.407 156.376H26.2796C27.831 130.35 49.3609 109.834 75.7667 109.834Z" fill="white"/>
<path d="M124.146 340.172C126.995 340.172 129.623 340.869 131.998 342.104C136.62 332.479 146.467 325.83 157.865 325.83C167.269 325.83 175.628 330.389 180.852 337.354C184.176 335.391 188.039 334.252 192.187 334.252C204.281 334.252 214.128 343.94 214.35 355.971H107.334C107.872 347.138 115.186 340.172 124.146 340.172Z" fill="white"/>
<path d="M266.496 432.434C268.966 432.434 271.245 432.877 273.303 433.637C277.293 427.685 285.841 423.537 295.72 423.537C303.888 423.537 311.139 426.355 315.666 430.693C318.548 429.458 321.904 428.761 325.482 428.761C335.962 428.761 344.51 434.777 344.7 442.217H251.932C252.375 436.74 258.739 432.434 266.496 432.434Z" fill="white"/>
<path opacity="0.65" d="M31.9525 945V940.84H39.3925C41.5792 940.84 43.4458 940.4 44.9925 939.52C46.5392 938.64 47.7125 937.413 48.5125 935.84C49.3392 934.267 49.7525 932.467 49.7525 930.44C49.7525 928.44 49.3392 926.68 48.5125 925.16C47.7125 923.64 46.5392 922.467 44.9925 921.64C43.4725 920.787 41.6058 920.36 39.3925 920.36H32.0325V916.2H39.3925C42.5392 916.2 45.2858 916.787 47.6325 917.96C49.9792 919.133 51.7925 920.8 53.0725 922.96C54.3792 925.093 55.0325 927.613 55.0325 930.52C55.0325 933.427 54.3792 935.973 53.0725 938.16C51.7658 940.32 49.9392 942 47.5925 943.2C45.2725 944.4 42.5525 945 39.4325 945H31.9525ZM28.7925 945V916.2H33.9925V945H28.7925ZM68.2306 945.4C66.0706 945.4 64.1773 944.947 62.5506 944.04C60.9506 943.133 59.6973 941.88 58.7906 940.28C57.9106 938.68 57.4706 936.84 57.4706 934.76C57.4706 932.68 57.9106 930.853 58.7906 929.28C59.6973 927.68 60.9506 926.44 62.5506 925.56C64.1506 924.653 66.0173 924.2 68.1506 924.2C70.1773 924.2 71.9373 924.627 73.4306 925.48C74.924 926.307 76.084 927.48 76.9106 929C77.7373 930.52 78.1506 932.293 78.1506 934.32C78.1506 934.693 78.1373 935.04 78.1106 935.36C78.084 935.68 78.044 936 77.9906 936.32H60.5906V932.8H74.1106L73.0706 933.76C73.0706 931.84 72.6306 930.4 71.7506 929.44C70.8706 928.48 69.644 928 68.0706 928C66.364 928 65.004 928.587 63.9906 929.76C63.004 930.933 62.5106 932.627 62.5106 934.84C62.5106 937.027 63.004 938.707 63.9906 939.88C65.004 941.027 66.4306 941.6 68.2706 941.6C69.3373 941.6 70.2706 941.4 71.0706 941C71.8706 940.6 72.4573 939.987 72.8306 939.16H77.5906C76.924 941.08 75.7906 942.6 74.1906 943.72C72.6173 944.84 70.6306 945.4 68.2306 945.4ZM89.8394 945.4C87.0127 945.4 84.7594 944.813 83.0794 943.64C81.3994 942.44 80.4794 940.787 80.3194 938.68H84.9194C85.0527 939.72 85.546 940.507 86.3994 941.04C87.2527 941.573 88.3994 941.84 89.8394 941.84C91.146 941.84 92.1194 941.64 92.7594 941.24C93.426 940.813 93.7594 940.213 93.7594 939.44C93.7594 938.88 93.5727 938.427 93.1994 938.08C92.826 937.707 92.1194 937.4 91.0794 937.16L87.7994 936.4C85.5594 935.92 83.8927 935.173 82.7994 934.16C81.7327 933.12 81.1994 931.827 81.1994 930.28C81.1994 928.387 81.9194 926.907 83.3594 925.84C84.826 924.747 86.8394 924.2 89.3994 924.2C91.9327 924.2 93.9594 924.747 95.4794 925.84C97.026 926.907 97.8794 928.387 98.0394 930.28H93.4394C93.306 929.453 92.8794 928.827 92.1594 928.4C91.466 927.973 90.506 927.76 89.2794 927.76C88.1327 927.76 87.266 927.947 86.6794 928.32C86.0927 928.667 85.7994 929.187 85.7994 929.88C85.7994 930.413 86.026 930.867 86.4794 931.24C86.9327 931.587 87.6927 931.893 88.7594 932.16L92.2794 932.96C94.2794 933.413 95.786 934.2 96.7994 935.32C97.8394 936.44 98.3594 937.76 98.3594 939.28C98.3594 941.227 97.6127 942.733 96.1194 943.8C94.626 944.867 92.5327 945.4 89.8394 945.4ZM101.922 945V924.6H106.962V945H101.922ZM101.682 921.24V915.68H107.162V921.24H101.682ZM121.117 953.6C118.423 953.6 116.21 953.013 114.477 951.84C112.77 950.667 111.757 949.08 111.437 947.08H116.237C116.477 947.773 116.997 948.307 117.797 948.68C118.623 949.08 119.69 949.28 120.997 949.28C122.89 949.28 124.29 948.853 125.197 948C126.103 947.173 126.557 945.907 126.557 944.2V939.8L126.917 939.88C126.597 941.373 125.783 942.573 124.477 943.48C123.17 944.36 121.57 944.8 119.677 944.8C117.863 944.8 116.277 944.373 114.917 943.52C113.583 942.667 112.543 941.48 111.797 939.96C111.05 938.413 110.677 936.613 110.677 934.56C110.677 932.48 111.063 930.667 111.837 929.12C112.61 927.573 113.69 926.373 115.077 925.52C116.49 924.64 118.13 924.2 119.997 924.2C121.917 924.2 123.49 924.667 124.717 925.6C125.97 926.507 126.743 927.773 127.037 929.4L126.717 929.44V924.6H131.637V944.16C131.637 947.067 130.69 949.36 128.797 951.04C126.93 952.747 124.37 953.6 121.117 953.6ZM121.317 940.8C122.943 940.8 124.237 940.253 125.197 939.16C126.183 938.04 126.677 936.48 126.677 934.48C126.677 932.48 126.183 930.933 125.197 929.84C124.21 928.747 122.903 928.2 121.277 928.2C119.677 928.2 118.383 928.76 117.397 929.88C116.41 930.973 115.917 932.52 115.917 934.52C115.917 936.52 116.41 938.067 117.397 939.16C118.383 940.253 119.69 940.8 121.317 940.8ZM137 945V924.6H141.92V929.4H142.04V945H137ZM151.32 945V932.12C151.32 930.867 151 929.92 150.36 929.28C149.72 928.64 148.787 928.32 147.56 928.32C146.494 928.32 145.534 928.56 144.68 929.04C143.854 929.52 143.2 930.187 142.72 931.04C142.267 931.893 142.04 932.88 142.04 934L141.52 929.12C142.214 927.627 143.227 926.44 144.56 925.56C145.894 924.653 147.494 924.2 149.36 924.2C151.574 924.2 153.294 924.827 154.52 926.08C155.774 927.333 156.4 929 156.4 931.08V945H151.32ZM170.653 945.4C168.493 945.4 166.599 944.947 164.973 944.04C163.373 943.133 162.119 941.88 161.213 940.28C160.333 938.68 159.893 936.84 159.893 934.76C159.893 932.68 160.333 930.853 161.213 929.28C162.119 927.68 163.373 926.44 164.973 925.56C166.573 924.653 168.439 924.2 170.572 924.2C172.599 924.2 174.359 924.627 175.853 925.48C177.346 926.307 178.506 927.48 179.333 929C180.159 930.52 180.573 932.293 180.573 934.32C180.573 934.693 180.559 935.04 180.533 935.36C180.506 935.68 180.466 936 180.413 936.32H163.013V932.8H176.533L175.493 933.76C175.493 931.84 175.053 930.4 174.173 929.44C173.293 928.48 172.066 928 170.493 928C168.786 928 167.426 928.587 166.413 929.76C165.426 930.933 164.933 932.627 164.933 934.84C164.933 937.027 165.426 938.707 166.413 939.88C167.426 941.027 168.853 941.6 170.693 941.6C171.759 941.6 172.693 941.4 173.493 941C174.293 940.6 174.879 939.987 175.253 939.16H180.013C179.346 941.08 178.213 942.6 176.613 943.72C175.039 944.84 173.053 945.4 170.653 945.4ZM199.099 945V940.4L199.499 940.48C199.153 941.973 198.313 943.173 196.979 944.08C195.646 944.96 194.059 945.4 192.219 945.4C190.353 945.4 188.726 944.973 187.339 944.12C185.979 943.24 184.926 942.013 184.179 940.44C183.433 938.867 183.059 937.013 183.059 934.88C183.059 932.72 183.446 930.84 184.219 929.24C184.993 927.64 186.073 926.4 187.459 925.52C188.873 924.64 190.513 924.2 192.379 924.2C194.299 924.2 195.886 924.667 197.139 925.6C198.393 926.507 199.166 927.773 199.459 929.4L198.939 929.44V916.2H204.019V945H199.099ZM193.699 941.28C195.326 941.28 196.619 940.72 197.579 939.6C198.566 938.453 199.059 936.853 199.059 934.8C199.059 932.747 198.566 931.16 197.579 930.04C196.593 928.92 195.286 928.36 193.659 928.36C192.059 928.36 190.766 928.933 189.779 930.08C188.793 931.2 188.299 932.787 188.299 934.84C188.299 936.893 188.793 938.48 189.779 939.6C190.766 940.72 192.073 941.28 193.699 941.28ZM228.758 945.4C226.811 945.4 225.211 944.947 223.958 944.04C222.731 943.107 221.971 941.827 221.678 940.2L222.038 940.16V945H217.118V916.2H222.158V929.2L221.798 929.12C222.144 927.6 222.958 926.4 224.238 925.52C225.544 924.64 227.158 924.2 229.078 924.2C230.891 924.2 232.464 924.64 233.798 925.52C235.158 926.373 236.211 927.587 236.958 929.16C237.704 930.733 238.078 932.587 238.078 934.72C238.078 936.88 237.691 938.76 236.918 940.36C236.144 941.96 235.064 943.2 233.678 944.08C232.291 944.96 230.651 945.4 228.758 945.4ZM227.478 941.24C229.104 941.24 230.398 940.68 231.358 939.56C232.318 938.413 232.798 936.813 232.798 934.76C232.798 932.707 232.304 931.12 231.318 930C230.358 928.88 229.064 928.32 227.438 928.32C225.838 928.32 224.544 928.893 223.558 930.04C222.571 931.16 222.078 932.747 222.078 934.8C222.078 936.853 222.571 938.44 223.558 939.56C224.544 940.68 225.851 941.24 227.478 941.24ZM242.694 953.2L247.974 941.36L248.894 939.84L254.654 924.6H260.014L247.814 953.2H242.694ZM247.214 944.8L238.934 924.6H244.414L251.334 942.92L247.214 944.8ZM270.394 945V916.2H275.594V945H270.394ZM272.874 933.44V929.32H289.074V933.44H272.874ZM272.874 920.32V916.2H290.034V920.32H272.874ZM294.344 945V924.6H299.264V929.52H299.384V945H294.344ZM299.384 934.36L298.864 929.52C299.344 927.787 300.157 926.467 301.304 925.56C302.451 924.653 303.824 924.2 305.424 924.2C305.984 924.2 306.384 924.253 306.624 924.36V929.12C306.491 929.067 306.304 929.04 306.064 929.04C305.824 929.013 305.531 929 305.184 929C303.237 929 301.784 929.427 300.824 930.28C299.864 931.133 299.384 932.493 299.384 934.36ZM318.66 945.4C316.5 945.4 314.607 944.947 312.98 944.04C311.38 943.133 310.127 941.88 309.22 940.28C308.34 938.68 307.9 936.84 307.9 934.76C307.9 932.68 308.34 930.853 309.22 929.28C310.127 927.68 311.38 926.44 312.98 925.56C314.58 924.653 316.447 924.2 318.58 924.2C320.607 924.2 322.367 924.627 323.86 925.48C325.354 926.307 326.514 927.48 327.34 929C328.167 930.52 328.58 932.293 328.58 934.32C328.58 934.693 328.567 935.04 328.54 935.36C328.514 935.68 328.474 936 328.42 936.32H311.02V932.8H324.54L323.5 933.76C323.5 931.84 323.06 930.4 322.18 929.44C321.3 928.48 320.074 928 318.5 928C316.794 928 315.434 928.587 314.42 929.76C313.434 930.933 312.94 932.627 312.94 934.84C312.94 937.027 313.434 938.707 314.42 939.88C315.434 941.027 316.86 941.6 318.7 941.6C319.767 941.6 320.7 941.4 321.5 941C322.3 940.6 322.887 939.987 323.26 939.16H328.02C327.354 941.08 326.22 942.6 324.62 943.72C323.047 944.84 321.06 945.4 318.66 945.4ZM341.785 945.4C339.625 945.4 337.732 944.947 336.105 944.04C334.505 943.133 333.252 941.88 332.345 940.28C331.465 938.68 331.025 936.84 331.025 934.76C331.025 932.68 331.465 930.853 332.345 929.28C333.252 927.68 334.505 926.44 336.105 925.56C337.705 924.653 339.572 924.2 341.705 924.2C343.732 924.2 345.492 924.627 346.985 925.48C348.479 926.307 349.639 927.48 350.465 929C351.292 930.52 351.705 932.293 351.705 934.32C351.705 934.693 351.692 935.04 351.665 935.36C351.639 935.68 351.599 936 351.545 936.32H334.145V932.8H347.665L346.625 933.76C346.625 931.84 346.185 930.4 345.305 929.44C344.425 928.48 343.199 928 341.625 928C339.919 928 338.559 928.587 337.545 929.76C336.559 930.933 336.065 932.627 336.065 934.84C336.065 937.027 336.559 938.707 337.545 939.88C338.559 941.027 339.985 941.6 341.825 941.6C342.892 941.6 343.825 941.4 344.625 941C345.425 940.6 346.012 939.987 346.385 939.16H351.145C350.479 941.08 349.345 942.6 347.745 943.72C346.172 944.84 344.185 945.4 341.785 945.4ZM367.117 945.4C365.17 945.4 363.584 944.947 362.357 944.04C361.157 943.107 360.41 941.827 360.117 940.2L360.517 940.16V953.2H355.477V924.6H360.397V929.2L359.997 929.12C360.37 927.6 361.224 926.4 362.557 925.52C363.89 924.64 365.517 924.2 367.437 924.2C369.25 924.2 370.824 924.64 372.157 925.52C373.517 926.373 374.57 927.587 375.317 929.16C376.064 930.733 376.437 932.587 376.437 934.72C376.437 936.88 376.05 938.76 375.277 940.36C374.504 941.96 373.424 943.2 372.037 944.08C370.65 944.96 369.01 945.4 367.117 945.4ZM365.837 941.24C367.464 941.24 368.757 940.68 369.717 939.56C370.677 938.413 371.157 936.813 371.157 934.76C371.157 932.707 370.664 931.12 369.677 930C368.717 928.88 367.424 928.32 365.797 928.32C364.197 928.32 362.904 928.893 361.917 930.04C360.93 931.16 360.437 932.747 360.437 934.8C360.437 936.853 360.93 938.44 361.917 939.56C362.904 940.68 364.21 941.24 365.837 941.24ZM380.203 945V924.6H385.243V945H380.203ZM379.963 921.24V915.68H385.443V921.24H379.963ZM390.594 945V915.92H395.634V945H390.594ZM403.754 945L394.474 934.4L403.474 924.6H409.554L399.154 935.32L399.434 933.44L409.954 945H403.754Z" fill="#577D68"/>
<defs>
<linearGradient id="paint0_linear_310_41" x1="127.659" y1="-13.3928" x2="457.89" y2="1051.2" gradientUnits="userSpaceOnUse">
<stop stop-color="#FFD977" stop-opacity="0"/>
<stop offset="0.99" stop-color="#F06D51"/>
</linearGradient>
<linearGradient id="paint1_linear_310_41" x1="544.452" y1="582.825" x2="270.548" y2="582.825" gradientUnits="userSpaceOnUse">
<stop stop-color="#F0A58A"/>
<stop offset="1" stop-color="#FFDFB6"/>
</linearGradient>
<linearGradient id="paint2_linear_310_41" x1="647.447" y1="575.163" x2="509.308" y2="575.163" gradientUnits="userSpaceOnUse">
<stop stop-color="#F0A58A"/>
<stop offset="1" stop-color="#FFDFB6"/>
</linearGradient>
<linearGradient id="paint3_linear_310_41" x1="172.24" y1="572.948" x2="-56.0714" y2="572.948" gradientUnits="userSpaceOnUse">
<stop stop-color="#F0A58A"/>
<stop offset="1" stop-color="#FFDFB6"/>
</linearGradient>
<linearGradient id="paint4_linear_310_41" x1="293.939" y1="615.001" x2="120.186" y2="625.05" gradientUnits="userSpaceOnUse">
<stop stop-color="#D48322"/>
<stop offset="1" stop-color="#FFBF81"/>
</linearGradient>
<linearGradient id="paint5_linear_310_41" x1="831.876" y1="628.165" x2="171.795" y2="628.165" gradientUnits="userSpaceOnUse">
<stop stop-color="#D48322"/>
<stop offset="1" stop-color="#FFBF81"/>
</linearGradient>
<linearGradient id="paint6_linear_310_41" x1="905.713" y1="666.064" x2="-314.334" y2="666.064" gradientUnits="userSpaceOnUse">
<stop stop-color="#F0A58A"/>
<stop offset="1" stop-color="#FFDFB6"/>
</linearGradient>
<linearGradient id="paint7_linear_310_41" x1="1026.56" y1="820.605" x2="-486.859" y2="820.605" gradientUnits="userSpaceOnUse">
<stop stop-color="#EBEAB0"/>
<stop offset="1" stop-color="#A6BF76"/>
</linearGradient>
<linearGradient id="paint8_linear_310_41" x1="783.592" y1="742.748" x2="-496.739" y2="742.748" gradientUnits="userSpaceOnUse">
<stop stop-color="white" stop-opacity="0"/>
<stop offset="1" stop-color="white"/>
</linearGradient>
<linearGradient id="paint9_linear_310_41" x1="1058.16" y1="759.023" x2="-515.704" y2="759.023" gradientUnits="userSpaceOnUse">
<stop stop-color="#567D67" stop-opacity="0.99"/>
<stop offset="0.95" stop-color="#69A588"/>
</linearGradient>
<linearGradient id="paint10_linear_310_41" x1="218.656" y1="980.97" x2="218.656" y2="801.607" gradientUnits="userSpaceOnUse">
<stop stop-color="#567D67" stop-opacity="0.99"/>
<stop offset="0.95" stop-color="#69A588"/>
</linearGradient>
<linearGradient id="paint11_linear_310_41" x1="623.924" y1="839.664" x2="623.924" y2="953.044" gradientUnits="userSpaceOnUse">
<stop stop-color="#567D67" stop-opacity="0.99"/>
<stop offset="0.95" stop-color="#69A588"/>
</linearGradient>
</defs>
</svg>
