<svg width="513" height="533" viewBox="0 0 513 533" fill="none" xmlns="http://www.w3.org/2000/svg">
<path d="M209.299 70.7071C209.299 70.7071 220.131 58.0889 225.508 58.6279C231.357 59.2225 230.037 64.6489 225.823 66.6745C225.823 66.6745 231.534 64.7047 231.908 69.0532C232.283 73.4203 223.282 74.0707 209.299 70.6885V70.7071Z" fill="#69883A"/>
<path d="M191.95 83.3627C191.95 83.3627 209.419 76.7284 214.264 79.9434C219.523 83.4557 215.21 87.9714 210.03 87.8042C210.03 87.8042 216.608 88.7891 214.501 93.1376C212.393 97.4862 203.432 93.6022 191.97 83.3627H191.95Z" fill="#69883A"/>
<path d="M172.843 102.485C172.843 102.485 191.533 93.3045 197.284 96.3893C203.547 99.7529 199.254 105.235 193.463 105.57C193.463 105.57 200.908 105.978 199.057 111.052C197.225 116.125 186.787 112.706 172.823 102.485H172.843Z" fill="#69883A"/>
<path d="M156.204 125.677C156.204 125.677 179.798 115.289 186.731 119.396C194.274 123.856 188.661 130.416 181.492 130.546C181.492 130.546 190.65 131.438 188.09 137.589C185.53 143.759 172.846 139.001 156.204 125.677Z" fill="#69883A"/>
<path d="M142.24 156.284C142.24 156.284 169.97 144.075 178.104 148.888C186.967 154.147 180.369 161.822 171.96 161.989C171.96 161.989 182.713 163.03 179.719 170.277C176.706 177.525 161.817 171.95 142.26 156.284H142.24Z" fill="#69883A"/>
<path d="M192.795 82.9723C192.795 82.9723 197.561 65.7826 193.582 61.6571C189.23 57.1599 185.035 61.7872 185.862 66.6189C185.862 66.6189 184.011 60.5793 179.698 63.1066C175.385 65.634 180.604 73.5134 192.814 82.9723H192.795Z" fill="#69883A"/>
<path d="M172.468 102.448C172.468 102.448 179.775 83.7897 175.816 78.8093C171.484 73.3644 166.284 78.066 166.639 83.5295C166.639 83.5295 165.28 76.6165 160.179 78.9766C155.078 81.3367 159.982 90.6656 172.488 102.448H172.468Z" fill="#69883A"/>
<path d="M155.768 125.752C155.768 125.752 160.574 101.593 154.646 96.2972C148.186 90.5177 142.868 97.2635 144.503 103.842C144.503 103.842 141.312 95.6839 135.621 99.5679C129.929 103.433 137.945 113.84 155.768 125.752Z" fill="#69883A"/>
<path d="M142.318 156.544C142.318 156.544 142.062 127.665 133.967 122.815C125.124 117.519 120.614 126.439 124.081 133.687C124.081 133.687 118.468 124.971 112.815 130.639C107.182 136.307 118.921 146.602 142.318 156.544Z" fill="#69883A"/>
<path d="M136.232 182.264C136.075 182.116 135.996 181.911 136.016 181.688C140.467 141.92 160.477 113.524 176.488 96.7245C193.82 78.5127 210.344 69.574 210.521 69.4811C210.876 69.2953 211.328 69.4068 211.525 69.7413C211.722 70.0758 211.604 70.5032 211.25 70.689C211.092 70.782 194.745 79.6277 177.552 97.6908C161.717 114.342 141.904 142.458 137.493 181.837C137.453 182.227 137.079 182.506 136.685 182.469C136.508 182.469 136.35 182.376 136.232 182.264Z" fill="#69883A"/>
<path d="M373.692 197.484C373.692 197.484 359.846 187.82 354.785 189.623C349.27 191.574 351.988 196.518 356.616 197.502C356.616 197.502 350.57 196.945 351.358 201.256C352.165 205.568 361.028 204.062 373.672 197.502L373.692 197.484Z" fill="#69883A"/>
<path d="M393.859 205.624C393.859 205.624 375.169 203.338 371.348 207.594C367.192 212.24 372.569 215.585 377.552 214.191C377.552 214.191 371.446 216.7 374.637 220.416C377.827 224.133 385.469 218.242 393.859 205.624Z" fill="#69883A"/>
<path d="M417.435 219.617C417.435 219.617 396.894 215.157 392.147 219.505C386.968 224.244 392.581 228.537 398.272 227.496C398.272 227.496 391.182 229.652 394.314 234.13C397.445 238.609 406.623 232.83 417.416 219.635L417.435 219.617Z" fill="#69883A"/>
<path d="M439.709 238.107C439.709 238.107 414.106 233.647 408.493 239.24C402.368 245.354 409.557 250.353 416.529 248.792C416.529 248.792 407.902 251.821 412.019 257.173C416.135 262.526 427.144 254.943 439.709 238.107Z" fill="#69883A"/>
<path d="M461.373 264.44C461.373 264.44 431.279 259.199 424.701 265.778C417.513 272.969 425.942 278.842 434.135 277.002C434.135 277.002 423.992 280.551 428.837 286.851C433.682 293.151 446.602 284.231 461.373 264.44Z" fill="#69883A"/>
<path d="M392.934 205.438C392.934 205.438 383.737 189.921 386.514 184.996C389.527 179.625 394.825 183.1 395.317 187.969C395.317 187.969 395.514 181.688 400.359 183.1C405.204 184.513 402.25 193.396 392.954 205.438H392.934Z" fill="#69883A"/>
<path d="M417.789 219.487C417.789 219.487 405.756 203.152 408.277 197.391C411.014 191.091 417.317 194.418 418.42 199.788C418.42 199.788 417.908 192.782 423.462 193.86C429.016 194.938 426.751 205.122 417.789 219.487Z" fill="#69883A"/>
<path d="M440.162 238.089C440.162 238.089 429.094 215.844 433.407 209.303C438.114 202.167 445.066 207.444 445.243 214.209C445.243 214.209 446.149 205.567 452.688 207.965C459.227 210.362 454.224 222.33 440.162 238.089Z" fill="#69883A"/>
<path d="M461.375 264.718C461.375 264.718 453.93 236.713 460.489 230.097C467.638 222.868 474.373 230.45 472.955 238.274C472.955 238.274 476.067 228.499 483.039 232.662C490.011 236.824 481.385 249.573 461.375 264.718Z" fill="#69883A"/>
<path d="M474.078 288.171C474.196 287.985 474.216 287.78 474.137 287.557C459.248 250.112 432.325 227.365 412.374 214.896C390.749 201.367 372.374 196.628 372.197 196.573C371.803 196.48 371.389 196.703 371.291 197.074C371.192 197.446 371.429 197.836 371.823 197.929C372 197.966 390.178 202.668 411.626 216.085C431.38 228.462 458.027 250.985 472.778 288.059C472.916 288.412 473.349 288.598 473.723 288.468C473.881 288.412 474.019 288.301 474.098 288.171H474.078Z" fill="#69883A"/>
<path d="M342.177 147.977C341.646 147.438 340.759 147.308 340.09 147.736C287.426 180.573 184.166 286.629 144.658 338.458C111.354 382.129 28.9712 464.454 3.3877 489.746H7.8781C35.6674 462.224 114.781 382.91 147.317 340.223C186.667 288.599 289.494 182.951 341.902 150.282C342.65 149.817 342.847 148.869 342.355 148.163C342.315 148.089 342.256 148.033 342.197 147.977H342.177Z" fill="#2CB7A6"/>
<path d="M150.529 452.894C150.746 453.117 150.845 453.415 150.805 453.731C150.726 454.288 150.175 454.678 149.584 454.585C149.348 454.548 125.773 451.259 98.6338 451.947C73.7396 452.578 40.6523 456.76 24.5026 473.132C24.089 473.541 23.4194 473.559 22.9664 473.188C22.5331 472.797 22.5134 472.165 22.9073 471.738C36.2801 458.153 61.7454 450.813 98.5944 449.902C125.911 449.215 149.643 452.541 149.88 452.578C150.136 452.616 150.352 452.727 150.51 452.894H150.529Z" fill="#2CB7A6"/>
<path d="M135.94 421.954C136.216 422.233 136.314 422.66 136.137 423.032C135.842 423.72 128.476 440.129 108.348 451.242C107.836 451.52 107.186 451.372 106.871 450.87C106.575 450.387 106.752 449.755 107.264 449.476C126.723 438.735 134.069 422.4 134.148 422.233C134.384 421.713 135.014 421.471 135.566 421.675C135.723 421.731 135.842 421.824 135.94 421.936V421.954Z" fill="#2CB7A6"/>
<path d="M91.9603 336.545C92.0391 336.675 92.0982 336.805 92.1179 336.954C100.646 404.672 18.9124 477.631 18.0852 478.355C17.6519 478.746 16.9626 478.708 16.549 478.3C16.1354 477.872 16.1551 477.24 16.6081 476.85C17.4353 476.125 98.3808 403.873 89.9712 337.177C89.8924 336.619 90.3257 336.117 90.9165 336.043C91.3498 335.987 91.7437 336.192 91.9603 336.526V336.545Z" fill="#2CB7A6"/>
<path d="M26.5319 340.781C26.7682 341.023 26.8864 341.395 26.7879 341.729C23.6564 352.693 27.9302 364.513 35.6899 385.939C36.7732 388.931 37.9155 392.09 39.1168 395.454C48.9248 422.976 32.2828 464.473 31.5737 466.239C31.3571 466.759 30.7269 467.019 30.1754 466.833C29.624 466.629 29.3482 466.034 29.5452 465.514C29.7224 465.086 46.6206 422.939 37.0686 396.123C35.8672 392.759 34.7249 389.6 33.6417 386.608C25.7441 364.791 21.3915 352.786 24.7003 341.209C24.8578 340.67 25.4487 340.335 26.0198 340.484C26.2168 340.54 26.394 340.633 26.5319 340.781Z" fill="#2CB7A6"/>
<path d="M255.426 323.462C255.604 323.648 255.702 323.889 255.702 324.168C255.702 324.725 255.19 325.171 254.599 325.153C253.733 325.134 167.568 323.22 144.269 342.659C143.875 342.993 143.304 342.993 142.89 342.696C142.477 342.398 142.359 341.859 142.595 341.413C142.871 340.912 170.128 290.922 163.255 258.736C163.137 258.178 163.511 257.639 164.102 257.528C164.693 257.416 165.264 257.769 165.382 258.327C169.065 275.554 163.196 297.519 157.602 312.888C153.545 324.056 149.055 333.478 146.534 338.496C174.402 321.325 251.251 323.016 254.658 323.109C254.973 323.109 255.249 323.239 255.446 323.462H255.426Z" fill="#2CB7A6"/>
<path d="M276.677 254.238C276.834 254.405 276.952 254.628 276.952 254.87C276.992 255.427 276.539 255.91 275.928 255.948C253.417 257.118 189.291 290.401 188.641 290.736C188.129 291.015 187.479 290.829 187.164 290.327C186.868 289.844 187.065 289.212 187.597 288.933C190.256 287.558 252.807 255.074 275.81 253.885C276.145 253.885 276.46 253.996 276.677 254.219V254.238Z" fill="#2CB7A6"/>
<path d="M247.172 150.449C247.271 150.561 247.349 150.672 247.409 150.821C252.943 166.747 245.321 194.622 224.74 233.722C209.476 262.712 192.401 287.409 192.224 287.651C191.889 288.115 191.219 288.246 190.727 287.948C190.235 287.651 190.077 287 190.412 286.536C191.101 285.551 258.162 188.304 245.341 151.453C245.163 150.914 245.459 150.338 246.03 150.17C246.444 150.04 246.897 150.17 247.172 150.449Z" fill="#2CB7A6"/>
<path d="M142.634 452.803C142.634 452.803 169.478 478.485 195.455 474.044C221.433 469.602 228.286 448.956 244.535 455.665C244.535 455.665 201.442 391.013 142.634 452.803Z" fill="#2CB7A6"/>
<g style="mix-blend-mode:multiply" opacity="0.4">
<path d="M195.455 474.043C212.885 471.07 221.708 460.793 230.532 456.389C220.015 448.008 190.984 431.264 150.157 458.99C159.946 466.275 177.887 477.054 195.455 474.043Z" fill="#2CB7A6"/>
</g>
<path d="M331.249 156.135C331.249 156.135 367.527 167.527 388.541 152.456C409.555 137.385 405.715 116.051 423.44 115.047C423.44 115.047 353.937 75.8919 331.249 156.135Z" fill="#2CB7A6"/>
<g style="mix-blend-mode:multiply" opacity="0.4">
<path d="M388.52 152.456C402.622 142.347 405.537 129.413 411.287 121.7C397.895 118.727 363.961 116.237 340.918 158.44C353.148 160.744 374.32 162.658 388.52 152.456Z" fill="#2CB7A6"/>
</g>
<path d="M134.502 423.199C134.502 423.199 162.154 419.538 170.682 402.887C179.209 386.236 169.342 373.135 180.588 366.947C180.588 366.947 121.642 362.356 134.502 423.199Z" fill="#2CB7A6"/>
<g style="mix-blend-mode:multiply" opacity="0.4">
<path d="M170.68 402.906C176.411 391.737 173.851 382.148 174.953 375.198C165.165 377.372 142.122 386.274 141.63 421.749C150.414 419.482 164.929 414.167 170.699 402.906H170.68Z" fill="#2CB7A6"/>
</g>
<path d="M24.0922 343.327C24.0922 343.327 6.38662 326.248 10.0302 309.839C13.6737 293.43 28.4645 289.174 24.0134 278.861C24.0134 278.861 69.0357 306.383 24.0922 343.345V343.327Z" fill="#2CB7A6"/>
<g style="mix-blend-mode:multiply" opacity="0.4">
<path d="M10.03 309.84C12.4722 298.82 19.9365 293.282 23.2255 287.707C28.9764 294.378 40.3009 312.813 19.838 338.551C14.8553 332.326 7.56819 320.934 10.03 309.84Z" fill="#2CB7A6"/>
</g>
<path d="M90.8926 338.235C90.8926 338.235 76.7517 313.296 86.6582 295.772C96.5647 278.247 114.861 278.024 113.423 264.923C113.423 264.923 154.96 310.248 90.8926 338.235Z" fill="#2CB7A6"/>
<g style="mix-blend-mode:multiply" opacity="0.4">
<path d="M86.6612 295.791C93.2983 284.027 103.717 280.069 109.428 274.754C113.623 284.139 120.024 308.632 87.7444 331.49C84.2584 322.867 79.965 307.628 86.6612 295.791Z" fill="#2CB7A6"/>
</g>
<path d="M164.199 262.136C164.199 262.136 148.837 243.719 154.233 228.072C159.629 212.425 174.519 209.749 171.328 199.249C171.328 199.249 212.155 230.562 164.199 262.117V262.136Z" fill="#2CB7A6"/>
<g style="mix-blend-mode:multiply" opacity="0.4">
<path d="M154.252 228.091C157.876 217.591 165.754 212.927 169.594 207.835C174.459 214.915 183.42 234.019 160.594 257.063C156.438 250.503 150.589 238.665 154.232 228.091H154.252Z" fill="#2CB7A6"/>
</g>
<path d="M246.305 156.842C246.305 156.842 225.508 132.721 232.283 111.851C239.077 90.9821 258.772 87.1167 254.301 73.2534C254.301 73.2534 309.211 113.951 246.305 156.842Z" fill="#2CB7A6"/>
<g style="mix-blend-mode:multiply" opacity="0.4">
<path d="M232.302 111.87C236.852 97.8578 247.211 91.5209 252.194 84.6636C258.811 93.9553 271.16 119.117 241.421 150.189C235.749 141.566 227.713 125.975 232.302 111.87Z" fill="#2CB7A6"/>
</g>
<path d="M251.939 323.982C251.939 323.982 274.392 343.643 294.244 339.908C314.076 336.173 318.035 320.061 331.073 325.079C331.073 325.079 293.476 275.331 251.939 323.982Z" fill="#2CB7A6"/>
<g style="mix-blend-mode:multiply" opacity="0.4">
<path d="M294.243 339.908C307.556 337.4 313.721 329.316 320.279 325.804C311.594 319.411 288.019 306.718 258.182 328.721C266.237 334.278 280.85 342.436 294.262 339.927L294.243 339.908Z" fill="#2CB7A6"/>
</g>
<path d="M274.41 255.484C274.41 255.484 295.109 261.505 306.513 253.384C317.936 245.263 315.218 233.853 325.144 233.277C325.144 233.277 285.045 212.482 274.41 255.484Z" fill="#2CB7A6"/>
<g style="mix-blend-mode:multiply" opacity="0.4">
<path d="M306.532 253.383C314.194 247.938 315.494 241.007 318.527 236.863C310.924 235.302 291.781 234.056 279.925 256.691C286.857 257.899 298.812 258.865 306.532 253.383Z" fill="#2CB7A6"/>
</g>
<path d="M215.721 389.712C232.008 398.52 270.413 397.201 282.584 382.409C289.281 374.269 287.173 359.755 275.238 357.47C261.275 354.794 249.911 369.883 240.477 377.019C235.435 380.829 222.594 394.116 215.721 389.693" fill="#199D66"/>
<path d="M206.365 386.442C206.365 386.442 206.602 386.59 207.074 386.813C207.547 387.036 208.256 387.334 209.182 387.631C210.088 387.965 211.25 388.244 212.53 388.579C213.869 388.82 215.346 389.118 216.981 389.266C218.615 389.508 220.427 389.471 222.298 389.582C224.189 389.489 226.178 389.526 228.226 389.285C229.251 389.192 230.294 389.08 231.358 388.987C232.402 388.802 233.465 388.616 234.529 388.467C236.676 388.207 238.822 387.631 240.969 387.148C243.135 386.757 245.243 386.033 247.33 385.475C249.438 384.918 251.466 384.23 253.436 383.561C255.405 382.892 257.335 382.316 259.088 381.591C260.861 380.904 262.554 380.272 264.13 379.714C265.725 379.175 267.084 378.506 268.364 378.023C269.625 377.521 270.728 377.075 271.653 376.722C273.485 376.016 274.549 375.626 274.549 375.626C274.549 375.626 273.623 376.239 271.969 377.261C271.141 377.763 270.117 378.376 268.955 379.082C267.774 379.751 266.493 380.625 264.957 381.331C263.46 382.093 261.826 382.911 260.073 383.728C258.359 384.602 256.449 385.364 254.46 386.126C252.471 386.888 250.462 387.761 248.295 388.337C246.129 388.95 244.002 389.731 241.737 390.177C239.492 390.641 237.266 391.199 235.021 391.441C233.899 391.608 232.776 391.738 231.693 391.868C230.57 391.924 229.487 391.979 228.404 392.035C226.257 392.221 224.15 391.979 222.16 391.924C220.191 391.682 218.32 391.496 216.646 391.05C214.952 390.734 213.455 390.177 212.136 389.731C210.836 389.192 209.733 388.709 208.886 388.207C208 387.742 207.389 387.278 206.976 386.962C206.562 386.646 206.365 386.46 206.365 386.46V386.442Z" fill="#4BBA73"/>
<path d="M242.13 409.67C249.752 419.631 274.469 429.183 286.66 423.106C293.356 419.761 296.428 410.024 289.575 405.34C281.559 399.877 269.781 406.344 261.647 408.314C257.315 409.373 245.143 414.298 242.15 409.652" fill="#199D66"/>
<path d="M237.204 405.062C237.204 405.062 237.322 405.21 237.539 405.489C237.775 405.749 238.13 406.14 238.622 406.586C239.095 407.05 239.745 407.533 240.454 408.091C241.222 408.593 242.069 409.187 243.073 409.726C244.019 410.321 245.181 410.786 246.343 411.362C247.564 411.808 248.804 412.384 250.183 412.774C250.853 412.978 251.562 413.201 252.251 413.424C252.98 413.592 253.689 413.759 254.417 413.945C255.855 414.354 257.391 414.577 258.888 414.855C260.385 415.19 261.921 415.301 263.418 415.506C264.915 415.729 266.412 415.822 267.849 415.933C269.287 416.045 270.685 416.193 272.025 416.212C273.364 416.249 274.624 416.323 275.786 416.379C276.948 416.472 278.032 416.416 278.977 416.453C279.922 416.472 280.769 416.491 281.458 416.509C282.837 416.565 283.625 416.602 283.625 416.602C283.625 416.602 282.857 416.732 281.498 416.937C280.808 417.03 279.981 417.141 279.036 417.271C278.091 417.383 277.007 417.587 275.826 417.606C274.644 417.68 273.364 417.754 272.005 417.81C270.646 417.903 269.208 417.866 267.731 417.81C266.254 417.754 264.698 417.773 263.162 417.55C261.606 417.345 260.031 417.271 258.455 416.937C256.899 416.621 255.323 416.379 253.827 415.915C253.059 415.71 252.33 415.506 251.581 415.283C250.853 415.023 250.144 414.762 249.454 414.502C248.036 414.038 246.776 413.313 245.535 412.755C244.353 412.068 243.231 411.455 242.305 410.711C241.32 410.042 240.552 409.299 239.843 408.667C239.193 407.979 238.642 407.366 238.248 406.827C237.834 406.307 237.598 405.824 237.421 405.526C237.263 405.21 237.185 405.043 237.185 405.043L237.204 405.062Z" fill="#4BBA73"/>
<path d="M309.899 101.109C319.51 85.9077 318.782 49.6328 303.321 37.9066C294.813 31.4396 279.412 33.1864 276.773 44.4108C273.7 57.5308 289.476 68.5136 296.881 77.5452C300.82 82.3583 314.685 94.6977 309.88 101.109" fill="#199D66"/>
<path d="M306.256 109.882C306.256 109.882 306.413 109.659 306.65 109.213C306.886 108.767 307.221 108.116 307.555 107.243C307.93 106.388 308.245 105.31 308.619 104.102C308.895 102.857 309.249 101.463 309.426 99.9024C309.722 98.3785 309.702 96.6689 309.84 94.9034C309.761 93.1194 309.84 91.2425 309.623 89.2912C309.545 88.3249 309.446 87.34 309.348 86.3365C309.17 85.3515 308.993 84.348 308.855 83.3259C308.619 81.3003 308.048 79.2562 307.575 77.2306C307.201 75.1678 306.472 73.1794 305.901 71.1909C305.35 69.2025 304.641 67.2698 303.971 65.4115C303.301 63.5531 302.73 61.7134 301.982 60.0408C301.273 58.3497 300.662 56.733 300.071 55.2463C299.52 53.741 298.85 52.4216 298.358 51.2137C297.846 50.0058 297.393 48.9651 297.038 48.0917C296.329 46.3448 295.936 45.3413 295.936 45.3413C295.936 45.3413 296.566 46.2333 297.629 47.8129C298.141 48.612 298.791 49.5783 299.5 50.6933C300.19 51.8269 301.096 53.0349 301.805 54.503C302.573 55.9339 303.42 57.4949 304.266 59.1488C305.172 60.7842 305.94 62.6054 306.709 64.4823C307.477 66.3592 308.383 68.2733 308.954 70.3361C309.564 72.3803 310.352 74.4059 310.785 76.543C311.238 78.6615 311.79 80.78 312.006 82.9171C312.164 83.9764 312.282 85.0356 312.4 86.0763C312.44 87.1355 312.479 88.1576 312.519 89.1797C312.676 91.2239 312.381 93.1938 312.302 95.0707C312.006 96.929 311.79 98.6945 311.278 100.274C310.904 101.872 310.293 103.266 309.801 104.511C309.21 105.719 308.678 106.76 308.127 107.559C307.634 108.376 307.102 108.953 306.768 109.343C306.433 109.733 306.216 109.919 306.216 109.919L306.256 109.882Z" fill="#4BBA73"/>
<path d="M331.483 76.5429C342.177 69.5183 352.714 46.3819 346.49 34.7672C343.063 28.3931 332.783 25.3268 327.721 31.701C321.793 39.1715 328.45 50.3774 330.4 58.1081C331.443 62.215 336.466 73.774 331.483 76.5429Z" fill="#199D66"/>
<path d="M326.521 81.0951C326.521 81.0951 326.699 81.0022 326.974 80.7792C327.25 80.5562 327.664 80.2403 328.156 79.7757C328.649 79.3483 329.18 78.735 329.791 78.066C330.342 77.3413 330.992 76.5608 331.583 75.6316C332.233 74.7396 332.745 73.6618 333.375 72.5839C333.868 71.4317 334.498 70.2796 334.931 68.9787C335.167 68.3469 335.404 67.6965 335.66 67.046C335.857 66.377 336.034 65.6894 336.251 65.0019C336.723 63.6453 336.96 62.2143 337.295 60.802C337.688 59.3896 337.826 57.9401 338.063 56.5278C338.319 55.1155 338.457 53.7031 338.594 52.3465C338.732 50.9899 338.929 49.6705 338.969 48.4068C339.028 47.1431 339.126 45.9538 339.225 44.8574C339.343 43.7609 339.303 42.7389 339.362 41.8468C339.402 40.9548 339.441 40.1558 339.461 39.5239C339.54 38.2231 339.599 37.4797 339.599 37.4797C339.599 37.4797 339.737 38.2045 339.914 39.5053C339.993 40.1558 340.111 40.9363 340.229 41.8283C340.328 42.7203 340.524 43.7424 340.544 44.8574C340.603 45.9724 340.662 47.1803 340.682 48.4626C340.761 49.7448 340.682 51.1014 340.603 52.4952C340.524 53.8889 340.505 55.3385 340.249 56.8065C340.012 58.2746 339.894 59.7613 339.52 61.2294C339.166 62.6975 338.87 64.1842 338.358 65.5779C338.141 66.2841 337.885 66.9903 337.649 67.6779C337.354 68.3469 337.058 69.0159 336.782 69.6849C336.27 71.0229 335.483 72.1937 334.852 73.3458C334.104 74.4423 333.434 75.5015 332.627 76.3564C331.898 77.2669 331.091 77.9917 330.421 78.6421C329.673 79.2554 329.023 79.7571 328.432 80.1102C327.861 80.5005 327.368 80.7235 327.034 80.8721C326.699 81.0208 326.521 81.0766 326.521 81.0766V81.0951Z" fill="#4BBA73"/>
<path d="M368.058 402.701C368.058 402.701 364.592 448.565 305.507 453.545C305.507 453.545 301.726 418.497 368.058 402.701Z" fill="#339159"/>
<path d="M370.798 318.481C370.798 318.481 373.182 346.895 348.386 363.063C348.386 363.063 341.65 328.256 370.798 318.481Z" fill="#339159"/>
<path d="M377.928 361.018C377.928 361.018 366.505 398.222 410.267 417.847C410.267 417.847 424.151 372.373 377.928 361.018Z" fill="#339159"/>
<path d="M357.011 286.462C357.011 286.462 366.976 307.87 412.136 318.407C412.136 318.407 399.473 275.498 357.011 286.462Z" fill="#339159"/>
<path d="M323.905 441.224C323.905 441.224 324.732 440.76 326.15 439.942C327.569 439.124 329.577 437.898 331.941 436.411C333.122 435.668 334.403 434.831 335.742 433.939C337.081 433.047 338.46 432.081 339.897 431.096C341.315 430.093 342.773 429.015 344.23 427.918C345.688 426.822 347.145 425.67 348.583 424.499C350.001 423.328 351.419 422.12 352.758 420.894C354.097 419.667 355.417 418.459 356.618 417.233C357.229 416.62 357.82 416.025 358.391 415.412C358.962 414.817 359.513 414.222 360.045 413.628C360.577 413.033 361.089 412.476 361.542 411.899C362.015 411.323 362.487 410.784 362.901 410.246C363.315 409.707 363.728 409.186 364.102 408.685C364.477 408.183 364.811 407.7 365.146 407.254C365.796 406.343 366.308 405.525 366.761 404.856C367.588 403.5 368.061 402.719 368.061 402.719C368.061 402.719 367.962 402.924 367.785 403.314C367.588 403.704 367.352 404.262 366.978 404.986C366.584 405.674 366.131 406.547 365.56 407.495C365.264 407.978 364.949 408.48 364.614 409.019C364.28 409.539 363.886 410.078 363.492 410.654C362.684 411.788 361.798 412.996 360.774 414.204C360.282 414.817 359.75 415.449 359.179 416.062C358.627 416.694 358.036 417.326 357.445 417.958C356.855 418.59 356.224 419.221 355.594 419.853C354.964 420.504 354.294 421.117 353.625 421.73C352.285 422.975 350.867 424.202 349.43 425.41C347.972 426.58 346.495 427.751 345.018 428.848C343.541 429.963 342.044 430.985 340.587 431.97C339.129 432.955 337.692 433.865 336.313 434.701C334.934 435.556 333.615 436.318 332.374 437.006C329.912 438.4 327.785 439.44 326.308 440.165C324.811 440.89 323.945 441.243 323.945 441.243L323.905 441.224Z" fill="#227744"/>
<path d="M370.798 318.481C370.798 318.481 369.931 320.061 368.592 322.402C367.922 323.573 367.134 324.93 366.307 326.379C365.894 327.104 365.46 327.866 365.027 328.628C364.594 329.39 364.141 330.17 363.727 330.951C362.841 332.493 362.014 334.073 361.246 335.559C360.872 336.303 360.497 337.028 360.163 337.697C359.828 338.384 359.532 339.035 359.237 339.648C358.941 340.242 358.725 340.819 358.508 341.32C358.292 341.822 358.114 342.249 357.976 342.621C357.701 343.346 357.523 343.773 357.523 343.773C357.523 343.773 357.583 343.327 357.72 342.565C357.779 342.175 357.878 341.711 358.035 341.19C358.193 340.67 358.311 340.057 358.548 339.425C358.764 338.793 358.981 338.087 359.276 337.381C359.572 336.674 359.867 335.894 360.222 335.132C360.596 334.37 360.931 333.571 361.344 332.79C361.758 332.01 362.152 331.192 362.605 330.412C363.038 329.631 363.491 328.851 363.964 328.089C364.417 327.327 364.889 326.584 365.342 325.877C365.795 325.153 366.268 324.484 366.701 323.852C367.134 323.22 367.568 322.607 367.981 322.068C369.596 319.875 370.798 318.518 370.798 318.518V318.481Z" fill="#227744"/>
<path d="M398.726 399.821C398.726 399.821 398.548 399.152 398.253 397.962C397.957 396.773 397.465 395.1 396.855 393.093C396.244 391.086 395.496 388.763 394.609 386.292C394.176 385.065 393.664 383.802 393.172 382.519C392.66 381.237 392.108 379.955 391.517 378.691C390.926 377.428 390.336 376.164 389.666 374.956C389.016 373.748 388.346 372.559 387.637 371.444C386.928 370.329 386.219 369.288 385.491 368.303C384.762 367.337 384.033 366.463 383.324 365.664C382.596 364.884 381.926 364.178 381.276 363.601C380.646 362.988 380.035 362.542 379.543 362.152C379.051 361.762 378.617 361.502 378.341 361.297C378.066 361.111 377.908 361 377.908 361C377.908 361 378.066 361.093 378.381 361.241C378.676 361.409 379.149 361.613 379.681 361.966C380.213 362.319 380.882 362.709 381.571 363.267C382.3 363.787 383.049 364.456 383.836 365.2C384.211 365.59 384.644 365.98 385.038 366.408C385.432 366.854 385.845 367.3 386.239 367.764C387.027 368.73 387.834 369.753 388.563 370.886C389.311 372.001 390.06 373.172 390.73 374.417C391.419 375.644 392.049 376.926 392.66 378.208C393.25 379.509 393.802 380.81 394.294 382.111C394.806 383.411 395.24 384.694 395.653 385.957C396.067 387.221 396.402 388.448 396.736 389.6C397.052 390.77 397.327 391.867 397.544 392.908C398.017 394.97 398.273 396.699 398.47 397.907C398.647 399.114 398.706 399.821 398.706 399.821H398.726Z" fill="#227744"/>
<path d="M384.269 299.563C384.269 299.563 382.851 298.281 380.547 296.608C379.976 296.181 379.326 295.753 378.656 295.289C377.967 294.843 377.258 294.378 376.49 293.914C375.722 293.468 374.934 292.984 374.107 292.557C373.693 292.334 373.279 292.111 372.866 291.888C372.433 291.684 372.019 291.479 371.586 291.275C370.739 290.829 369.853 290.476 369.006 290.104C368.159 289.714 367.273 289.416 366.445 289.1C366.229 289.026 366.032 288.933 365.815 288.859C365.598 288.785 365.402 288.729 365.185 288.654C364.771 288.524 364.377 288.394 363.984 288.264C363.196 287.985 362.447 287.8 361.738 287.614C361.029 287.447 360.399 287.224 359.828 287.112C359.257 286.982 358.745 286.87 358.331 286.796C357.504 286.61 357.031 286.499 357.031 286.499C357.031 286.499 357.524 286.499 358.37 286.573C358.804 286.61 359.316 286.647 359.926 286.685C360.517 286.722 361.187 286.852 361.916 286.963C362.29 287.019 362.664 287.093 363.058 287.149C363.452 287.205 363.846 287.335 364.259 287.428C365.067 287.651 365.973 287.8 366.82 288.116C367.253 288.264 367.706 288.413 368.159 288.562C368.375 288.636 368.612 288.71 368.848 288.785C369.065 288.877 369.281 288.97 369.518 289.063C370.404 289.435 371.33 289.788 372.196 290.234C372.63 290.457 373.063 290.68 373.516 290.884C373.929 291.126 374.363 291.368 374.776 291.591C375.623 292.037 376.391 292.594 377.159 293.077C377.927 293.579 378.617 294.118 379.267 294.62C379.917 295.14 380.527 295.623 381.039 296.125C381.591 296.59 382.044 297.073 382.457 297.482C382.871 297.89 383.206 298.281 383.481 298.578C384.033 299.21 384.309 299.6 384.309 299.6L384.269 299.563Z" fill="#227744"/>
<g style="mix-blend-mode:overlay" opacity="0.4">
<path d="M305.532 450.962C305.414 452.597 305.512 453.545 305.512 453.545C364.596 448.546 368.063 402.701 368.063 402.701C367.767 402.775 367.472 402.849 367.176 402.924C365.325 412.847 355.399 446.521 305.552 450.962H305.532Z" fill="white"/>
</g>
<g style="mix-blend-mode:overlay" opacity="0.4">
<path d="M348.108 361.242C348.246 362.394 348.384 363.063 348.384 363.063C373.16 346.895 370.797 318.481 370.797 318.481C370.62 318.537 370.423 318.611 370.245 318.686C370.285 325.115 368.847 347.49 348.108 361.26V361.242Z" fill="white"/>
</g>
<g style="mix-blend-mode:overlay" opacity="0.4">
<path d="M408.927 417.196C409.38 417.401 409.833 417.624 410.286 417.828C410.286 417.828 424.171 372.354 377.947 361C377.947 361 377.849 361.334 377.691 361.948C417.829 372.707 410.7 410.004 408.927 417.178V417.196Z" fill="white"/>
</g>
<g style="mix-blend-mode:overlay" opacity="0.4">
<path d="M409.26 317.701C410.205 317.942 411.17 318.184 412.155 318.407C412.155 318.407 403.706 289.807 377.492 285.272C400.634 291.071 408.748 315.972 409.28 317.701H409.26Z" fill="white"/>
</g>
<g style="mix-blend-mode:multiply" opacity="0.4">
<path d="M321.087 423.979C336.035 419.277 351.181 420.188 361.638 421.879C367.389 411.546 368.059 402.701 368.059 402.701C344.898 408.22 330.304 416.081 321.087 423.979Z" fill="#339159"/>
</g>
<g style="mix-blend-mode:multiply" opacity="0.4">
<path d="M370.797 318.481C358.153 322.718 352.264 331.675 349.645 340.465C357.424 331.583 366.287 324.595 370.856 321.232C370.875 319.485 370.797 318.481 370.797 318.481Z" fill="#339159"/>
</g>
<g style="mix-blend-mode:multiply" opacity="0.4">
<path d="M395.77 368.731C391.359 365.646 385.825 363.081 378.931 361.279C378.518 361.557 378.104 361.836 377.671 362.115C376.647 366.519 373.771 383.43 385.647 399.245C386.002 385.437 391.418 374.956 395.77 368.731Z" fill="#339159"/>
</g>
<g style="mix-blend-mode:multiply" opacity="0.4">
<path d="M357.011 286.461C357.011 286.461 359.118 290.958 365.736 296.868C376.115 292.52 387.676 292.334 394.47 292.743C385.942 286.22 373.81 282.113 357.011 286.461Z" fill="#339159"/>
</g>
<path d="M340.507 262.006C340.507 262.006 340.92 262.452 341.669 263.326C342.417 264.199 343.5 265.463 344.8 267.154C346.1 268.826 347.656 270.889 349.369 273.305C350.236 274.513 351.103 275.814 352.048 277.17C352.954 278.564 353.919 280.014 354.864 281.556C356.814 284.622 358.764 288.042 360.733 291.684C362.663 295.364 364.653 299.266 366.425 303.41C366.878 304.451 367.351 305.492 367.784 306.551C368.217 307.61 368.631 308.688 369.064 309.766C369.281 310.305 369.498 310.844 369.714 311.383C369.911 311.94 370.108 312.479 370.305 313.037C370.699 314.152 371.093 315.248 371.487 316.382C371.861 317.497 372.196 318.649 372.55 319.782C372.885 320.916 373.279 322.049 373.574 323.22C374.185 325.525 374.874 327.848 375.347 330.189L376.115 333.701C376.312 334.891 376.529 336.061 376.726 337.232C377.179 339.574 377.435 341.952 377.73 344.294C377.809 344.889 377.868 345.465 377.947 346.041C377.986 346.635 378.025 347.212 378.084 347.788C378.163 348.958 378.242 350.111 378.321 351.263C378.419 352.415 378.4 353.567 378.419 354.701C378.419 355.834 378.459 356.968 378.459 358.101C378.459 359.216 378.38 360.331 378.34 361.446C378.281 362.543 378.242 363.639 378.183 364.717C378.006 366.873 377.73 368.973 377.533 371.017C377.435 372.039 377.218 373.043 377.06 374.027C376.883 375.012 376.726 375.979 376.568 376.945C376.489 377.428 376.41 377.893 376.312 378.357C376.194 378.822 376.095 379.287 375.977 379.733C375.76 380.643 375.544 381.535 375.327 382.409C375.111 383.282 374.894 384.137 374.697 384.973C374.441 385.791 374.185 386.59 373.929 387.389C373.417 388.95 372.964 390.437 372.491 391.812C371.959 393.168 371.447 394.451 370.975 395.621C370.738 396.216 370.522 396.774 370.305 397.313C370.207 397.573 370.088 397.851 369.99 398.093C369.872 398.353 369.754 398.595 369.635 398.818C368.729 400.713 368.001 402.2 367.508 403.204C367.016 404.207 366.74 404.746 366.74 404.746C366.74 404.746 366.957 404.188 367.371 403.148C367.784 402.107 368.375 400.565 369.163 398.632C369.261 398.39 369.36 398.149 369.458 397.889C369.537 397.628 369.635 397.368 369.714 397.09C369.891 396.551 370.088 395.975 370.285 395.38C370.679 394.191 371.112 392.908 371.565 391.515C371.959 390.121 372.314 388.615 372.727 387.054C372.924 386.274 373.141 385.475 373.358 384.639C373.515 383.802 373.693 382.948 373.87 382.074C374.047 381.201 374.224 380.309 374.402 379.417C374.5 378.971 374.579 378.506 374.677 378.041C374.756 377.577 374.795 377.112 374.874 376.629C375.111 374.734 375.445 372.782 375.642 370.775C375.78 368.75 375.977 366.687 376.095 364.568C376.095 362.45 376.213 360.276 376.213 358.064C376.174 356.968 376.135 355.853 376.095 354.719C376.036 353.604 376.056 352.471 375.938 351.337C375.839 350.203 375.741 349.07 375.642 347.918C375.603 347.342 375.544 346.766 375.504 346.189C375.426 345.613 375.347 345.037 375.288 344.461C374.992 342.157 374.717 339.834 374.264 337.53C374.047 336.377 373.85 335.207 373.633 334.054L372.865 330.598C372.412 328.275 371.743 326.008 371.152 323.722C370.876 322.57 370.502 321.455 370.167 320.34C369.813 319.225 369.498 318.091 369.123 316.976C367.607 312.553 366.11 308.205 364.337 304.098C362.644 299.972 360.812 296.051 359.02 292.353C358.075 290.532 357.208 288.729 356.282 287.038C355.829 286.183 355.376 285.347 354.943 284.511C354.49 283.693 354.037 282.894 353.604 282.114C351.831 278.992 350.138 276.148 348.582 273.658C347.026 271.168 345.608 269.031 344.406 267.303C343.185 265.574 342.24 264.199 341.57 263.289C340.901 262.378 340.527 261.895 340.527 261.895L340.507 262.006Z" fill="#339159"/>
<path d="M57.3906 125.472C57.3906 125.472 61.1129 79.6262 120.217 74.9246C120.217 74.9246 123.821 109.992 57.3906 125.472Z" fill="#339159"/>
<path d="M54.2026 209.693C54.2026 209.693 51.9771 181.26 76.8516 165.204C76.8516 165.204 83.41 200.048 54.2026 209.693Z" fill="#339159"/>
<path d="M47.2902 167.118C47.2902 167.118 58.9298 129.951 15.2468 110.141C15.2468 110.141 1.1059 155.54 47.2902 167.118Z" fill="#339159"/>
<path d="M67.8109 241.768C67.8109 241.768 57.9635 220.322 12.8428 209.562C12.8428 209.562 25.2702 252.527 67.8109 241.768Z" fill="#339159"/>
<path d="M101.749 87.1719C101.749 87.1719 100.922 87.6179 99.5038 88.4356C98.066 89.2532 96.0572 90.4611 93.6938 91.9478C92.5121 92.6912 91.232 93.5088 89.8927 94.4009C88.5535 95.2743 87.1551 96.2406 85.7174 97.2255C84.2797 98.229 82.8223 99.2883 81.3649 100.385C79.8878 101.481 78.45 102.633 76.9926 103.786C75.5549 104.956 74.1369 106.146 72.7976 107.372C71.4584 108.599 70.1191 109.788 68.9178 111.014C68.3072 111.609 67.7164 112.222 67.1452 112.836C66.5741 113.43 66.0029 114.025 65.4909 114.62C64.9591 115.196 64.4471 115.772 63.9744 116.348C63.5017 116.924 63.0093 117.444 62.6154 118.002C62.2018 118.541 61.7883 119.061 61.3944 119.544C61.0202 120.046 60.6657 120.529 60.3505 120.975C59.6809 121.867 59.1885 122.703 58.7356 123.354C57.8887 124.71 57.416 125.491 57.416 125.491C57.416 125.491 57.5145 125.287 57.6917 124.896C57.8887 124.506 58.1447 123.949 58.4992 123.224C58.8931 122.536 59.3461 121.663 59.9369 120.715C60.2324 120.232 60.5475 119.73 60.8823 119.21C61.2368 118.689 61.611 118.151 62.0049 117.574C62.8124 116.459 63.7183 115.252 64.7425 114.025C65.2348 113.412 65.7863 112.78 66.3377 112.167C66.8892 111.535 67.48 110.903 68.0906 110.29C68.6814 109.658 69.3117 109.026 69.9616 108.394C70.5918 107.762 71.2614 107.149 71.9508 106.517C73.3097 105.272 74.7277 104.064 76.1654 102.875C77.6229 101.704 79.1 100.552 80.5968 99.4741C82.0739 98.3777 83.5904 97.3556 85.0478 96.3707C86.5052 95.3858 87.9626 94.4938 89.3413 93.6575C90.7199 92.8213 92.0591 92.0593 93.2999 91.3717C95.7618 89.9966 97.9085 88.9559 99.3856 88.2497C100.882 87.5435 101.749 87.1905 101.749 87.1905V87.1719Z" fill="#227744"/>
<path d="M54.2061 209.693C54.2061 209.693 55.0726 208.113 56.4316 205.79C57.1012 204.62 57.889 203.263 58.7359 201.813C59.1494 201.089 59.5827 200.345 60.0357 199.565C60.4887 198.803 60.922 198.022 61.3553 197.242C62.2415 195.7 63.0884 194.12 63.8762 192.652C64.2504 191.908 64.6246 191.184 64.9791 190.515C65.3139 189.827 65.629 189.177 65.9048 188.582C66.2002 187.987 66.4168 187.411 66.6532 186.928C66.8895 186.426 67.047 185.999 67.1849 185.627C67.4803 184.903 67.6379 184.475 67.6379 184.475C67.6379 184.475 67.5788 184.921 67.4213 185.683C67.3622 186.073 67.2637 186.538 67.1061 187.058C66.9486 187.579 66.8107 188.192 66.5941 188.824C66.3774 189.455 66.1411 190.162 65.8457 190.868C65.5502 191.574 65.2548 192.336 64.8806 193.098C64.5064 193.86 64.1716 194.659 63.7383 195.439C63.3247 196.22 62.9111 197.019 62.4582 197.818C62.0052 198.599 61.5522 199.379 61.0992 200.141C60.6462 200.903 60.1539 201.628 59.7009 202.352C59.2479 203.077 58.7752 203.728 58.3223 204.378C57.8693 205.01 57.436 205.605 57.0421 206.162C55.4271 208.355 54.2061 209.711 54.2061 209.711V209.693Z" fill="#227744"/>
<path d="M26.7131 128.205C26.7131 128.205 26.8903 128.892 27.1857 130.082C27.4812 131.271 27.9538 132.944 28.5447 134.969C29.1355 136.976 29.8839 139.318 30.7505 141.771C31.1838 143.016 31.6761 144.261 32.1685 145.543C32.6806 146.825 33.2123 148.108 33.8032 149.371C34.3743 150.635 34.9849 151.899 35.6348 153.125C36.2847 154.333 36.9346 155.523 37.6437 156.638C38.333 157.753 39.042 158.812 39.7707 159.778C40.4994 160.744 41.2281 161.636 41.9174 162.417C42.6461 163.198 43.2961 163.904 43.9657 164.48C44.5959 165.093 45.2064 165.539 45.6988 165.948C46.1912 166.338 46.6245 166.598 46.8805 166.803C47.1562 167.007 47.3138 167.1 47.3138 167.1C47.3138 167.1 47.1562 167.007 46.8411 166.858C46.5457 166.691 46.073 166.487 45.5413 166.134C45.0095 165.781 44.3399 165.372 43.6506 164.814C42.9219 164.294 42.1735 163.625 41.3857 162.882C41.0115 162.491 40.5979 162.101 40.204 161.674C39.8101 161.228 39.4162 160.782 39.0223 160.298C38.2345 159.332 37.4467 158.291 36.6983 157.176C35.9696 156.061 35.2212 154.872 34.5516 153.646C33.8623 152.419 33.2517 151.137 32.6412 149.855C32.0503 148.554 31.5186 147.253 31.0262 145.952C30.5338 144.651 30.1006 143.35 29.687 142.087C29.2734 140.823 28.9386 139.597 28.6234 138.426C28.3083 137.255 28.0523 136.14 27.8357 135.118C27.3827 133.055 27.1266 131.327 26.9297 130.119C26.7524 128.911 26.6934 128.205 26.6934 128.205H26.7131Z" fill="#227744"/>
<path d="M40.634 228.536C40.634 228.536 42.052 229.818 44.3563 231.509C44.9274 231.937 45.5773 232.364 46.2273 232.829C46.9166 233.275 47.6256 233.74 48.3937 234.223C49.1618 234.687 49.9496 235.152 50.7768 235.598C51.1904 235.821 51.6039 236.044 52.0175 236.285C52.4508 236.49 52.8644 236.694 53.2977 236.917C54.1446 237.363 55.0308 237.716 55.8777 238.107C56.7246 238.497 57.6109 238.794 58.438 239.129C58.6547 239.203 58.8516 239.296 59.0683 239.37C59.2849 239.445 59.4819 239.5 59.6985 239.575C60.1121 239.705 60.506 239.835 60.8999 239.965C61.6877 240.244 62.4361 240.43 63.1254 240.634C63.8344 240.801 64.4646 241.024 65.0358 241.154C65.6069 241.284 66.119 241.396 66.5326 241.489C67.3598 241.693 67.8324 241.805 67.8324 241.805C67.8324 241.805 67.3401 241.786 66.4932 241.73C66.0599 241.693 65.5478 241.656 64.9373 241.619C64.3465 241.582 63.6768 241.433 62.9481 241.322C62.5739 241.266 62.1997 241.191 61.8058 241.136C61.4119 241.08 61.0181 240.95 60.6045 240.857C59.797 240.634 58.9107 240.467 58.0441 240.151C57.6109 240.002 57.1579 239.853 56.7049 239.705C56.4882 239.63 56.2519 239.556 56.0353 239.482C55.8186 239.389 55.602 239.296 55.3656 239.203C54.4794 238.831 53.5537 238.478 52.6872 238.014C52.2539 237.791 51.8206 237.568 51.3873 237.345C50.9737 237.103 50.5404 236.862 50.1268 236.62C49.28 236.155 48.5119 235.616 47.7438 235.115C46.9954 234.613 46.3061 234.074 45.6364 233.572C44.9865 233.052 44.3957 232.55 43.8639 232.067C43.3321 231.584 42.8595 231.119 42.4459 230.71C42.0323 230.302 41.6975 229.911 41.4217 229.595C40.8703 228.964 40.6143 228.573 40.6143 228.573L40.634 228.536Z" fill="#227744"/>
<g style="mix-blend-mode:overlay" opacity="0.4">
<path d="M120.178 77.5077C120.315 75.8723 120.217 74.9246 120.217 74.9246C61.1129 79.6262 57.3906 125.472 57.3906 125.472C57.686 125.397 57.9815 125.323 58.2769 125.249C60.1873 115.325 70.2907 81.7075 120.158 77.4891L120.178 77.5077Z" fill="white"/>
</g>
<g style="mix-blend-mode:overlay" opacity="0.4">
<path d="M77.1077 167.025C76.9698 165.873 76.8516 165.204 76.8516 165.204C51.9771 181.26 54.2026 209.693 54.2026 209.693C54.3799 209.637 54.5768 209.563 54.7541 209.507C54.7541 203.077 56.31 180.703 77.1077 167.044V167.025Z" fill="white"/>
</g>
<g style="mix-blend-mode:overlay" opacity="0.4">
<path d="M16.6057 110.773C16.1527 110.55 15.6997 110.345 15.2468 110.141C15.2468 110.141 1.1059 155.54 47.2902 167.118C47.2902 167.118 47.3886 166.783 47.5462 166.17C7.46732 155.206 14.7938 117.965 16.6057 110.791V110.773Z" fill="white"/>
</g>
<g style="mix-blend-mode:overlay" opacity="0.4">
<path d="M15.7416 210.269C14.7963 210.027 13.8313 209.786 12.8662 209.544C12.8662 209.544 21.1577 238.2 47.3518 242.846C24.2301 236.936 16.2734 211.997 15.7416 210.269Z" fill="white"/>
</g>
<g style="mix-blend-mode:multiply" opacity="0.4">
<path d="M104.481 104.417C89.5128 109.045 74.3675 108.078 63.9096 106.313C58.0996 116.627 57.3906 125.473 57.3906 125.473C80.5714 120.065 95.2243 112.278 104.481 104.417Z" fill="#339159"/>
</g>
<g style="mix-blend-mode:multiply" opacity="0.4">
<path d="M54.2067 209.693C66.8704 205.511 72.8182 196.573 75.477 187.82C67.6582 196.666 58.7562 203.616 54.1673 206.942C54.1279 208.689 54.2067 209.693 54.2067 209.693Z" fill="#339159"/>
</g>
<g style="mix-blend-mode:multiply" opacity="0.4">
<path d="M29.5059 159.313C33.8978 162.416 39.4123 165.018 46.3055 166.839C46.7191 166.56 47.1327 166.3 47.5857 166.003C48.6295 161.598 51.6034 144.706 39.8062 128.836C39.3729 142.643 33.8978 153.087 29.5059 159.294V159.313Z" fill="#339159"/>
</g>
<g style="mix-blend-mode:multiply" opacity="0.4">
<path d="M67.8117 241.768C67.8117 241.768 65.7437 237.252 59.146 231.324C48.7274 235.635 37.1863 235.747 30.3916 235.301C38.8801 241.879 50.9923 246.023 67.8314 241.768H67.8117Z" fill="#339159"/>
</g>
<path d="M84.1776 266.298C84.1776 266.298 83.764 265.852 83.0353 264.978C82.3066 264.105 81.2233 262.823 79.9235 261.15C78.6236 259.459 77.0874 257.396 75.3937 254.98C74.5271 253.773 73.6605 252.472 72.7349 251.097C71.8486 249.703 70.8836 248.253 69.9382 246.692C68.0081 243.607 66.0781 240.188 64.1283 236.527C62.2179 232.848 60.2484 228.926 58.4956 224.764C58.0623 223.723 57.5896 222.682 57.1563 221.623C56.7427 220.564 56.3094 219.486 55.8959 218.408C55.6792 217.869 55.4823 217.33 55.2656 216.773C55.0687 216.215 54.8717 215.676 54.6748 215.119C54.2809 214.004 53.9067 212.889 53.5128 211.774C53.1386 210.64 52.8038 209.507 52.469 208.373C52.1342 207.239 51.7403 206.106 51.4645 204.935C50.8737 202.612 50.2041 200.308 49.7314 197.948L48.983 194.435C48.786 193.246 48.5891 192.075 48.3922 190.905C47.9589 188.563 47.7028 186.184 47.4271 183.843C47.368 183.248 47.2892 182.672 47.2302 182.096C47.1908 181.501 47.1514 180.925 47.112 180.349C47.0332 179.178 46.9741 178.026 46.8953 176.874C46.7969 175.722 46.8363 174.57 46.8166 173.436C46.8166 172.303 46.8166 171.169 46.7969 170.035C46.7969 168.92 46.8953 167.805 46.9347 166.69C46.9938 165.594 47.0529 164.497 47.0923 163.42C47.2892 161.264 47.565 159.164 47.7816 157.12C47.8801 156.098 48.1164 155.094 48.274 154.109C48.4512 153.124 48.6285 152.158 48.786 151.192C48.8845 150.709 48.9436 150.244 49.0421 149.779C49.1602 149.315 49.2784 148.85 49.3769 148.404C49.5935 147.494 49.8299 146.602 50.0465 145.728C50.2632 144.855 50.4798 144 50.6964 143.164C50.9525 142.346 51.2085 141.547 51.4645 140.766C51.9766 139.205 52.4493 137.719 52.9416 136.344C53.4931 134.987 54.0052 133.723 54.4778 132.534C54.7142 131.939 54.9505 131.382 55.1672 130.843C55.2656 130.583 55.3838 130.304 55.4823 130.062C55.6004 129.802 55.7186 129.561 55.8368 129.338C56.7427 127.442 57.4911 125.955 58.0032 124.952C58.4956 123.948 58.7713 123.409 58.7713 123.409C58.7713 123.409 58.5547 123.967 58.1214 125.008C57.7078 126.048 57.0972 127.572 56.2898 129.505C56.1913 129.746 56.0731 129.988 55.9943 130.248C55.9156 130.508 55.8171 130.768 55.7186 131.047C55.5414 131.586 55.3444 132.162 55.1475 132.757C54.7536 133.946 54.3203 135.229 53.8476 136.604C53.434 137.997 53.0795 139.484 52.6462 141.064C52.4296 141.844 52.2129 142.643 51.9963 143.461C51.819 144.297 51.6418 145.152 51.4645 146.007C51.2873 146.88 51.11 147.772 50.9328 148.664C50.8343 149.11 50.7555 149.575 50.657 150.04C50.5783 150.504 50.5192 150.969 50.4601 151.452C50.2238 153.347 49.8693 155.299 49.6723 157.306C49.5148 159.331 49.3178 161.394 49.1799 163.513C49.1602 165.631 49.0421 167.805 49.0421 170.017C49.0815 171.113 49.1012 172.228 49.1406 173.362C49.1799 174.477 49.1602 175.61 49.2784 176.744C49.3769 177.878 49.4557 179.011 49.5541 180.163C49.5935 180.739 49.6329 181.316 49.692 181.892C49.7708 182.468 49.8299 183.044 49.9086 183.62C50.2041 185.924 50.4601 188.247 50.8934 190.552C51.0903 191.704 51.307 192.874 51.5039 194.027L52.272 197.483C52.725 199.806 53.3749 202.073 53.9461 204.359C54.2218 205.511 54.596 206.626 54.9111 207.76C55.2459 208.875 55.5807 210.008 55.9353 211.123C57.4321 215.546 58.9092 219.895 60.6423 224.02C62.3164 228.146 64.1283 232.086 65.9008 235.784C66.8265 237.623 67.693 239.408 68.6187 241.117C69.0717 241.972 69.5049 242.808 69.9579 243.645C70.4109 244.462 70.8639 245.261 71.2972 246.06C73.05 249.201 74.7438 252.044 76.28 254.534C77.8162 257.025 79.2342 259.162 80.4159 260.909C81.6172 262.655 82.5626 264.012 83.2322 264.923C83.9018 265.852 84.276 266.316 84.276 266.316L84.1776 266.298Z" fill="#339159"/>
<path d="M112.72 208.095C112.72 210.994 110.218 213.354 107.146 213.354C104.074 213.354 101.572 210.994 101.572 208.095C101.572 205.196 104.074 202.836 107.146 202.836C110.218 202.836 112.72 205.196 112.72 208.095Z" fill="white"/>
<path d="M325.104 376.275C325.104 379.175 322.603 381.535 319.531 381.535C316.458 381.535 313.957 379.175 313.957 376.275C313.957 373.376 316.458 371.016 319.531 371.016C322.603 371.016 325.104 373.376 325.104 376.275Z" fill="white"/>
<path d="M453.12 341.58C453.12 344.479 450.619 346.839 447.546 346.839C444.474 346.839 441.973 344.479 441.973 341.58C441.973 338.681 444.474 336.321 447.546 336.321C450.619 336.321 453.12 338.681 453.12 341.58Z" fill="white"/>
<path d="M406.506 452.468C406.506 455.367 404.004 457.727 400.932 457.727C397.86 457.727 395.358 455.367 395.358 452.468C395.358 449.569 397.86 447.208 400.932 447.208C404.004 447.208 406.506 449.569 406.506 452.468Z" fill="white"/>
<path d="M47.406 65.2989C47.406 68.1979 44.9048 70.558 41.8324 70.558C38.76 70.558 36.2588 68.1979 36.2588 65.2989C36.2588 62.3999 38.76 60.0398 41.8324 60.0398C44.9048 60.0398 47.406 62.3999 47.406 65.2989Z" fill="white"/>
<path d="M6.36437 177.117C7.99594 177.117 9.31859 175.869 9.31859 174.329C9.31859 172.79 7.99594 171.542 6.36437 171.542C4.7328 171.542 3.41016 172.79 3.41016 174.329C3.41016 175.869 4.7328 177.117 6.36437 177.117Z" fill="#2CB7A6"/>
<path d="M58.8907 349.942C60.5223 349.942 61.845 348.694 61.845 347.154C61.845 345.615 60.5223 344.367 58.8907 344.367C57.2592 344.367 55.9365 345.615 55.9365 347.154C55.9365 348.694 57.2592 349.942 58.8907 349.942Z" fill="#2CB7A6"/>
<path d="M272.242 465.16C273.874 465.16 275.197 463.912 275.197 462.373C275.197 460.833 273.874 459.585 272.242 459.585C270.611 459.585 269.288 460.833 269.288 462.373C269.288 463.912 270.611 465.16 272.242 465.16Z" fill="#2CB7A6"/>
<path d="M246.642 301.625C248.273 301.625 249.596 300.377 249.596 298.837C249.596 297.298 248.273 296.05 246.642 296.05C245.01 296.05 243.688 297.298 243.688 298.837C243.688 300.377 245.01 301.625 246.642 301.625Z" fill="#2CB7A6"/>
<path d="M507.934 419.945C509.565 419.945 510.888 418.697 510.888 417.158C510.888 415.618 509.565 414.37 507.934 414.37C506.302 414.37 504.979 415.618 504.979 417.158C504.979 418.697 506.302 419.945 507.934 419.945Z" fill="#2CB7A6"/>
<path d="M372.69 250.837C374.321 250.837 375.644 249.589 375.644 248.049C375.644 246.51 374.321 245.262 372.69 245.262C371.058 245.262 369.735 246.51 369.735 248.049C369.735 249.589 371.058 250.837 372.69 250.837Z" fill="#2CB7A6"/>
<path d="M212.513 179.588C214.144 179.588 215.467 178.34 215.467 176.8C215.467 175.261 214.144 174.013 212.513 174.013C210.881 174.013 209.559 175.261 209.559 176.8C209.559 178.34 210.881 179.588 212.513 179.588Z" fill="#2CB7A6"/>
<path d="M375.979 68.7188C377.61 68.7188 378.933 67.4708 378.933 65.9313C378.933 64.3918 377.61 63.1438 375.979 63.1438C374.347 63.1438 373.024 64.3918 373.024 65.9313C373.024 67.4708 374.347 68.7188 375.979 68.7188Z" fill="#2CB7A6"/>
<path d="M481.01 193.841C482.641 193.841 483.964 192.593 483.964 191.054C483.964 189.514 482.641 188.266 481.01 188.266C479.378 188.266 478.056 189.514 478.056 191.054C478.056 192.593 479.378 193.841 481.01 193.841Z" fill="#2CB7A6"/>
<path d="M509.251 295.438C510.883 295.438 512.205 294.19 512.205 292.65C512.205 291.111 510.883 289.863 509.251 289.863C507.62 289.863 506.297 291.111 506.297 292.65C506.297 294.19 507.62 295.438 509.251 295.438Z" fill="#227744"/>
<path d="M306.397 197.874C308.028 197.874 309.351 196.626 309.351 195.087C309.351 193.547 308.028 192.299 306.397 192.299C304.765 192.299 303.442 193.547 303.442 195.087C303.442 196.626 304.765 197.874 306.397 197.874Z" fill="#227744"/>
<path d="M291.626 143.982C293.258 143.982 294.58 142.734 294.58 141.194C294.58 139.655 293.258 138.407 291.626 138.407C289.995 138.407 288.672 139.655 288.672 141.194C288.672 142.734 289.995 143.982 291.626 143.982Z" fill="#227744"/>
<path d="M141.943 50.7489C143.575 50.7489 144.898 49.5009 144.898 47.9613C144.898 46.4218 143.575 45.1738 141.943 45.1738C140.312 45.1738 138.989 46.4218 138.989 47.9613C138.989 49.5009 140.312 50.7489 141.943 50.7489Z" fill="#227744"/>
<path d="M248.942 6.14877C250.574 6.14877 251.897 4.90076 251.897 3.36125C251.897 1.82175 250.574 0.57373 248.942 0.57373C247.311 0.57373 245.988 1.82175 245.988 3.36125C245.988 4.90076 247.311 6.14877 248.942 6.14877Z" fill="#227744"/>
<path d="M11.9549 430.168C11.9549 433.067 9.45362 435.427 6.38124 435.427C3.30885 435.427 0.807617 433.067 0.807617 430.168C0.807617 427.269 3.30885 424.909 6.38124 424.909C9.45362 424.909 11.9549 427.269 11.9549 430.168Z" fill="white"/>
<path opacity="0.65" d="M13.7086 509.866V508.207H16.6744C17.546 508.207 18.2901 508.032 18.9066 507.681C19.5232 507.33 19.9909 506.841 20.3098 506.214C20.6393 505.587 20.8041 504.87 20.8041 504.062C20.8041 503.265 20.6393 502.563 20.3098 501.957C19.9909 501.351 19.5232 500.883 18.9066 500.554C18.3007 500.214 17.5566 500.044 16.6744 500.044H13.7405V498.385H16.6744C17.9287 498.385 19.0236 498.619 19.959 499.087C20.8944 499.555 21.6173 500.219 22.1275 501.08C22.6484 501.93 22.9088 502.935 22.9088 504.094C22.9088 505.252 22.6484 506.267 22.1275 507.139C21.6067 508 20.8785 508.67 19.9431 509.148C19.0183 509.627 17.934 509.866 16.6903 509.866H13.7086ZM12.4489 509.866V498.385H14.5218V509.866H12.4489ZM28.1699 510.025C27.3089 510.025 26.5542 509.844 25.9057 509.483C25.2679 509.122 24.7683 508.622 24.4069 507.984C24.0561 507.346 23.8807 506.613 23.8807 505.784C23.8807 504.955 24.0561 504.227 24.4069 503.599C24.7683 502.962 25.2679 502.467 25.9057 502.116C26.5435 501.755 27.2876 501.574 28.138 501.574C28.9459 501.574 29.6475 501.744 30.2428 502.085C30.838 502.414 31.3004 502.882 31.63 503.488C31.9595 504.094 32.1243 504.801 32.1243 505.608C32.1243 505.757 32.1189 505.895 32.1083 506.023C32.0977 506.151 32.0817 506.278 32.0605 506.406H25.1244V505.003H30.5138L30.0993 505.385C30.0993 504.62 29.9239 504.046 29.5731 503.663C29.2223 503.28 28.7333 503.089 28.1061 503.089C27.4258 503.089 26.8837 503.323 26.4797 503.791C26.0864 504.258 25.8898 504.933 25.8898 505.816C25.8898 506.687 26.0864 507.357 26.4797 507.825C26.8837 508.282 27.4524 508.51 28.1859 508.51C28.6111 508.51 28.9831 508.431 29.302 508.271C29.6209 508.112 29.8548 507.867 30.0036 507.538H31.901C31.6353 508.303 31.1835 508.909 30.5457 509.355C29.9185 509.802 29.1266 510.025 28.1699 510.025ZM36.7837 510.025C35.6569 510.025 34.7587 509.791 34.089 509.324C33.4193 508.845 33.0526 508.186 32.9888 507.346H34.8224C34.8756 507.761 35.0723 508.075 35.4124 508.287C35.7526 508.5 36.2097 508.606 36.7837 508.606C37.3045 508.606 37.6925 508.526 37.9477 508.367C38.2134 508.197 38.3463 507.958 38.3463 507.649C38.3463 507.426 38.2719 507.245 38.1231 507.107C37.9742 506.958 37.6925 506.836 37.278 506.741L35.9705 506.438C35.0776 506.246 34.4132 505.949 33.9774 505.545C33.5522 505.13 33.3396 504.615 33.3396 503.998C33.3396 503.243 33.6266 502.653 34.2006 502.228C34.7852 501.792 35.5878 501.574 36.6083 501.574C37.6181 501.574 38.426 501.792 39.0319 502.228C39.6485 502.653 39.9886 503.243 40.0524 503.998H38.2187C38.1656 503.668 37.9955 503.419 37.7085 503.249C37.4321 503.078 37.0494 502.993 36.5604 502.993C36.1034 502.993 35.7579 503.068 35.524 503.217C35.2902 503.355 35.1732 503.562 35.1732 503.839C35.1732 504.051 35.2636 504.232 35.4443 504.381C35.625 504.519 35.928 504.641 36.3532 504.747L37.7563 505.066C38.5536 505.247 39.1542 505.561 39.5581 506.007C39.9727 506.454 40.18 506.98 40.18 507.586C40.18 508.362 39.8823 508.962 39.287 509.387C38.6918 509.813 37.8573 510.025 36.7837 510.025ZM41.6002 509.866V501.734H43.6092V509.866H41.6002ZM41.5045 500.394V498.178H43.689V500.394H41.5045ZM49.2515 513.294C48.1779 513.294 47.2956 513.06 46.6046 512.592C45.9243 512.125 45.5204 511.492 45.3928 510.695H47.3062C47.4019 510.971 47.6092 511.184 47.9281 511.333C48.2576 511.492 48.6828 511.572 49.2037 511.572C49.9584 511.572 50.5165 511.402 50.8779 511.062C51.2393 510.732 51.42 510.227 51.42 509.547V507.793L51.5635 507.825C51.436 508.42 51.1118 508.898 50.5909 509.26C50.07 509.611 49.4322 509.786 48.6775 509.786C47.9547 509.786 47.3222 509.616 46.78 509.276C46.2485 508.936 45.834 508.463 45.5363 507.857C45.2387 507.24 45.0899 506.523 45.0899 505.704C45.0899 504.875 45.244 504.152 45.5523 503.536C45.8605 502.919 46.2911 502.441 46.8438 502.101C47.4072 501.75 48.061 501.574 48.805 501.574C49.5704 501.574 50.1976 501.76 50.6866 502.132C51.1862 502.494 51.4944 502.999 51.6114 503.647L51.4838 503.663V501.734H53.445V509.531C53.445 510.69 53.0677 511.604 52.3129 512.273C51.5688 512.954 50.5484 513.294 49.2515 513.294ZM49.3312 508.192C49.9797 508.192 50.4952 507.974 50.8779 507.538C51.2712 507.091 51.4679 506.469 51.4679 505.672C51.4679 504.875 51.2712 504.258 50.8779 503.823C50.4846 503.387 49.9637 503.169 49.3153 503.169C48.6775 503.169 48.1619 503.392 47.7686 503.839C47.3753 504.274 47.1787 504.891 47.1787 505.688C47.1787 506.485 47.3753 507.102 47.7686 507.538C48.1619 507.974 48.6828 508.192 49.3312 508.192ZM55.5832 509.866V501.734H57.5444V503.647H57.5922V509.866H55.5832ZM61.2914 509.866V504.731C61.2914 504.232 61.1639 503.854 60.9088 503.599C60.6536 503.344 60.2816 503.217 59.7926 503.217C59.3674 503.217 58.9847 503.312 58.6446 503.504C58.3151 503.695 58.0546 503.961 57.8633 504.301C57.6826 504.641 57.5922 505.034 57.5922 505.481L57.3849 503.536C57.6613 502.94 58.0652 502.467 58.5967 502.116C59.1282 501.755 59.766 501.574 60.5101 501.574C61.3924 501.574 62.0781 501.824 62.567 502.324C63.0666 502.823 63.3165 503.488 63.3165 504.317V509.866H61.2914ZM68.9977 510.025C68.1367 510.025 67.382 509.844 66.7335 509.483C66.0957 509.122 65.5961 508.622 65.2347 507.984C64.8839 507.346 64.7085 506.613 64.7085 505.784C64.7085 504.955 64.8839 504.227 65.2347 503.599C65.5961 502.962 66.0957 502.467 66.7335 502.116C67.3713 501.755 68.1154 501.574 68.9658 501.574C69.7737 501.574 70.4753 501.744 71.0706 502.085C71.6658 502.414 72.1282 502.882 72.4578 503.488C72.7873 504.094 72.9521 504.801 72.9521 505.608C72.9521 505.757 72.9467 505.895 72.9361 506.023C72.9255 506.151 72.9095 506.278 72.8883 506.406H65.9522V505.003H71.3416L70.9271 505.385C70.9271 504.62 70.7517 504.046 70.4009 503.663C70.0501 503.28 69.5611 503.089 68.9339 503.089C68.2536 503.089 67.7115 503.323 67.3075 503.791C66.9142 504.258 66.7176 504.933 66.7176 505.816C66.7176 506.687 66.9142 507.357 67.3075 507.825C67.7115 508.282 68.2802 508.51 69.0137 508.51C69.4389 508.51 69.8109 508.431 70.1298 508.271C70.4487 508.112 70.6826 507.867 70.8314 507.538H72.7288C72.4631 508.303 72.0113 508.909 71.3735 509.355C70.7463 509.802 69.9544 510.025 68.9977 510.025ZM80.3373 509.866V508.032L80.4968 508.064C80.3586 508.659 80.0237 509.138 79.4922 509.499C78.9607 509.85 78.3283 510.025 77.5948 510.025C76.8507 510.025 76.2023 509.855 75.6495 509.515C75.1074 509.164 74.6875 508.675 74.3898 508.048C74.0922 507.421 73.9434 506.682 73.9434 505.832C73.9434 504.971 74.0975 504.221 74.4058 503.583C74.7141 502.946 75.1446 502.451 75.6973 502.101C76.2607 501.75 76.9145 501.574 77.6586 501.574C78.4239 501.574 79.0564 501.76 79.556 502.132C80.0556 502.494 80.3639 502.999 80.4808 503.647L80.2735 503.663V498.385H82.2985V509.866H80.3373ZM78.1847 508.383C78.8332 508.383 79.3487 508.16 79.7314 507.713C80.1247 507.256 80.3214 506.618 80.3214 505.8C80.3214 504.981 80.1247 504.349 79.7314 503.902C79.3381 503.456 78.8172 503.233 78.1688 503.233C77.531 503.233 77.0155 503.461 76.6221 503.918C76.2288 504.365 76.0322 504.997 76.0322 505.816C76.0322 506.634 76.2288 507.267 76.6221 507.713C77.0155 508.16 77.5363 508.383 78.1847 508.383ZM92.1597 510.025C91.3838 510.025 90.746 509.844 90.2464 509.483C89.7574 509.111 89.4544 508.601 89.3375 507.952L89.481 507.936V509.866H87.5198V498.385H89.5288V503.567L89.3853 503.536C89.5235 502.93 89.8477 502.451 90.358 502.101C90.8788 501.75 91.5219 501.574 92.2873 501.574C93.0101 501.574 93.6373 501.75 94.1688 502.101C94.7109 502.441 95.1308 502.924 95.4285 503.552C95.7261 504.179 95.8749 504.917 95.8749 505.768C95.8749 506.629 95.7208 507.378 95.4125 508.016C95.1042 508.654 94.6737 509.148 94.121 509.499C93.5682 509.85 92.9145 510.025 92.1597 510.025ZM91.6495 508.367C92.2979 508.367 92.8135 508.144 93.1962 507.697C93.5788 507.24 93.7702 506.602 93.7702 505.784C93.7702 504.965 93.5735 504.333 93.1802 503.886C92.7975 503.44 92.282 503.217 91.6336 503.217C90.9958 503.217 90.4802 503.445 90.0869 503.902C89.6936 504.349 89.4969 504.981 89.4969 505.8C89.4969 506.618 89.6936 507.251 90.0869 507.697C90.4802 508.144 91.0011 508.367 91.6495 508.367ZM97.7153 513.134L99.8201 508.415L100.187 507.809L102.483 501.734H104.619L99.7563 513.134H97.7153ZM99.5171 509.786L96.2165 501.734H98.401L101.159 509.037L99.5171 509.786ZM108.757 509.866V498.385H110.83V509.866H108.757ZM109.746 505.258V503.615H116.203V505.258H109.746ZM109.746 500.028V498.385H116.586V500.028H109.746ZM118.304 509.866V501.734H120.265V503.695H120.313V509.866H118.304ZM120.313 505.624L120.106 503.695C120.297 503.004 120.621 502.478 121.079 502.116C121.536 501.755 122.083 501.574 122.721 501.574C122.944 501.574 123.104 501.596 123.199 501.638V503.536C123.146 503.514 123.072 503.504 122.976 503.504C122.88 503.493 122.763 503.488 122.625 503.488C121.849 503.488 121.27 503.658 120.887 503.998C120.505 504.338 120.313 504.88 120.313 505.624ZM127.997 510.025C127.136 510.025 126.381 509.844 125.733 509.483C125.095 509.122 124.596 508.622 124.234 507.984C123.883 507.346 123.708 506.613 123.708 505.784C123.708 504.955 123.883 504.227 124.234 503.599C124.596 502.962 125.095 502.467 125.733 502.116C126.371 501.755 127.115 501.574 127.965 501.574C128.773 501.574 129.475 501.744 130.07 502.085C130.665 502.414 131.128 502.882 131.457 503.488C131.787 504.094 131.952 504.801 131.952 505.608C131.952 505.757 131.946 505.895 131.936 506.023C131.925 506.151 131.909 506.278 131.888 506.406H124.952V505.003H130.341L129.926 505.385C129.926 504.62 129.751 504.046 129.4 503.663C129.05 503.28 128.561 503.089 127.933 503.089C127.253 503.089 126.711 503.323 126.307 503.791C125.914 504.258 125.717 504.933 125.717 505.816C125.717 506.687 125.914 507.357 126.307 507.825C126.711 508.282 127.28 508.51 128.013 508.51C128.438 508.51 128.81 508.431 129.129 508.271C129.448 508.112 129.682 507.867 129.831 507.538H131.728C131.463 508.303 131.011 508.909 130.373 509.355C129.746 509.802 128.954 510.025 127.997 510.025ZM137.215 510.025C136.354 510.025 135.6 509.844 134.951 509.483C134.313 509.122 133.814 508.622 133.452 507.984C133.102 507.346 132.926 506.613 132.926 505.784C132.926 504.955 133.102 504.227 133.452 503.599C133.814 502.962 134.313 502.467 134.951 502.116C135.589 501.755 136.333 501.574 137.183 501.574C137.991 501.574 138.693 501.744 139.288 502.085C139.883 502.414 140.346 502.882 140.675 503.488C141.005 504.094 141.17 504.801 141.17 505.608C141.17 505.757 141.164 505.895 141.154 506.023C141.143 506.151 141.127 506.278 141.106 506.406H134.17V505.003H139.559L139.145 505.385C139.145 504.62 138.969 504.046 138.618 503.663C138.268 503.28 137.779 503.089 137.152 503.089C136.471 503.089 135.929 503.323 135.525 503.791C135.132 504.258 134.935 504.933 134.935 505.816C134.935 506.687 135.132 507.357 135.525 507.825C135.929 508.282 136.498 508.51 137.231 508.51C137.656 508.51 138.029 508.431 138.347 508.271C138.666 508.112 138.9 507.867 139.049 507.538H140.946C140.681 508.303 140.229 508.909 139.591 509.355C138.964 509.802 138.172 510.025 137.215 510.025ZM147.313 510.025C146.537 510.025 145.905 509.844 145.416 509.483C144.937 509.111 144.64 508.601 144.523 507.952L144.682 507.936V513.134H142.673V501.734H144.634V503.567L144.475 503.536C144.624 502.93 144.964 502.451 145.495 502.101C146.027 501.75 146.675 501.574 147.441 501.574C148.163 501.574 148.791 501.75 149.322 502.101C149.864 502.441 150.284 502.924 150.582 503.552C150.879 504.179 151.028 504.917 151.028 505.768C151.028 506.629 150.874 507.378 150.566 508.016C150.258 508.654 149.827 509.148 149.274 509.499C148.722 509.85 148.068 510.025 147.313 510.025ZM146.803 508.367C147.451 508.367 147.967 508.144 148.35 507.697C148.732 507.24 148.924 506.602 148.924 505.784C148.924 504.965 148.727 504.333 148.334 503.886C147.951 503.44 147.435 503.217 146.787 503.217C146.149 503.217 145.634 503.445 145.24 503.902C144.847 504.349 144.65 504.981 144.65 505.8C144.65 506.618 144.847 507.251 145.24 507.697C145.634 508.144 146.154 508.367 146.803 508.367ZM152.53 509.866V501.734H154.539V509.866H152.53ZM152.434 500.394V498.178H154.618V500.394H152.434ZM156.672 509.866V498.274H158.681V509.866H156.672ZM161.918 509.866L158.218 505.64L161.806 501.734H164.23L160.084 506.007L160.196 505.258L164.389 509.866H161.918ZM30.7863 528.866L28.2988 520.734H30.4036L31.8705 526.841H31.727L33.5288 520.734H35.3625L37.1961 526.841H37.0367L38.8385 520.734H40.6721L42.5058 526.841H42.3464L44.1641 520.734H45.9977L47.8155 526.841H47.672L49.4737 520.734H51.3074L53.1251 526.841H52.9816L54.7834 520.734H56.6171L58.4508 526.841H58.2913L59.7423 520.734H61.7992L59.3118 528.866H57.4303L55.5966 522.823H55.7561L53.9224 528.866H52.1206L50.2869 522.823H50.4464L48.5968 528.866H46.795L44.9773 522.823H45.1208L43.2871 528.866H41.4853L39.6517 522.823H39.8111L37.9774 528.866H36.1757L34.342 522.823H34.5014L32.6678 528.866H30.7863ZM61.8265 528.866V526.57H64.1385V528.866H61.8265ZM65.9218 528.866V519.984C65.9218 519.091 66.1663 518.411 66.6553 517.943C67.1549 517.465 67.899 517.226 68.8876 517.226C69.1108 517.226 69.2969 517.237 69.4457 517.258C69.5945 517.279 69.738 517.311 69.8762 517.353V518.916C69.8018 518.884 69.7061 518.863 69.5892 518.852C69.4722 518.831 69.3394 518.82 69.1906 518.82C68.7654 518.82 68.4465 518.927 68.2339 519.139C68.0319 519.341 67.9309 519.639 67.9309 520.032V528.866H65.9218ZM64.4549 522.312V520.734H69.7008V522.312H64.4549ZM71.1855 528.866V520.734H73.1468V522.695H73.1946V528.866H71.1855ZM73.1946 524.624L72.9873 522.695C73.1787 522.004 73.5029 521.478 73.96 521.116C74.417 520.755 74.9645 520.574 75.6023 520.574C75.8255 520.574 75.985 520.596 76.0806 520.638V522.536C76.0275 522.514 75.9531 522.504 75.8574 522.504C75.7617 522.493 75.6448 522.488 75.5066 522.488C74.7306 522.488 74.1513 522.658 73.7686 522.998C73.3859 523.338 73.1946 523.88 73.1946 524.624ZM80.8786 529.025C80.0175 529.025 79.2628 528.844 78.6144 528.483C77.9766 528.122 77.477 527.622 77.1156 526.984C76.7648 526.346 76.5894 525.613 76.5894 524.784C76.5894 523.955 76.7648 523.227 77.1156 522.599C77.477 521.962 77.9766 521.467 78.6144 521.116C79.2522 520.755 79.9963 520.574 80.8467 520.574C81.6546 520.574 82.3561 520.744 82.9514 521.085C83.5467 521.414 84.0091 521.882 84.3386 522.488C84.6682 523.094 84.8329 523.801 84.8329 524.608C84.8329 524.757 84.8276 524.895 84.817 525.023C84.8063 525.151 84.7904 525.278 84.7691 525.406H77.8331V524.003H83.2225L82.8079 524.385C82.8079 523.62 82.6325 523.046 82.2817 522.663C81.9309 522.28 81.442 522.089 80.8148 522.089C80.1345 522.089 79.5923 522.323 79.1884 522.791C78.7951 523.258 78.5984 523.933 78.5984 524.816C78.5984 525.687 78.7951 526.357 79.1884 526.825C79.5923 527.282 80.1611 527.51 80.8945 527.51C81.3197 527.51 81.6918 527.431 82.0107 527.271C82.3296 527.112 82.5634 526.867 82.7122 526.538H84.6097C84.3439 527.303 83.8922 527.909 83.2544 528.355C82.6272 528.802 81.8353 529.025 80.8786 529.025ZM90.0968 529.025C89.2357 529.025 88.481 528.844 87.8326 528.483C87.1948 528.122 86.6952 527.622 86.3337 526.984C85.983 526.346 85.8076 525.613 85.8076 524.784C85.8076 523.955 85.983 523.227 86.3337 522.599C86.6952 521.962 87.1948 521.467 87.8326 521.116C88.4704 520.755 89.2145 520.574 90.0649 520.574C90.8727 520.574 91.5743 520.744 92.1696 521.085C92.7649 521.414 93.2273 521.882 93.5568 522.488C93.8863 523.094 94.0511 523.801 94.0511 524.608C94.0511 524.757 94.0458 524.895 94.0352 525.023C94.0245 525.151 94.0086 525.278 93.9873 525.406H87.0513V524.003H92.4407L92.0261 524.385C92.0261 523.62 91.8507 523.046 91.4999 522.663C91.1491 522.28 90.6601 522.089 90.033 522.089C89.3527 522.089 88.8105 522.323 88.4066 522.791C88.0133 523.258 87.8166 523.933 87.8166 524.816C87.8166 525.687 88.0133 526.357 88.4066 526.825C88.8105 527.282 89.3792 527.51 90.1127 527.51C90.5379 527.51 90.9099 527.431 91.2288 527.271C91.5477 527.112 91.7816 526.867 91.9304 526.538H93.8279C93.5621 527.303 93.1103 527.909 92.4725 528.355C91.8454 528.802 91.0534 529.025 90.0968 529.025ZM100.195 529.025C99.4185 529.025 98.786 528.844 98.2971 528.483C97.8187 528.111 97.5211 527.601 97.4041 526.952L97.5636 526.936V532.134H95.5545V520.734H97.5158V522.567L97.3563 522.536C97.5051 521.93 97.8453 521.451 98.3768 521.101C98.9083 520.75 99.5567 520.574 100.322 520.574C101.045 520.574 101.672 520.75 102.204 521.101C102.746 521.441 103.166 521.924 103.463 522.552C103.761 523.179 103.91 523.917 103.91 524.768C103.91 525.629 103.756 526.378 103.447 527.016C103.139 527.654 102.709 528.148 102.156 528.499C101.603 528.85 100.949 529.025 100.195 529.025ZM99.6843 527.367C100.333 527.367 100.848 527.144 101.231 526.697C101.614 526.24 101.805 525.602 101.805 524.784C101.805 523.965 101.608 523.333 101.215 522.886C100.832 522.44 100.317 522.217 99.6683 522.217C99.0305 522.217 98.515 522.445 98.1217 522.902C97.7284 523.349 97.5317 523.981 97.5317 524.8C97.5317 525.618 97.7284 526.251 98.1217 526.697C98.515 527.144 99.0358 527.367 99.6843 527.367ZM105.411 528.866V520.734H107.42V528.866H105.411ZM105.315 519.394V517.178H107.5V519.394H105.315ZM109.553 528.866V517.274H111.562V528.866H109.553ZM114.799 528.866L111.1 524.64L114.687 520.734H117.111L112.965 525.007L113.077 524.258L117.27 528.866H114.799ZM118.07 528.866V526.57H120.382V528.866H118.07ZM125.394 529.025C124.575 529.025 123.852 528.844 123.225 528.483C122.609 528.122 122.12 527.622 121.758 526.984C121.408 526.336 121.232 525.602 121.232 524.784C121.232 523.965 121.408 523.242 121.758 522.615C122.12 521.978 122.609 521.478 123.225 521.116C123.852 520.755 124.575 520.574 125.394 520.574C126.063 520.574 126.669 520.702 127.211 520.957C127.754 521.202 128.2 521.552 128.551 522.009C128.902 522.456 129.125 522.977 129.221 523.572H127.291C127.174 523.136 126.951 522.796 126.622 522.552C126.292 522.307 125.893 522.185 125.426 522.185C124.99 522.185 124.612 522.291 124.294 522.504C123.985 522.716 123.746 523.019 123.576 523.413C123.406 523.806 123.321 524.263 123.321 524.784C123.321 525.315 123.406 525.778 123.576 526.171C123.746 526.564 123.991 526.873 124.31 527.096C124.628 527.308 125 527.415 125.426 527.415C125.893 527.415 126.292 527.292 126.622 527.048C126.951 526.804 127.174 526.463 127.291 526.028H129.221C129.125 526.623 128.896 527.149 128.535 527.606C128.184 528.053 127.738 528.403 127.196 528.658C126.664 528.903 126.063 529.025 125.394 529.025ZM134.32 529.025C133.459 529.025 132.699 528.844 132.04 528.483C131.392 528.122 130.887 527.622 130.525 526.984C130.164 526.336 129.983 525.597 129.983 524.768C129.983 523.939 130.164 523.211 130.525 522.583C130.887 521.956 131.392 521.467 132.04 521.116C132.699 520.755 133.459 520.574 134.32 520.574C135.192 520.574 135.952 520.755 136.6 521.116C137.249 521.467 137.754 521.956 138.115 522.583C138.477 523.211 138.657 523.939 138.657 524.768C138.657 525.597 138.471 526.336 138.099 526.984C137.738 527.622 137.233 528.122 136.584 528.483C135.936 528.844 135.181 529.025 134.32 529.025ZM134.32 527.415C134.745 527.415 135.128 527.308 135.468 527.096C135.808 526.873 136.074 526.564 136.265 526.171C136.457 525.767 136.552 525.294 136.552 524.752C136.552 523.955 136.34 523.328 135.915 522.87C135.5 522.413 134.969 522.185 134.32 522.185C133.672 522.185 133.135 522.413 132.71 522.87C132.285 523.328 132.072 523.955 132.072 524.752C132.072 525.294 132.168 525.767 132.359 526.171C132.561 526.564 132.827 526.873 133.156 527.096C133.496 527.308 133.884 527.415 134.32 527.415ZM140.135 528.866V520.734H142.096V522.647H142.144V528.866H140.135ZM145.604 528.866V523.62C145.604 523.141 145.482 522.791 145.237 522.567C145.004 522.334 144.669 522.217 144.233 522.217C143.85 522.217 143.499 522.307 143.18 522.488C142.862 522.668 142.606 522.924 142.415 523.253C142.234 523.583 142.144 523.965 142.144 524.401L141.937 522.536C142.213 521.94 142.612 521.467 143.133 521.116C143.654 520.755 144.259 520.574 144.95 520.574C145.78 520.574 146.433 520.814 146.912 521.292C147.39 521.76 147.629 522.365 147.629 523.11V528.866H145.604ZM151.073 528.866V523.62C151.073 523.141 150.956 522.791 150.722 522.567C150.489 522.334 150.154 522.217 149.718 522.217C149.325 522.217 148.969 522.307 148.65 522.488C148.331 522.668 148.081 522.924 147.9 523.253C147.719 523.583 147.629 523.965 147.629 524.401L147.278 522.536C147.544 521.94 147.948 521.467 148.49 521.116C149.032 520.755 149.659 520.574 150.372 520.574C151.222 520.574 151.886 520.819 152.365 521.308C152.854 521.786 153.098 522.424 153.098 523.221V528.866H151.073Z" fill="#2CB7A6"/>
</svg>
