<svg width="303" height="318" viewBox="0 0 303 318" fill="none" xmlns="http://www.w3.org/2000/svg">
<path d="M123.573 42.0786C123.573 42.0786 129.983 34.6122 133.164 34.9311C136.625 35.283 135.845 38.4938 133.351 39.6924C133.351 39.6924 136.73 38.5268 136.952 41.0999C137.173 43.684 131.847 44.0689 123.573 42.0676V42.0786Z" fill="#69883A"/>
<path d="M113.308 49.5671C113.308 49.5671 123.644 45.6415 126.511 47.5438C129.623 49.6221 127.071 52.2941 124.006 52.1952C124.006 52.1952 127.898 52.778 126.651 55.3511C125.404 57.9242 120.102 55.626 113.319 49.5671H113.308Z" fill="#69883A"/>
<path d="M102.002 60.8819C102.002 60.8819 113.061 55.4498 116.464 57.2751C120.17 59.2654 117.63 62.5093 114.203 62.7072C114.203 62.7072 118.608 62.9491 117.513 65.9511C116.429 68.953 110.253 66.9297 101.99 60.8819H102.002Z" fill="#69883A"/>
<path d="M92.1562 74.6053C92.1562 74.6053 106.117 68.4585 110.22 70.8886C114.683 73.5277 111.362 77.4093 107.12 77.4863C107.12 77.4863 112.539 78.0141 111.024 81.6538C109.509 85.3046 102.004 82.4895 92.1562 74.6053Z" fill="#69883A"/>
<path d="M83.8936 92.7158C83.8936 92.7158 100.302 85.4914 105.115 88.3394C110.359 91.4513 106.455 95.9927 101.479 96.0916C101.479 96.0916 107.842 96.7074 106.071 100.996C104.288 105.284 95.4773 101.986 83.9052 92.7158H83.8936Z" fill="#69883A"/>
<path d="M113.808 49.336C113.808 49.336 116.628 39.1645 114.274 36.7234C111.699 34.0623 109.216 36.8004 109.706 39.6594C109.706 39.6594 108.61 36.0856 106.058 37.5811C103.506 39.0766 106.594 43.7389 113.82 49.336H113.808Z" fill="#69883A"/>
<path d="M101.78 60.8598C101.78 60.8598 106.103 49.8197 103.761 46.8727C101.197 43.6508 98.1206 46.4328 98.3304 49.6657C98.3304 49.6657 97.5263 45.5751 94.508 46.9717C91.4896 48.3682 94.3914 53.8882 101.792 60.8598H101.78Z" fill="#69883A"/>
<path d="M91.8985 74.6494C91.8985 74.6494 94.742 60.3544 91.2342 57.2205C87.4118 53.8007 84.2653 57.7923 85.2325 61.6849C85.2325 61.6849 83.3446 56.8576 79.9767 59.1558C76.6088 61.443 81.3519 67.6009 91.8985 74.6494Z" fill="#69883A"/>
<path d="M83.9391 92.8697C83.9391 92.8697 83.7876 75.7817 78.9979 72.9117C73.7654 69.7778 71.0967 75.0559 73.1478 79.3444C73.1478 79.3444 69.8264 74.1872 66.4818 77.541C63.1489 80.8949 70.0945 86.9867 83.9391 92.8697Z" fill="#69883A"/>
<path d="M80.3389 108.089C80.2457 108.001 80.1991 107.88 80.2107 107.748C82.8445 84.216 94.6847 67.4139 104.159 57.4734C114.414 46.6971 124.192 41.408 124.297 41.353C124.507 41.2431 124.775 41.309 124.891 41.507C125.008 41.7049 124.938 41.9578 124.728 42.0678C124.635 42.1227 114.962 47.3569 104.788 58.0452C95.4188 67.8977 83.6952 84.5349 81.0848 107.836C81.0615 108.067 80.84 108.232 80.607 108.21C80.5021 108.21 80.4088 108.155 80.3389 108.089Z" fill="#69883A"/>
<path d="M220.847 117.095C220.847 117.095 212.654 111.377 209.659 112.443C206.396 113.598 208.005 116.523 210.743 117.106C210.743 117.106 207.166 116.776 207.632 119.327C208.11 121.878 213.354 120.987 220.835 117.106L220.847 117.095Z" fill="#69883A"/>
<path d="M232.781 121.911C232.781 121.911 221.721 120.558 219.46 123.076C217.002 125.825 220.183 127.805 223.131 126.98C223.131 126.98 219.519 128.465 221.407 130.664C223.295 132.863 227.816 129.377 232.781 121.911Z" fill="#69883A"/>
<path d="M246.731 130.191C246.731 130.191 234.576 127.552 231.767 130.125C228.702 132.929 232.024 135.469 235.392 134.853C235.392 134.853 231.196 136.129 233.049 138.779C234.902 141.429 240.333 138.009 246.719 130.202L246.731 130.191Z" fill="#69883A"/>
<path d="M259.911 141.132C259.911 141.132 244.761 138.493 241.44 141.802C237.816 145.42 242.069 148.378 246.195 147.454C246.195 147.454 241.09 149.247 243.526 152.414C245.962 155.581 252.476 151.094 259.911 141.132Z" fill="#69883A"/>
<path d="M272.729 156.713C272.729 156.713 254.923 153.612 251.03 157.505C246.777 161.76 251.764 165.235 256.612 164.147C256.612 164.147 250.611 166.247 253.477 169.975C256.344 173.702 263.989 168.424 272.729 156.713Z" fill="#69883A"/>
<path d="M232.233 121.801C232.233 121.801 226.791 112.619 228.434 109.705C230.217 106.527 233.352 108.584 233.643 111.465C233.643 111.465 233.76 107.748 236.627 108.584C239.494 109.419 237.745 114.675 232.245 121.801H232.233Z" fill="#69883A"/>
<path d="M246.941 130.114C246.941 130.114 239.82 120.448 241.312 117.04C242.932 113.312 246.661 115.28 247.314 118.458C247.314 118.458 247.011 114.312 250.297 114.95C253.583 115.588 252.243 121.614 246.941 130.114Z" fill="#69883A"/>
<path d="M260.178 141.121C260.178 141.121 253.629 127.958 256.181 124.088C258.966 119.865 263.08 122.988 263.185 126.991C263.185 126.991 263.721 121.878 267.59 123.296C271.459 124.715 268.499 131.796 260.178 141.121Z" fill="#69883A"/>
<path d="M272.73 156.878C272.73 156.878 268.325 140.307 272.206 136.392C276.436 132.115 280.422 136.601 279.583 141.231C279.583 141.231 281.424 135.447 285.549 137.91C289.675 140.373 284.571 147.916 272.73 156.878Z" fill="#69883A"/>
<path d="M280.247 170.755C280.317 170.645 280.329 170.524 280.282 170.392C271.472 148.235 255.541 134.776 243.736 127.397C230.94 119.392 220.067 116.588 219.962 116.555C219.729 116.5 219.485 116.632 219.426 116.852C219.368 117.072 219.508 117.303 219.741 117.358C219.846 117.38 230.602 120.162 243.293 128.101C254.982 135.425 270.749 148.752 279.478 170.689C279.559 170.898 279.816 171.008 280.037 170.931C280.131 170.898 280.212 170.832 280.259 170.755H280.247Z" fill="#69883A"/>
<path d="M202.2 87.8006C201.885 87.4817 201.361 87.4047 200.964 87.6576C169.802 107.088 108.702 169.843 85.3245 200.511C65.6181 226.352 16.8706 275.065 1.73242 290.031H4.38947C20.8329 273.745 67.6458 226.814 86.8978 201.556C110.182 171.008 171.026 108.495 202.036 89.1641C202.479 88.8892 202.596 88.3284 202.304 87.9105C202.281 87.8666 202.246 87.8336 202.211 87.8006H202.2Z" fill="#2CB7A6"/>
<path d="M88.7988 268.225C88.927 268.357 88.9852 268.533 88.9619 268.72C88.9153 269.05 88.589 269.281 88.2394 269.226C88.0995 269.204 74.15 267.257 58.0912 267.664C43.3609 268.038 23.7827 270.512 14.2266 280.2C13.9819 280.442 13.5857 280.453 13.3177 280.233C13.0613 280.002 13.0496 279.628 13.2827 279.375C21.1956 271.337 36.2638 266.993 58.0679 266.455C74.2316 266.048 88.2743 268.016 88.4142 268.038C88.5657 268.06 88.6939 268.126 88.7871 268.225H88.7988Z" fill="#2CB7A6"/>
<path d="M80.1654 249.917C80.3285 250.082 80.3868 250.335 80.2819 250.555C80.1071 250.962 75.7486 260.671 63.8385 267.247C63.5355 267.412 63.151 267.324 62.9645 267.027C62.7897 266.741 62.8946 266.367 63.1976 266.202C74.7114 259.847 79.0583 250.181 79.1049 250.082C79.2447 249.774 79.6177 249.631 79.944 249.752C80.0372 249.785 80.1071 249.84 80.1654 249.906V249.917Z" fill="#2CB7A6"/>
<path d="M54.142 199.379C54.1886 199.456 54.2236 199.533 54.2352 199.621C59.2813 239.691 10.9184 282.862 10.4289 283.291C10.1725 283.521 9.76466 283.499 9.51993 283.258C9.2752 283.005 9.28686 282.631 9.55489 282.4C10.0443 281.971 57.9411 239.218 52.965 199.753C52.9184 199.423 53.1747 199.126 53.5244 199.082C53.7807 199.049 54.0138 199.17 54.142 199.368V199.379Z" fill="#2CB7A6"/>
<path d="M15.4275 201.886C15.5674 202.029 15.6373 202.249 15.579 202.447C13.7261 208.934 16.2549 215.928 20.8465 228.606C21.4874 230.377 22.1634 232.246 22.8742 234.236C28.6778 250.522 18.8304 275.076 18.4109 276.121C18.2827 276.429 17.9098 276.583 17.5834 276.473C17.2571 276.352 17.094 276 17.2105 275.692C17.3154 275.439 27.3143 250.5 21.6622 234.632C20.9514 232.642 20.2755 230.773 19.6345 229.002C14.9614 216.093 12.3859 208.989 14.3437 202.139C14.4369 201.82 14.7866 201.622 15.1245 201.71C15.2411 201.743 15.3459 201.798 15.4275 201.886Z" fill="#2CB7A6"/>
<path d="M150.868 191.638C150.972 191.748 151.031 191.89 151.031 192.055C151.031 192.385 150.728 192.649 150.378 192.638C149.865 192.627 98.8804 191.495 85.0941 202.997C84.861 203.194 84.523 203.194 84.2783 203.019C84.0336 202.843 83.9637 202.524 84.1035 202.26C84.2667 201.963 100.395 172.383 96.3282 153.338C96.2583 153.008 96.4797 152.689 96.8294 152.623C97.179 152.557 97.5169 152.766 97.5868 153.096C99.7661 163.289 96.2933 176.287 92.9836 185.381C90.583 191.989 87.9259 197.564 86.4342 200.533C102.924 190.373 148.397 191.374 150.413 191.429C150.6 191.429 150.763 191.506 150.879 191.638H150.868Z" fill="#2CB7A6"/>
<path d="M163.442 150.677C163.535 150.776 163.605 150.908 163.605 151.051C163.629 151.38 163.36 151.666 162.999 151.688C149.679 152.381 111.735 172.075 111.35 172.273C111.047 172.438 110.662 172.328 110.476 172.031C110.301 171.745 110.418 171.371 110.732 171.206C112.306 170.393 149.318 151.172 162.929 150.468C163.127 150.468 163.314 150.534 163.442 150.666V150.677Z" fill="#2CB7A6"/>
<path d="M145.984 89.2633C146.042 89.3293 146.089 89.3952 146.124 89.4832C149.399 98.9069 144.889 115.401 132.71 138.537C123.679 155.691 113.575 170.305 113.47 170.448C113.272 170.723 112.876 170.8 112.584 170.624C112.293 170.448 112.2 170.063 112.398 169.788C112.806 169.205 152.487 111.662 144.9 89.8571C144.795 89.5382 144.97 89.1973 145.308 89.0983C145.553 89.0214 145.821 89.0983 145.984 89.2633Z" fill="#2CB7A6"/>
<path d="M84.126 268.171C84.126 268.171 100.01 283.367 115.381 280.739C130.752 278.111 134.808 265.895 144.422 269.864C144.422 269.864 118.924 231.609 84.126 268.171Z" fill="#2CB7A6"/>
<g style="mix-blend-mode:multiply" opacity="0.4">
<path d="M115.382 280.739C125.695 278.979 130.916 272.899 136.137 270.293C129.914 265.333 112.736 255.426 88.5781 271.832C94.37 276.142 104.987 282.52 115.382 280.739Z" fill="#2CB7A6"/>
</g>
<path d="M195.733 92.6279C195.733 92.6279 217.2 99.3685 229.634 90.4507C242.069 81.5328 239.796 68.9092 250.284 68.3154C250.284 68.3154 209.158 45.1466 195.733 92.6279Z" fill="#2CB7A6"/>
<g style="mix-blend-mode:multiply" opacity="0.4">
<path d="M229.621 90.4509C237.965 84.469 239.69 76.8156 243.093 72.2522C235.168 70.4929 215.089 69.0194 201.454 93.9916C208.691 95.3551 221.219 96.4877 229.621 90.4509Z" fill="#2CB7A6"/>
</g>
<path d="M79.3144 250.654C79.3144 250.654 95.6763 248.487 100.722 238.635C105.768 228.782 99.9299 221.03 106.584 217.368C106.584 217.368 71.7046 214.652 79.3144 250.654Z" fill="#2CB7A6"/>
<g style="mix-blend-mode:multiply" opacity="0.4">
<path d="M100.721 238.646C104.113 232.037 102.598 226.363 103.25 222.25C97.4584 223.537 83.8236 228.804 83.5322 249.796C88.7298 248.454 97.3186 245.309 100.733 238.646H100.721Z" fill="#2CB7A6"/>
</g>
<path d="M13.9832 203.392C13.9832 203.392 3.5065 193.286 5.66244 183.577C7.81837 173.867 16.5703 171.349 13.9366 165.246C13.9366 165.246 40.577 181.532 13.9832 203.403V203.392Z" fill="#2CB7A6"/>
<g style="mix-blend-mode:multiply" opacity="0.4">
<path d="M5.66237 183.577C7.10743 177.057 11.5242 173.78 13.4704 170.481C16.8732 174.429 23.5741 185.337 11.4659 200.566C8.51753 196.883 4.20566 190.142 5.66237 183.577Z" fill="#2CB7A6"/>
</g>
<path d="M53.5102 200.379C53.5102 200.379 45.1428 185.622 51.0046 175.253C56.8664 164.884 67.6927 164.752 66.842 156.999C66.842 156.999 91.4197 183.819 53.5102 200.379Z" fill="#2CB7A6"/>
<g style="mix-blend-mode:multiply" opacity="0.4">
<path d="M51.007 175.264C54.9343 168.303 61.0991 165.961 64.4787 162.816C66.9609 168.369 70.7484 182.862 51.648 196.388C49.5852 191.285 47.0447 182.269 51.007 175.264Z" fill="#2CB7A6"/>
</g>
<path d="M96.8873 155.35C96.8873 155.35 87.7974 144.453 90.9905 135.194C94.1836 125.935 102.994 124.352 101.106 118.139C101.106 118.139 125.264 136.667 96.8873 155.339V155.35Z" fill="#2CB7A6"/>
<g style="mix-blend-mode:multiply" opacity="0.4">
<path d="M91.001 135.205C93.1453 128.992 97.8067 126.232 100.079 123.219C102.958 127.409 108.26 138.713 94.7535 152.348C92.2945 148.466 88.8334 141.462 90.9893 135.205H91.001Z" fill="#2CB7A6"/>
</g>
<path d="M145.47 93.0458C145.47 93.0458 133.164 78.7729 137.173 66.4242C141.194 54.0755 152.847 51.7883 150.202 43.5852C150.202 43.5852 182.692 67.6667 145.47 93.0458Z" fill="#2CB7A6"/>
<g style="mix-blend-mode:multiply" opacity="0.4">
<path d="M137.185 66.4353C139.877 58.1442 146.006 54.3945 148.955 50.3369C152.87 55.835 160.177 70.7238 142.58 89.1093C139.224 84.0071 134.469 74.7813 137.185 66.4353Z" fill="#2CB7A6"/>
</g>
<path d="M148.804 191.945C148.804 191.945 162.089 203.579 173.836 201.369C185.571 199.159 187.914 189.625 195.628 192.594C195.628 192.594 173.381 163.158 148.804 191.945Z" fill="#2CB7A6"/>
<g style="mix-blend-mode:multiply" opacity="0.4">
<path d="M173.836 201.369C181.714 199.885 185.362 195.101 189.242 193.023C184.103 189.241 170.153 181.73 152.498 194.75C157.264 198.037 165.911 202.865 173.848 201.38L173.836 201.369Z" fill="#2CB7A6"/>
</g>
<path d="M162.101 151.414C162.101 151.414 174.349 154.977 181.096 150.171C187.855 145.366 186.247 138.614 192.121 138.273C192.121 138.273 168.394 125.969 162.101 151.414Z" fill="#2CB7A6"/>
<g style="mix-blend-mode:multiply" opacity="0.4">
<path d="M181.107 150.171C185.641 146.949 186.41 142.848 188.205 140.396C183.706 139.472 172.379 138.735 165.363 152.128C169.465 152.843 176.539 153.415 181.107 150.171Z" fill="#2CB7A6"/>
</g>
<path d="M127.374 230.839C137.012 236.051 159.736 235.27 166.938 226.517C170.901 221.701 169.654 213.113 162.592 211.76C154.329 210.177 147.605 219.106 142.023 223.328C139.039 225.583 131.441 233.445 127.374 230.828" fill="#199D66"/>
<path d="M121.838 228.904C121.838 228.904 121.978 228.992 122.257 229.124C122.537 229.256 122.957 229.431 123.504 229.607C124.04 229.805 124.728 229.97 125.486 230.168C126.278 230.311 127.152 230.487 128.119 230.575C129.087 230.718 130.159 230.696 131.266 230.762C132.385 230.707 133.562 230.729 134.774 230.586C135.38 230.531 135.997 230.465 136.626 230.41C137.244 230.3 137.873 230.19 138.503 230.102C139.773 229.948 141.043 229.607 142.313 229.322C143.595 229.091 144.842 228.662 146.078 228.332C147.325 228.002 148.525 227.595 149.69 227.199C150.856 226.803 151.998 226.463 153.035 226.034C154.084 225.627 155.086 225.253 156.018 224.923C156.962 224.604 157.766 224.208 158.524 223.922C159.27 223.626 159.922 223.362 160.47 223.153C161.554 222.735 162.183 222.504 162.183 222.504C162.183 222.504 161.635 222.867 160.656 223.472C160.167 223.768 159.561 224.131 158.873 224.549C158.174 224.945 157.417 225.462 156.508 225.88C155.622 226.331 154.655 226.814 153.618 227.298C152.604 227.815 151.473 228.266 150.296 228.717C149.119 229.168 147.931 229.684 146.649 230.025C145.367 230.388 144.108 230.85 142.768 231.114C141.439 231.389 140.123 231.719 138.794 231.862C138.13 231.961 137.466 232.038 136.825 232.115C136.16 232.148 135.519 232.18 134.878 232.213C133.608 232.323 132.361 232.18 131.184 232.148C130.019 232.005 128.912 231.895 127.921 231.631C126.919 231.444 126.033 231.114 125.252 230.85C124.483 230.531 123.831 230.245 123.33 229.948C122.805 229.673 122.444 229.398 122.199 229.212C121.954 229.025 121.838 228.915 121.838 228.915V228.904Z" fill="#4BBA73"/>
<path d="M143 242.649C147.51 248.543 162.135 254.195 169.349 250.599C173.311 248.62 175.129 242.858 171.074 240.087C166.331 236.854 159.362 240.68 154.549 241.846C151.985 242.473 144.783 245.387 143.012 242.638" fill="#199D66"/>
<path d="M140.086 239.922C140.086 239.922 140.156 240.01 140.284 240.175C140.424 240.329 140.634 240.559 140.925 240.823C141.205 241.098 141.589 241.384 142.009 241.714C142.463 242.011 142.964 242.363 143.559 242.682C144.118 243.034 144.806 243.308 145.493 243.649C146.216 243.913 146.95 244.254 147.766 244.485C148.162 244.606 148.581 244.738 148.989 244.87C149.42 244.969 149.84 245.068 150.271 245.178C151.122 245.42 152.031 245.552 152.917 245.717C153.802 245.915 154.711 245.981 155.597 246.101C156.483 246.233 157.368 246.288 158.219 246.354C159.07 246.42 159.897 246.508 160.69 246.519C161.482 246.541 162.228 246.585 162.916 246.618C163.603 246.673 164.244 246.64 164.803 246.662C165.363 246.673 165.864 246.684 166.272 246.695C167.088 246.728 167.554 246.75 167.554 246.75C167.554 246.75 167.099 246.827 166.295 246.948C165.887 247.003 165.398 247.069 164.838 247.146C164.279 247.212 163.638 247.333 162.939 247.344C162.24 247.388 161.482 247.432 160.678 247.465C159.874 247.52 159.023 247.498 158.149 247.465C157.275 247.432 156.354 247.443 155.445 247.311C154.525 247.19 153.593 247.146 152.66 246.948C151.74 246.761 150.807 246.618 149.922 246.343C149.467 246.222 149.036 246.101 148.593 245.97C148.162 245.816 147.742 245.662 147.334 245.508C146.495 245.233 145.75 244.804 145.015 244.474C144.316 244.067 143.652 243.704 143.104 243.264C142.521 242.869 142.067 242.429 141.647 242.055C141.263 241.648 140.937 241.285 140.704 240.966C140.459 240.658 140.319 240.372 140.214 240.197C140.121 240.01 140.074 239.911 140.074 239.911L140.086 239.922Z" fill="#4BBA73"/>
<path d="M183.1 60.0679C188.787 51.0731 188.356 29.6086 179.208 22.6701C174.173 18.8434 165.06 19.8771 163.498 26.5187C161.68 34.282 171.015 40.7807 175.397 46.1248C177.728 48.9728 185.932 56.2743 183.088 60.0679" fill="#199D66"/>
<path d="M180.944 65.2587C180.944 65.2587 181.038 65.1267 181.178 64.8628C181.317 64.5989 181.515 64.2141 181.714 63.6972C181.935 63.1914 182.121 62.5536 182.343 61.8389C182.506 61.1021 182.716 60.2774 182.821 59.3538C182.995 58.4521 182.984 57.4404 183.065 56.3958C183.019 55.3402 183.065 54.2296 182.937 53.075C182.891 52.5032 182.832 51.9204 182.774 51.3266C182.669 50.7438 182.564 50.15 182.483 49.5452C182.343 48.3466 182.005 47.137 181.725 45.9385C181.504 44.7179 181.073 43.5413 180.735 42.3647C180.408 41.1881 179.989 40.0445 179.593 38.9449C179.196 37.8453 178.858 36.7567 178.416 35.767C177.996 34.7664 177.635 33.8097 177.285 32.93C176.959 32.0393 176.563 31.2586 176.271 30.5439C175.968 29.8291 175.7 29.2133 175.49 28.6965C175.071 27.6629 174.838 27.0691 174.838 27.0691C174.838 27.0691 175.211 27.5969 175.84 28.5316C176.143 29.0044 176.528 29.5762 176.947 30.236C177.355 30.9067 177.891 31.6215 178.311 32.4902C178.765 33.3369 179.266 34.2606 179.767 35.2392C180.303 36.2069 180.758 37.2845 181.212 38.3951C181.667 39.5057 182.203 40.6383 182.541 41.8589C182.902 43.0685 183.368 44.2671 183.625 45.5316C183.893 46.7852 184.219 48.0387 184.347 49.3033C184.441 49.9301 184.51 50.5568 184.58 51.1726C184.604 51.7994 184.627 52.4042 184.65 53.009C184.744 54.2186 184.569 55.3842 184.522 56.4948C184.347 57.5944 184.219 58.639 183.916 59.5737C183.695 60.5194 183.333 61.3441 183.042 62.0808C182.692 62.7956 182.378 63.4113 182.052 63.8842C181.76 64.368 181.446 64.7089 181.247 64.9398C181.049 65.1707 180.921 65.2807 180.921 65.2807L180.944 65.2587Z" fill="#4BBA73"/>
<path d="M195.871 45.5315C202.199 41.375 208.434 27.6848 204.752 20.8122C202.724 17.0405 196.641 15.2262 193.646 18.9979C190.138 23.4183 194.077 30.049 195.23 34.6234C195.848 37.0535 198.82 43.8931 195.871 45.5315Z" fill="#199D66"/>
<path d="M192.936 48.2252C192.936 48.2252 193.04 48.1702 193.204 48.0382C193.367 47.9063 193.611 47.7194 193.903 47.4444C194.194 47.1915 194.509 46.8287 194.87 46.4328C195.196 46.004 195.581 45.5421 195.931 44.9923C196.315 44.4645 196.618 43.8267 196.991 43.1889C197.282 42.5072 197.655 41.8254 197.912 41.0557C198.052 40.6818 198.191 40.297 198.343 39.9121C198.459 39.5162 198.564 39.1094 198.692 38.7025C198.972 37.8998 199.112 37.0531 199.31 36.2174C199.543 35.3817 199.625 34.524 199.765 33.6883C199.916 32.8526 199.998 32.0169 200.079 31.2141C200.161 30.4114 200.277 29.6307 200.301 28.883C200.336 28.1352 200.394 27.4315 200.452 26.7827C200.522 26.1339 200.499 25.5291 200.534 25.0013C200.557 24.4735 200.58 24.0007 200.592 23.6268C200.639 22.8571 200.674 22.4172 200.674 22.4172C200.674 22.4172 200.755 22.8461 200.86 23.6158C200.907 24.0007 200.977 24.4625 201.047 24.9903C201.105 25.5181 201.221 26.1229 201.233 26.7827C201.268 27.4425 201.303 28.1572 201.315 28.916C201.361 29.6747 201.315 30.4774 201.268 31.3021C201.221 32.1268 201.21 32.9845 201.058 33.8532C200.918 34.7219 200.848 35.6016 200.627 36.4703C200.417 37.339 200.242 38.2187 199.939 39.0434C199.811 39.4613 199.66 39.8791 199.52 40.286C199.345 40.6818 199.17 41.0777 199.007 41.4735C198.704 42.2653 198.238 42.958 197.865 43.6398C197.422 44.2886 197.026 44.9153 196.548 45.4212C196.117 45.96 195.639 46.3888 195.243 46.7737C194.8 47.1366 194.416 47.4335 194.066 47.6424C193.728 47.8733 193.437 48.0053 193.239 48.0932C193.04 48.1812 192.936 48.2142 192.936 48.2142V48.2252Z" fill="#4BBA73"/>
<path d="M217.513 238.524C217.513 238.524 215.462 265.663 180.501 268.61C180.501 268.61 178.263 247.871 217.513 238.524Z" fill="#339159"/>
<path d="M219.135 188.69C219.135 188.69 220.545 205.504 205.873 215.07C205.873 215.07 201.887 194.474 219.135 188.69Z" fill="#339159"/>
<path d="M223.354 213.86C223.354 213.86 216.595 235.875 242.489 247.487C242.489 247.487 250.705 220.579 223.354 213.86Z" fill="#339159"/>
<path d="M210.977 169.744C210.977 169.744 216.873 182.412 243.595 188.647C243.595 188.647 236.102 163.256 210.977 169.744Z" fill="#339159"/>
<path d="M191.388 261.319C191.388 261.319 191.877 261.044 192.716 260.561C193.555 260.077 194.744 259.351 196.142 258.471C196.842 258.032 197.599 257.537 198.392 257.009C199.184 256.481 200 255.909 200.851 255.327C201.69 254.733 202.552 254.095 203.414 253.446C204.277 252.797 205.139 252.116 205.99 251.423C206.829 250.73 207.668 250.015 208.46 249.29C209.253 248.564 210.034 247.849 210.745 247.123C211.106 246.761 211.455 246.409 211.793 246.046C212.131 245.694 212.458 245.342 212.772 244.99C213.087 244.638 213.39 244.308 213.658 243.967C213.938 243.627 214.217 243.308 214.462 242.989C214.707 242.67 214.952 242.362 215.173 242.065C215.394 241.768 215.592 241.482 215.791 241.218C216.175 240.68 216.478 240.196 216.746 239.8C217.236 238.997 217.515 238.535 217.515 238.535C217.515 238.535 217.457 238.656 217.352 238.887C217.236 239.118 217.096 239.448 216.874 239.877C216.641 240.284 216.373 240.801 216.035 241.361C215.861 241.647 215.674 241.944 215.476 242.263C215.278 242.571 215.045 242.89 214.812 243.231C214.334 243.902 213.809 244.616 213.203 245.331C212.912 245.694 212.597 246.068 212.26 246.431C211.933 246.805 211.584 247.178 211.234 247.552C210.884 247.926 210.511 248.3 210.139 248.674C209.766 249.059 209.369 249.422 208.973 249.784C208.181 250.521 207.342 251.247 206.491 251.962C205.629 252.654 204.755 253.347 203.88 253.996C203.006 254.656 202.121 255.261 201.258 255.843C200.396 256.426 199.545 256.965 198.73 257.46C197.914 257.966 197.133 258.416 196.399 258.823C194.942 259.648 193.683 260.264 192.809 260.693C191.924 261.121 191.411 261.33 191.411 261.33L191.388 261.319Z" fill="#227744"/>
<path d="M219.135 188.69C219.135 188.69 218.622 189.625 217.83 191.011C217.433 191.703 216.967 192.506 216.478 193.364C216.233 193.793 215.977 194.243 215.72 194.694C215.464 195.145 215.196 195.607 214.951 196.069C214.427 196.982 213.937 197.916 213.483 198.796C213.261 199.236 213.04 199.665 212.842 200.06C212.644 200.467 212.469 200.852 212.294 201.215C212.119 201.567 211.991 201.908 211.863 202.205C211.735 202.502 211.63 202.754 211.548 202.974C211.385 203.403 211.28 203.656 211.28 203.656C211.28 203.656 211.315 203.392 211.397 202.941C211.432 202.71 211.49 202.436 211.583 202.128C211.676 201.82 211.746 201.457 211.886 201.083C212.014 200.709 212.143 200.291 212.317 199.874C212.492 199.456 212.667 198.994 212.877 198.543C213.098 198.092 213.296 197.619 213.541 197.157C213.786 196.696 214.019 196.212 214.287 195.75C214.543 195.288 214.811 194.826 215.091 194.375C215.359 193.925 215.639 193.485 215.907 193.067C216.175 192.638 216.455 192.242 216.711 191.868C216.967 191.494 217.224 191.132 217.468 190.813C218.424 189.515 219.135 188.712 219.135 188.712V188.69Z" fill="#227744"/>
<path d="M235.66 236.82C235.66 236.82 235.555 236.424 235.38 235.721C235.205 235.017 234.914 234.027 234.553 232.84C234.191 231.652 233.749 230.278 233.224 228.815C232.968 228.089 232.665 227.342 232.373 226.583C232.07 225.824 231.744 225.065 231.395 224.318C231.045 223.57 230.695 222.822 230.299 222.107C229.914 221.393 229.518 220.689 229.099 220.029C228.679 219.369 228.26 218.754 227.828 218.171C227.397 217.599 226.966 217.082 226.547 216.609C226.115 216.148 225.719 215.73 225.335 215.389C224.962 215.026 224.6 214.762 224.309 214.531C224.018 214.3 223.761 214.146 223.598 214.025C223.435 213.915 223.342 213.849 223.342 213.849C223.342 213.849 223.435 213.904 223.621 213.992C223.796 214.091 224.076 214.212 224.391 214.421C224.705 214.63 225.102 214.861 225.509 215.191C225.941 215.499 226.383 215.895 226.85 216.335C227.071 216.565 227.327 216.796 227.56 217.049C227.794 217.313 228.038 217.577 228.271 217.852C228.737 218.424 229.215 219.029 229.646 219.699C230.089 220.359 230.532 221.052 230.928 221.789C231.336 222.514 231.709 223.273 232.07 224.032C232.42 224.802 232.746 225.571 233.038 226.341C233.341 227.111 233.597 227.869 233.842 228.617C234.087 229.365 234.285 230.091 234.483 230.772C234.669 231.465 234.832 232.114 234.961 232.73C235.24 233.95 235.392 234.973 235.508 235.688C235.613 236.402 235.648 236.82 235.648 236.82H235.66Z" fill="#227744"/>
<path d="M227.105 177.496C227.105 177.496 226.266 176.737 224.903 175.748C224.565 175.495 224.18 175.242 223.784 174.967C223.376 174.703 222.957 174.428 222.502 174.153C222.048 173.889 221.582 173.604 221.092 173.351C220.847 173.219 220.603 173.087 220.358 172.955C220.101 172.834 219.857 172.713 219.6 172.592C219.099 172.328 218.575 172.119 218.074 171.899C217.573 171.668 217.048 171.492 216.559 171.305C216.431 171.261 216.314 171.206 216.186 171.162C216.058 171.118 215.941 171.085 215.813 171.041C215.568 170.964 215.335 170.887 215.102 170.81C214.636 170.646 214.193 170.536 213.774 170.426C213.354 170.327 212.981 170.195 212.643 170.129C212.305 170.052 212.002 169.986 211.757 169.942C211.268 169.832 210.988 169.766 210.988 169.766C210.988 169.766 211.28 169.766 211.781 169.81C212.037 169.832 212.34 169.854 212.701 169.876C213.051 169.898 213.447 169.975 213.878 170.041C214.1 170.074 214.321 170.118 214.554 170.151C214.787 170.184 215.02 170.261 215.265 170.316C215.743 170.448 216.279 170.536 216.78 170.723C217.037 170.81 217.305 170.898 217.573 170.986C217.701 171.03 217.841 171.074 217.981 171.118C218.109 171.173 218.237 171.228 218.377 171.283C218.901 171.503 219.449 171.712 219.962 171.976C220.218 172.108 220.474 172.24 220.742 172.361C220.987 172.504 221.244 172.647 221.488 172.779C221.989 173.043 222.444 173.373 222.898 173.658C223.353 173.955 223.761 174.274 224.145 174.571C224.53 174.879 224.891 175.165 225.194 175.462C225.52 175.737 225.788 176.023 226.033 176.265C226.278 176.507 226.476 176.737 226.639 176.913C226.966 177.287 227.129 177.518 227.129 177.518L227.105 177.496Z" fill="#227744"/>
<g style="mix-blend-mode:overlay" opacity="0.4">
<path d="M180.516 267.081C180.446 268.049 180.504 268.61 180.504 268.61C215.465 265.652 217.516 238.524 217.516 238.524C217.342 238.568 217.167 238.612 216.992 238.656C215.897 244.528 210.023 264.453 180.528 267.081H180.516Z" fill="white"/>
</g>
<g style="mix-blend-mode:overlay" opacity="0.4">
<path d="M205.709 213.993C205.791 214.674 205.872 215.07 205.872 215.07C220.533 205.504 219.134 188.69 219.134 188.69C219.029 188.723 218.913 188.767 218.808 188.811C218.831 192.616 217.98 205.855 205.709 214.004V213.993Z" fill="white"/>
</g>
<g style="mix-blend-mode:overlay" opacity="0.4">
<path d="M241.697 247.102C241.965 247.223 242.233 247.355 242.501 247.476C242.501 247.476 250.717 220.568 223.365 213.849C223.365 213.849 223.307 214.047 223.214 214.41C246.964 220.777 242.745 242.846 241.697 247.091V247.102Z" fill="white"/>
</g>
<g style="mix-blend-mode:overlay" opacity="0.4">
<path d="M241.893 188.229C242.453 188.371 243.024 188.514 243.606 188.646C243.606 188.646 238.607 171.723 223.096 169.04C236.789 172.471 241.59 187.206 241.905 188.229H241.893Z" fill="white"/>
</g>
<g style="mix-blend-mode:multiply" opacity="0.4">
<path d="M189.72 251.115C198.565 248.333 207.527 248.872 213.715 249.872C217.118 243.759 217.514 238.524 217.514 238.524C203.809 241.79 195.174 246.442 189.72 251.115Z" fill="#339159"/>
</g>
<g style="mix-blend-mode:multiply" opacity="0.4">
<path d="M219.134 188.69C211.653 191.198 208.168 196.498 206.618 201.699C211.221 196.443 216.466 192.308 219.169 190.318C219.181 189.284 219.134 188.69 219.134 188.69Z" fill="#339159"/>
</g>
<g style="mix-blend-mode:multiply" opacity="0.4">
<path d="M233.911 218.424C231.301 216.598 228.026 215.081 223.947 214.014C223.703 214.179 223.458 214.344 223.202 214.509C222.596 217.115 220.894 227.122 227.921 236.48C228.131 228.309 231.336 222.108 233.911 218.424Z" fill="#339159"/>
</g>
<g style="mix-blend-mode:multiply" opacity="0.4">
<path d="M210.977 169.744C210.977 169.744 212.224 172.405 216.139 175.902C222.281 173.329 229.121 173.219 233.142 173.46C228.096 169.601 220.917 167.171 210.977 169.744Z" fill="#339159"/>
</g>
<path d="M201.211 155.273C201.211 155.273 201.456 155.537 201.899 156.054C202.341 156.571 202.982 157.319 203.751 158.319C204.521 159.309 205.441 160.529 206.455 161.959C206.968 162.674 207.481 163.443 208.04 164.246C208.576 165.071 209.147 165.929 209.706 166.841C210.86 168.656 212.014 170.679 213.179 172.834C214.321 175.011 215.498 177.321 216.547 179.773C216.815 180.388 217.095 181.004 217.351 181.631C217.608 182.258 217.852 182.896 218.109 183.533C218.237 183.852 218.365 184.171 218.493 184.49C218.61 184.82 218.726 185.139 218.843 185.469C219.076 186.128 219.309 186.777 219.542 187.448C219.764 188.108 219.962 188.789 220.172 189.46C220.37 190.131 220.603 190.802 220.778 191.495C221.139 192.858 221.547 194.233 221.826 195.618L222.281 197.696C222.397 198.4 222.526 199.093 222.642 199.786C222.91 201.171 223.062 202.579 223.236 203.964C223.283 204.316 223.318 204.657 223.365 204.998C223.388 205.35 223.411 205.691 223.446 206.031C223.493 206.724 223.539 207.406 223.586 208.088C223.644 208.769 223.633 209.451 223.644 210.122C223.644 210.793 223.668 211.464 223.668 212.134C223.668 212.794 223.621 213.454 223.598 214.114C223.563 214.762 223.539 215.411 223.504 216.049C223.4 217.324 223.236 218.567 223.12 219.777C223.062 220.381 222.933 220.975 222.84 221.558C222.735 222.141 222.642 222.713 222.549 223.284C222.502 223.57 222.456 223.845 222.397 224.12C222.327 224.395 222.269 224.67 222.199 224.934C222.071 225.473 221.943 226 221.815 226.517C221.687 227.034 221.558 227.54 221.442 228.035C221.29 228.519 221.139 228.991 220.987 229.464C220.684 230.388 220.416 231.268 220.137 232.081C219.822 232.884 219.519 233.643 219.239 234.335C219.099 234.687 218.971 235.017 218.843 235.336C218.785 235.49 218.715 235.655 218.657 235.798C218.587 235.952 218.517 236.095 218.447 236.227C217.911 237.348 217.48 238.228 217.188 238.822C216.897 239.416 216.734 239.735 216.734 239.735C216.734 239.735 216.862 239.405 217.107 238.789C217.351 238.173 217.701 237.26 218.167 236.117C218.225 235.974 218.284 235.831 218.342 235.677C218.389 235.523 218.447 235.369 218.493 235.204C218.598 234.885 218.715 234.544 218.831 234.193C219.064 233.489 219.321 232.73 219.589 231.905C219.822 231.081 220.032 230.19 220.276 229.266C220.393 228.804 220.521 228.332 220.649 227.837C220.743 227.342 220.847 226.836 220.952 226.319C221.057 225.802 221.162 225.275 221.267 224.747C221.325 224.483 221.372 224.208 221.43 223.933C221.477 223.658 221.5 223.383 221.547 223.097C221.687 221.976 221.885 220.821 222.001 219.634C222.083 218.435 222.199 217.215 222.269 215.961C222.269 214.707 222.339 213.421 222.339 212.112C222.316 211.464 222.292 210.804 222.269 210.133C222.234 209.473 222.246 208.802 222.176 208.132C222.118 207.461 222.059 206.79 222.001 206.108C221.978 205.768 221.943 205.427 221.92 205.086C221.873 204.745 221.826 204.404 221.791 204.063C221.617 202.7 221.453 201.325 221.185 199.962C221.057 199.28 220.941 198.587 220.812 197.905L220.358 195.86C220.09 194.485 219.694 193.144 219.344 191.791C219.181 191.11 218.96 190.45 218.761 189.79C218.552 189.13 218.365 188.46 218.144 187.8C217.246 185.183 216.361 182.61 215.312 180.18C214.31 177.738 213.226 175.418 212.165 173.23C211.606 172.152 211.093 171.086 210.546 170.085C210.278 169.579 210.009 169.084 209.753 168.59C209.485 168.106 209.217 167.633 208.961 167.171C207.912 165.324 206.91 163.641 205.989 162.168C205.068 160.694 204.229 159.43 203.518 158.407C202.796 157.385 202.236 156.571 201.84 156.032C201.444 155.493 201.223 155.207 201.223 155.207L201.211 155.273Z" fill="#339159"/>
<path d="M33.6865 74.4835C33.6865 74.4835 35.8891 47.356 70.8619 44.574C70.8619 44.574 72.9945 65.3237 33.6865 74.4835Z" fill="#339159"/>
<path d="M31.7999 124.319C31.7999 124.319 30.483 107.495 45.2016 97.9939C45.2016 97.9939 49.0823 118.612 31.7999 124.319Z" fill="#339159"/>
<path d="M27.7105 99.1263C27.7105 99.1263 34.5978 77.134 8.74991 65.4121C8.74991 65.4121 0.382539 92.2757 27.7105 99.1263Z" fill="#339159"/>
<path d="M39.8527 143.298C39.8527 143.298 34.0258 130.608 7.32715 124.241C7.32715 124.241 14.6806 149.665 39.8527 143.298Z" fill="#339159"/>
<path d="M59.9347 51.821C59.9347 51.821 59.4452 52.085 58.6061 52.5688C57.7554 53.0526 56.5667 53.7674 55.1683 54.6471C54.4691 55.0869 53.7116 55.5707 52.9191 56.0985C52.1267 56.6154 51.2993 57.1872 50.4485 57.77C49.5978 58.3637 48.7354 58.9905 47.8731 59.6393C46.999 60.2881 46.1483 60.9698 45.2859 61.6516C44.4352 62.3444 43.5962 63.0481 42.8037 63.7739C42.0112 64.4996 41.2188 65.2033 40.5079 65.9291C40.1467 66.281 39.797 66.6438 39.4591 67.0067C39.1211 67.3586 38.7832 67.7105 38.4802 68.0623C38.1655 68.4032 37.8625 68.7441 37.5828 69.085C37.3031 69.4259 37.0118 69.7338 36.7787 70.0636C36.534 70.3825 36.2893 70.6904 36.0562 70.9763C35.8348 71.2732 35.625 71.5591 35.4386 71.823C35.0423 72.3508 34.751 72.8457 34.4829 73.2305C33.9818 74.0332 33.7021 74.4951 33.7021 74.4951C33.7021 74.4951 33.7604 74.3741 33.8653 74.1432C33.9818 73.9123 34.1333 73.5824 34.3431 73.1536C34.5762 72.7467 34.8442 72.2299 35.1938 71.6691C35.3686 71.3832 35.5551 71.0863 35.7532 70.7784C35.963 70.4705 36.1844 70.1516 36.4175 69.8107C36.8953 69.151 37.4313 68.4362 38.0373 67.7105C38.3287 67.3476 38.655 66.9737 38.9813 66.6109C39.3076 66.237 39.6572 65.8631 40.0185 65.5002C40.3681 65.1264 40.741 64.7525 41.1256 64.3786C41.4985 64.0048 41.8947 63.6419 42.3026 63.268C43.1067 62.5313 43.9458 61.8165 44.7965 61.1128C45.6589 60.42 46.5329 59.7383 47.4186 59.1005C48.2926 58.4517 49.1899 57.8469 50.0523 57.2641C50.9147 56.6813 51.7771 56.1535 52.5928 55.6587C53.4086 55.1639 54.201 54.713 54.9352 54.3062C56.3919 53.4925 57.6622 52.8767 58.5362 52.4588C59.4219 52.041 59.9347 51.832 59.9347 51.832V51.821Z" fill="#227744"/>
<path d="M31.8018 124.319C31.8018 124.319 32.3145 123.384 33.1186 122.01C33.5149 121.317 33.981 120.514 34.4821 119.656C34.7268 119.228 34.9832 118.788 35.2513 118.326C35.5193 117.875 35.7757 117.413 36.0321 116.951C36.5565 116.039 37.0576 115.104 37.5237 114.235C37.7452 113.795 37.9666 113.367 38.1763 112.971C38.3745 112.564 38.5609 112.179 38.7241 111.827C38.8989 111.475 39.0271 111.134 39.1669 110.848C39.3067 110.552 39.4 110.299 39.4816 110.079C39.6564 109.65 39.7496 109.397 39.7496 109.397C39.7496 109.397 39.7146 109.661 39.6214 110.112C39.5864 110.343 39.5282 110.618 39.4349 110.925C39.3417 111.233 39.2601 111.596 39.1319 111.97C39.0038 112.344 38.8639 112.762 38.6891 113.18C38.5143 113.598 38.3395 114.048 38.1181 114.499C37.8967 114.95 37.6985 115.423 37.4422 115.885C37.1974 116.347 36.9527 116.819 36.6847 117.292C36.4166 117.754 36.1486 118.216 35.8806 118.667C35.6125 119.118 35.3212 119.546 35.0531 119.975C34.7851 120.404 34.5054 120.789 34.2374 121.174C33.9693 121.548 33.713 121.9 33.4799 122.229C32.5243 123.527 31.8018 124.33 31.8018 124.33V124.319Z" fill="#227744"/>
<path d="M15.5341 76.1008C15.5341 76.1008 15.639 76.5077 15.8138 77.2114C15.9886 77.9152 16.2683 78.9048 16.6179 80.1034C16.9675 81.291 17.4104 82.6765 17.9231 84.128C18.1795 84.8648 18.4709 85.6015 18.7622 86.3602C19.0652 87.119 19.3798 87.8777 19.7295 88.6254C20.0674 89.3732 20.4287 90.1209 20.8132 90.8466C21.1978 91.5614 21.5824 92.2652 22.0019 92.9249C22.4098 93.5847 22.8293 94.2115 23.2605 94.7833C23.6917 95.3551 24.1229 95.8829 24.5308 96.3447C24.962 96.8066 25.3465 97.2244 25.7428 97.5653C26.1157 97.9282 26.477 98.1921 26.7683 98.434C27.0596 98.6649 27.316 98.8188 27.4675 98.9398C27.6307 99.0608 27.7239 99.1157 27.7239 99.1157C27.7239 99.1157 27.6307 99.0608 27.4442 98.9728C27.2694 98.8738 26.9897 98.7529 26.6751 98.5439C26.3604 98.335 25.9642 98.0931 25.5563 97.7632C25.1251 97.4553 24.6823 97.0595 24.2161 96.6196C23.9947 96.3887 23.75 96.1578 23.5169 95.9049C23.2838 95.641 23.0508 95.3771 22.8177 95.0912C22.3515 94.5194 21.8854 93.9036 21.4425 93.2438C21.0114 92.584 20.5685 91.8803 20.1723 91.1545C19.7644 90.4288 19.4031 89.6701 19.0419 88.9113C18.6923 88.1416 18.3776 87.3719 18.0863 86.6021C17.7949 85.8324 17.5386 85.0627 17.2938 84.3149C17.0491 83.5672 16.851 82.8415 16.6645 82.1487C16.4781 81.4559 16.3266 80.7962 16.1984 80.1914C15.9303 78.9708 15.7788 77.9482 15.6623 77.2334C15.5574 76.5187 15.5225 76.1008 15.5225 76.1008H15.5341Z" fill="#227744"/>
<path d="M23.7714 135.469C23.7714 135.469 24.6105 136.227 25.974 137.228C26.3119 137.481 26.6965 137.734 27.0811 138.009C27.489 138.273 27.9085 138.547 28.363 138.833C28.8175 139.108 29.2836 139.383 29.7731 139.647C30.0178 139.779 30.2625 139.911 30.5073 140.054C30.7636 140.175 31.0084 140.296 31.2648 140.428C31.7659 140.692 32.2903 140.901 32.7914 141.132C33.2925 141.362 33.8169 141.538 34.3064 141.736C34.4346 141.78 34.5511 141.835 34.6793 141.879C34.8075 141.923 34.924 141.956 35.0522 142C35.2969 142.077 35.53 142.154 35.7631 142.231C36.2292 142.396 36.6721 142.506 37.08 142.627C37.4995 142.726 37.8724 142.858 38.2104 142.935C38.5483 143.012 38.8513 143.078 39.0961 143.133C39.5855 143.254 39.8652 143.32 39.8652 143.32C39.8652 143.32 39.5739 143.309 39.0727 143.276C38.8164 143.254 38.5134 143.232 38.1521 143.21C37.8025 143.188 37.4063 143.1 36.9751 143.034C36.7537 143.001 36.5322 142.957 36.2992 142.924C36.0661 142.891 35.833 142.814 35.5883 142.759C35.1105 142.627 34.5861 142.528 34.0733 142.341C33.8169 142.253 33.5489 142.165 33.2809 142.077C33.1527 142.033 33.0128 141.989 32.8846 141.945C32.7564 141.89 32.6282 141.835 32.4884 141.78C31.964 141.56 31.4163 141.351 30.9035 141.077C30.6471 140.945 30.3907 140.813 30.1343 140.681C29.8896 140.538 29.6332 140.395 29.3885 140.252C28.8874 139.977 28.4329 139.658 27.9784 139.361C27.5356 139.064 27.1277 138.745 26.7315 138.448C26.3469 138.141 25.9973 137.844 25.6826 137.558C25.368 137.272 25.0883 136.997 24.8436 136.755C24.5988 136.513 24.4007 136.282 24.2376 136.095C23.9113 135.721 23.7598 135.491 23.7598 135.491L23.7714 135.469Z" fill="#227744"/>
<g style="mix-blend-mode:overlay" opacity="0.4">
<path d="M70.8386 46.1024C70.9201 45.1348 70.8619 44.574 70.8619 44.574C35.8891 47.356 33.6865 74.4835 33.6865 74.4835C33.8613 74.4395 34.0361 74.3955 34.2109 74.3515C35.3414 68.4796 41.3197 48.5876 70.8269 46.0914L70.8386 46.1024Z" fill="white"/>
</g>
<g style="mix-blend-mode:overlay" opacity="0.4">
<path d="M45.3531 99.0715C45.2716 98.3898 45.2016 97.9939 45.2016 97.9939C30.483 107.495 31.7999 124.319 31.7999 124.319C31.9048 124.286 32.0213 124.242 32.1262 124.209C32.1262 120.404 33.0468 107.165 45.3531 99.0825V99.0715Z" fill="white"/>
</g>
<g style="mix-blend-mode:overlay" opacity="0.4">
<path d="M9.55401 65.786C9.28598 65.654 9.01794 65.5331 8.74991 65.4121C8.74991 65.4121 0.382539 92.2757 27.7105 99.1263C27.7105 99.1263 27.7688 98.9284 27.862 98.5655C4.14669 92.0778 8.48187 70.0415 9.55401 65.797V65.786Z" fill="white"/>
</g>
<g style="mix-blend-mode:overlay" opacity="0.4">
<path d="M9.04226 124.66C8.48288 124.517 7.91185 124.374 7.34082 124.231C7.34082 124.231 12.247 141.187 27.7465 143.936C14.065 140.439 9.35691 125.682 9.04226 124.66Z" fill="white"/>
</g>
<g style="mix-blend-mode:multiply" opacity="0.4">
<path d="M61.5506 62.0256C52.6937 64.7637 43.732 64.1919 37.5439 63.1472C34.1061 69.2501 33.6865 74.4843 33.6865 74.4843C47.4029 71.2844 56.0733 66.677 61.5506 62.0256Z" fill="#339159"/>
</g>
<g style="mix-blend-mode:multiply" opacity="0.4">
<path d="M31.8023 124.318C39.2956 121.844 42.8151 116.555 44.3883 111.376C39.7618 116.61 34.4943 120.723 31.779 122.691C31.7557 123.725 31.8023 124.318 31.8023 124.318Z" fill="#339159"/>
</g>
<g style="mix-blend-mode:multiply" opacity="0.4">
<path d="M17.1865 94.5078C19.7853 96.3441 23.0483 97.8836 27.1271 98.9612C27.3719 98.7963 27.6166 98.6423 27.8846 98.4664C28.5023 95.8603 30.262 85.8648 23.2814 76.4741C23.025 84.6443 19.7853 90.8241 17.1865 94.4968V94.5078Z" fill="#339159"/>
</g>
<g style="mix-blend-mode:multiply" opacity="0.4">
<path d="M39.853 143.298C39.853 143.298 38.6294 140.626 34.7254 137.118C28.5605 139.669 21.7315 139.735 17.7109 139.471C22.7337 143.364 29.9007 145.816 39.8646 143.298H39.853Z" fill="#339159"/>
</g>
<path d="M49.5367 157.813C49.5367 157.813 49.292 157.549 48.8608 157.032C48.4296 156.515 47.7887 155.756 47.0195 154.767C46.2504 153.766 45.3414 152.546 44.3392 151.116C43.8264 150.401 43.3136 149.632 42.7659 148.818C42.2415 147.993 41.6705 147.136 41.1111 146.212C39.969 144.386 38.827 142.363 37.6732 140.197C36.5428 138.02 35.3775 135.7 34.3403 133.236C34.0839 132.621 33.8042 132.005 33.5478 131.378C33.3031 130.751 33.0467 130.113 32.802 129.476C32.6738 129.157 32.5573 128.838 32.4291 128.508C32.3125 128.178 32.196 127.859 32.0795 127.529C31.8464 126.87 31.625 126.21 31.3919 125.55C31.1705 124.879 30.9724 124.209 30.7742 123.538C30.5761 122.867 30.343 122.196 30.1799 121.504C29.8303 120.129 29.4341 118.765 29.1544 117.369L28.7115 115.291C28.595 114.587 28.4785 113.894 28.3619 113.201C28.1055 111.816 27.954 110.408 27.7909 109.023C27.7559 108.671 27.7093 108.33 27.6743 107.989C27.651 107.637 27.6277 107.296 27.6044 106.956C27.5578 106.263 27.5229 105.581 27.4762 104.899C27.418 104.218 27.4413 103.536 27.4296 102.865C27.4296 102.194 27.4296 101.524 27.418 100.853C27.418 100.193 27.4762 99.5332 27.4995 98.8734C27.5345 98.2247 27.5695 97.5759 27.5928 96.9381C27.7093 95.6626 27.8725 94.42 28.0007 93.2104C28.0589 92.6056 28.1988 92.0119 28.292 91.4291C28.3969 90.8463 28.5018 90.2745 28.595 89.7027C28.6533 89.4168 28.6882 89.1419 28.7465 88.867C28.8164 88.5921 28.8863 88.3172 28.9446 88.0532C29.0728 87.5144 29.2126 86.9866 29.3408 86.4698C29.469 85.953 29.5972 85.4472 29.7254 84.9523C29.8769 84.4685 30.0284 83.9957 30.1799 83.5338C30.4829 82.6102 30.7626 81.7305 31.0539 80.9167C31.3802 80.114 31.6832 79.3663 31.9629 78.6625C32.1028 78.3107 32.2426 77.9808 32.3708 77.6619C32.4291 77.5079 32.499 77.343 32.5573 77.2C32.6272 77.0461 32.6971 76.9032 32.767 76.7712C33.3031 75.6496 33.7459 74.7699 34.0489 74.1761C34.3403 73.5823 34.5034 73.2634 34.5034 73.2634C34.5034 73.2634 34.3752 73.5933 34.1189 74.2091C33.8741 74.8249 33.5129 75.7266 33.0351 76.8702C32.9768 77.0131 32.9069 77.1561 32.8603 77.31C32.8136 77.464 32.7554 77.6179 32.6971 77.7828C32.5922 78.1017 32.4757 78.4426 32.3591 78.7945C32.1261 79.4982 31.8697 80.257 31.59 81.0707C31.3453 81.8954 31.1355 82.7751 30.8791 83.7098C30.7509 84.1716 30.6227 84.6444 30.4945 85.1283C30.3897 85.6231 30.2848 86.1289 30.1799 86.6347C30.075 87.1516 29.9701 87.6794 29.8652 88.2072C29.807 88.4711 29.7604 88.746 29.7021 89.0209C29.6555 89.2958 29.6205 89.5707 29.5856 89.8566C29.4457 90.9782 29.2359 92.1328 29.1194 93.3204C29.0262 94.519 28.9096 95.7395 28.8281 96.9931C28.8164 98.2467 28.7465 99.5332 28.7465 100.842C28.7698 101.491 28.7815 102.15 28.8048 102.821C28.8281 103.481 28.8164 104.152 28.8863 104.822C28.9446 105.493 28.9912 106.164 29.0495 106.846C29.0728 107.187 29.0961 107.527 29.1311 107.868C29.1777 108.209 29.2126 108.55 29.2593 108.891C29.4341 110.254 29.5856 111.629 29.8419 112.992C29.9585 113.674 30.0867 114.367 30.2032 115.049L30.6577 117.094C30.9257 118.469 31.3103 119.81 31.6483 121.163C31.8114 121.844 32.0328 122.504 32.2193 123.175C32.4174 123.835 32.6155 124.505 32.8253 125.165C33.711 127.782 34.585 130.355 35.6105 132.797C36.6011 135.238 37.6732 137.569 38.7221 139.757C39.2698 140.846 39.7826 141.901 40.3303 142.913C40.5983 143.419 40.8547 143.914 41.1227 144.408C41.3908 144.892 41.6588 145.365 41.9152 145.838C42.9524 147.696 43.9546 149.379 44.8636 150.852C45.7726 152.326 46.6116 153.59 47.3109 154.624C48.0217 155.658 48.5811 156.46 48.9773 156.999C49.3736 157.549 49.595 157.824 49.595 157.824L49.5367 157.813Z" fill="#339159"/>
<path d="M66.4251 123.373C66.4251 125.089 64.9451 126.485 63.1271 126.485C61.3091 126.485 59.8291 125.089 59.8291 123.373C59.8291 121.658 61.3091 120.261 63.1271 120.261C64.9451 120.261 66.4251 121.658 66.4251 123.373Z" fill="white"/>
<path d="M192.097 222.888C192.097 224.604 190.617 226 188.799 226C186.981 226 185.501 224.604 185.501 222.888C185.501 221.173 186.981 219.776 188.799 219.776C190.617 219.776 192.097 221.173 192.097 222.888Z" fill="white"/>
<path d="M267.846 202.358C267.846 204.074 266.366 205.47 264.548 205.47C262.73 205.47 261.25 204.074 261.25 202.358C261.25 200.643 262.73 199.247 264.548 199.247C266.366 199.247 267.846 200.643 267.846 202.358Z" fill="white"/>
<path d="M240.263 267.972C240.263 269.688 238.783 271.084 236.965 271.084C235.147 271.084 233.667 269.688 233.667 267.972C233.667 266.257 235.147 264.86 236.965 264.86C238.783 264.86 240.263 266.257 240.263 267.972Z" fill="white"/>
<path d="M27.7786 38.8785C27.7786 40.5939 26.2986 41.9904 24.4806 41.9904C22.6626 41.9904 21.1826 40.5939 21.1826 38.8785C21.1826 37.1631 22.6626 35.7666 24.4806 35.7666C26.2986 35.7666 27.7786 37.1631 27.7786 38.8785Z" fill="white"/>
<path d="M3.49415 105.043C4.45958 105.043 5.24221 104.304 5.24221 103.393C5.24221 102.482 4.45958 101.744 3.49415 101.744C2.52873 101.744 1.74609 102.482 1.74609 103.393C1.74609 104.304 2.52873 105.043 3.49415 105.043Z" fill="#2CB7A6"/>
<path d="M34.5742 207.306C35.5397 207.306 36.3223 206.568 36.3223 205.657C36.3223 204.746 35.5397 204.007 34.5742 204.007C33.6088 204.007 32.8262 204.746 32.8262 205.657C32.8262 206.568 33.6088 207.306 34.5742 207.306Z" fill="#2CB7A6"/>
<path d="M160.818 275.483C161.784 275.483 162.566 274.744 162.566 273.834C162.566 272.923 161.784 272.184 160.818 272.184C159.853 272.184 159.07 272.923 159.07 273.834C159.07 274.744 159.853 275.483 160.818 275.483Z" fill="#2CB7A6"/>
<path d="M145.669 178.716C146.634 178.716 147.417 177.978 147.417 177.067C147.417 176.156 146.634 175.417 145.669 175.417C144.704 175.417 143.921 176.156 143.921 177.067C143.921 177.978 144.704 178.716 145.669 178.716Z" fill="#2CB7A6"/>
<path d="M300.28 248.729C301.246 248.729 302.028 247.99 302.028 247.079C302.028 246.168 301.246 245.43 300.28 245.43C299.315 245.43 298.532 246.168 298.532 247.079C298.532 247.99 299.315 248.729 300.28 248.729Z" fill="#2CB7A6"/>
<path d="M220.254 148.664C221.219 148.664 222.002 147.926 222.002 147.015C222.002 146.104 221.219 145.365 220.254 145.365C219.288 145.365 218.506 146.104 218.506 147.015C218.506 147.926 219.288 148.664 220.254 148.664Z" fill="#2CB7A6"/>
<path d="M125.475 106.505C126.44 106.505 127.223 105.766 127.223 104.855C127.223 103.945 126.44 103.206 125.475 103.206C124.509 103.206 123.727 103.945 123.727 104.855C123.727 105.766 124.509 106.505 125.475 106.505Z" fill="#2CB7A6"/>
<path d="M222.2 40.9021C223.166 40.9021 223.948 40.1636 223.948 39.2527C223.948 38.3417 223.166 37.6033 222.2 37.6033C221.235 37.6033 220.452 38.3417 220.452 39.2527C220.452 40.1636 221.235 40.9021 222.2 40.9021Z" fill="#2CB7A6"/>
<path d="M284.349 114.939C285.314 114.939 286.097 114.201 286.097 113.29C286.097 112.379 285.314 111.64 284.349 111.64C283.383 111.64 282.601 112.379 282.601 113.29C282.601 114.201 283.383 114.939 284.349 114.939Z" fill="#2CB7A6"/>
<path d="M301.06 175.055C302.025 175.055 302.808 174.317 302.808 173.406C302.808 172.495 302.025 171.756 301.06 171.756C300.094 171.756 299.312 172.495 299.312 173.406C299.312 174.317 300.094 175.055 301.06 175.055Z" fill="#227744"/>
<path d="M181.027 117.325C181.993 117.325 182.775 116.587 182.775 115.676C182.775 114.765 181.993 114.027 181.027 114.027C180.062 114.027 179.279 114.765 179.279 115.676C179.279 116.587 180.062 117.325 181.027 117.325Z" fill="#227744"/>
<path d="M172.287 85.4363C173.253 85.4363 174.035 84.6978 174.035 83.7869C174.035 82.8759 173.253 82.1375 172.287 82.1375C171.322 82.1375 170.539 82.8759 170.539 83.7869C170.539 84.6978 171.322 85.4363 172.287 85.4363Z" fill="#227744"/>
<path d="M83.7178 30.2691C84.6832 30.2691 85.4658 29.5306 85.4658 28.6196C85.4658 27.7087 84.6832 26.9702 83.7178 26.9702C82.7524 26.9702 81.9697 27.7087 81.9697 28.6196C81.9697 29.5306 82.7524 30.2691 83.7178 30.2691Z" fill="#227744"/>
<path d="M147.031 3.87843C147.997 3.87843 148.779 3.13996 148.779 2.22901C148.779 1.31806 147.997 0.57959 147.031 0.57959C146.066 0.57959 145.283 1.31806 145.283 2.22901C145.283 3.13996 146.066 3.87843 147.031 3.87843Z" fill="#227744"/>
<path d="M6.80206 254.777C6.80206 256.493 5.32204 257.889 3.50406 257.889C1.68608 257.889 0.206055 256.493 0.206055 254.777C0.206055 253.062 1.68608 251.665 3.50406 251.665C5.32204 251.665 6.80206 253.062 6.80206 254.777Z" fill="white"/>
<path opacity="0.65" d="M8.00208 302.06V301.079H9.75697C10.2727 301.079 10.713 300.975 11.0779 300.767C11.4427 300.56 11.7194 300.271 11.9081 299.899C12.1031 299.528 12.2006 299.104 12.2006 298.626C12.2006 298.154 12.1031 297.739 11.9081 297.38C11.7194 297.022 11.4427 296.745 11.0779 296.55C10.7193 296.349 10.279 296.248 9.75697 296.248H8.02095V295.267H9.75697C10.4992 295.267 11.147 295.405 11.7006 295.682C12.2541 295.959 12.6818 296.352 12.9837 296.861C13.2919 297.365 13.446 297.959 13.446 298.645C13.446 299.33 13.2919 299.931 12.9837 300.447C12.6755 300.956 12.2446 301.352 11.6911 301.635C11.1439 301.919 10.5023 302.06 9.7664 302.06H8.00208ZM7.25672 302.06V295.267H8.48326V302.06H7.25672ZM16.5591 302.154C16.0496 302.154 15.603 302.047 15.2193 301.834C14.8419 301.62 14.5463 301.324 14.3324 300.947C14.1249 300.569 14.0211 300.135 14.0211 299.645C14.0211 299.154 14.1249 298.723 14.3324 298.352C14.5463 297.975 14.8419 297.682 15.2193 297.475C15.5967 297.261 16.037 297.154 16.5402 297.154C17.0182 297.154 17.4334 297.255 17.7856 297.456C18.1378 297.651 18.4115 297.928 18.6064 298.286C18.8014 298.645 18.8989 299.063 18.8989 299.541C18.8989 299.629 18.8958 299.711 18.8895 299.786C18.8832 299.862 18.8738 299.937 18.8612 300.013H14.757V299.182H17.946L17.7007 299.409C17.7007 298.956 17.5969 298.616 17.3893 298.39C17.1818 298.163 16.8924 298.05 16.5213 298.05C16.1188 298.05 15.798 298.189 15.559 298.465C15.3263 298.742 15.2099 299.142 15.2099 299.664C15.2099 300.179 15.3263 300.576 15.559 300.852C15.798 301.123 16.1345 301.258 16.5685 301.258C16.8201 301.258 17.0403 301.211 17.229 301.117C17.4176 301.022 17.556 300.878 17.6441 300.683H18.7668C18.6096 301.135 18.3423 301.494 17.9649 301.758C17.5938 302.022 17.1252 302.154 16.5591 302.154ZM21.656 302.154C20.9892 302.154 20.4577 302.016 20.0615 301.739C19.6652 301.456 19.4482 301.066 19.4105 300.569H20.4955C20.5269 300.815 20.6433 301 20.8446 301.126C21.0459 301.252 21.3163 301.315 21.656 301.315C21.9642 301.315 22.1938 301.268 22.3447 301.173C22.502 301.073 22.5806 300.931 22.5806 300.749C22.5806 300.617 22.5366 300.51 22.4485 300.428C22.3604 300.34 22.1938 300.267 21.9485 300.211L21.1748 300.032C20.6464 299.918 20.2533 299.742 19.9954 299.503C19.7438 299.258 19.618 298.953 19.618 298.588C19.618 298.141 19.7879 297.792 20.1275 297.541C20.4735 297.283 20.9484 297.154 21.5522 297.154C22.1497 297.154 22.6278 297.283 22.9863 297.541C23.3511 297.792 23.5524 298.141 23.5901 298.588H22.5051C22.4737 298.393 22.373 298.245 22.2032 298.145C22.0397 298.044 21.8132 297.994 21.5239 297.994C21.2534 297.994 21.049 298.038 20.9106 298.126C20.7722 298.207 20.7031 298.33 20.7031 298.494C20.7031 298.619 20.7565 298.726 20.8634 298.814C20.9704 298.896 21.1496 298.969 21.4012 299.031L22.2315 299.22C22.7032 299.327 23.0586 299.513 23.2976 299.777C23.543 300.041 23.6656 300.352 23.6656 300.711C23.6656 301.17 23.4895 301.525 23.1373 301.777C22.785 302.029 22.2913 302.154 21.656 302.154ZM24.506 302.06V297.248H25.6948V302.06H24.506ZM24.4494 296.456V295.144H25.7419V296.456H24.4494ZM29.0334 304.089C28.3981 304.089 27.876 303.95 27.4672 303.673C27.0646 303.397 26.8256 303.022 26.7501 302.551H27.8823C27.9389 302.714 28.0616 302.84 28.2503 302.928C28.4453 303.022 28.6969 303.07 29.0051 303.07C29.4517 303.07 29.7819 302.969 29.9957 302.768C30.2096 302.573 30.3165 302.274 30.3165 301.871V300.834L30.4014 300.852C30.326 301.205 30.1341 301.488 29.8259 301.702C29.5177 301.909 29.1403 302.013 28.6937 302.013C28.266 302.013 27.8918 301.912 27.571 301.711C27.2565 301.51 27.0112 301.23 26.8351 300.871C26.6589 300.506 26.5709 300.082 26.5709 299.598C26.5709 299.107 26.6621 298.679 26.8445 298.314C27.0269 297.95 27.2816 297.667 27.6087 297.465C27.9421 297.258 28.3289 297.154 28.7692 297.154C29.2221 297.154 29.5932 297.264 29.8825 297.484C30.1782 297.698 30.3606 297.997 30.4298 298.38L30.3543 298.39V297.248H31.5148V301.862C31.5148 302.548 31.2915 303.088 30.8449 303.485C30.4046 303.887 29.8008 304.089 29.0334 304.089ZM29.0806 301.069C29.4643 301.069 29.7693 300.94 29.9957 300.683C30.2285 300.418 30.3448 300.05 30.3448 299.579C30.3448 299.107 30.2285 298.742 29.9957 298.484C29.763 298.226 29.4548 298.097 29.0711 298.097C28.6937 298.097 28.3887 298.229 28.1559 298.494C27.9232 298.752 27.8069 299.116 27.8069 299.588C27.8069 300.06 27.9232 300.425 28.1559 300.683C28.3887 300.94 28.6969 301.069 29.0806 301.069ZM32.7799 302.06V297.248H33.9404V298.38H33.9687V302.06H32.7799ZM36.1576 302.06V299.022C36.1576 298.726 36.0821 298.503 35.9312 298.352C35.7802 298.201 35.5601 298.126 35.2707 298.126C35.0191 298.126 34.7927 298.182 34.5914 298.296C34.3964 298.409 34.2423 298.566 34.1291 298.767C34.0222 298.969 33.9687 299.201 33.9687 299.465L33.8461 298.314C34.0096 297.962 34.2486 297.682 34.5631 297.475C34.8776 297.261 35.255 297.154 35.6953 297.154C36.2174 297.154 36.6231 297.302 36.9124 297.597C37.208 297.893 37.3558 298.286 37.3558 298.777V302.06H36.1576ZM40.7175 302.154C40.2081 302.154 39.7615 302.047 39.3778 301.834C39.0004 301.62 38.7048 301.324 38.4909 300.947C38.2833 300.569 38.1796 300.135 38.1796 299.645C38.1796 299.154 38.2833 298.723 38.4909 298.352C38.7048 297.975 39.0004 297.682 39.3778 297.475C39.7552 297.261 40.1955 297.154 40.6987 297.154C41.1767 297.154 41.5918 297.255 41.9441 297.456C42.2963 297.651 42.5699 297.928 42.7649 298.286C42.9599 298.645 43.0574 299.063 43.0574 299.541C43.0574 299.629 43.0542 299.711 43.0479 299.786C43.0417 299.862 43.0322 299.937 43.0196 300.013H38.9155V299.182H42.1045L41.8592 299.409C41.8592 298.956 41.7554 298.616 41.5478 298.39C41.3402 298.163 41.0509 298.05 40.6798 298.05C40.2772 298.05 39.9565 298.189 39.7174 298.465C39.4847 298.742 39.3683 299.142 39.3683 299.664C39.3683 300.179 39.4847 300.576 39.7174 300.852C39.9565 301.123 40.293 301.258 40.727 301.258C40.9786 301.258 41.1987 301.211 41.3874 301.117C41.5761 301.022 41.7145 300.878 41.8025 300.683H42.9253C42.768 301.135 42.5007 301.494 42.1233 301.758C41.7522 302.022 41.2836 302.154 40.7175 302.154ZM47.4274 302.06V300.975L47.5217 300.994C47.4399 301.346 47.2418 301.629 46.9273 301.843C46.6128 302.051 46.2386 302.154 45.8046 302.154C45.3643 302.154 44.9806 302.054 44.6535 301.852C44.3327 301.645 44.0843 301.356 43.9081 300.984C43.732 300.613 43.644 300.176 43.644 299.673C43.644 299.164 43.7352 298.72 43.9176 298.343C44.1 297.965 44.3547 297.673 44.6818 297.465C45.0152 297.258 45.402 297.154 45.8423 297.154C46.2952 297.154 46.6694 297.264 46.965 297.484C47.2607 297.698 47.4431 297.997 47.5123 298.38L47.3896 298.39V295.267H48.5878V302.06H47.4274ZM46.1536 301.183C46.5373 301.183 46.8424 301.051 47.0688 300.786C47.3016 300.516 47.4179 300.138 47.4179 299.654C47.4179 299.17 47.3016 298.796 47.0688 298.531C46.8361 298.267 46.5279 298.135 46.1442 298.135C45.7668 298.135 45.4618 298.27 45.229 298.541C44.9963 298.805 44.8799 299.179 44.8799 299.664C44.8799 300.148 44.9963 300.522 45.229 300.786C45.4618 301.051 45.77 301.183 46.1536 301.183ZM54.4229 302.154C53.9637 302.154 53.5863 302.047 53.2907 301.834C53.0014 301.613 52.8221 301.312 52.7529 300.928L52.8378 300.918V302.06H51.6773V295.267H52.8661V298.333L52.7812 298.314C52.863 297.956 53.0548 297.673 53.3567 297.465C53.6649 297.258 54.0455 297.154 54.4984 297.154C54.9261 297.154 55.2972 297.258 55.6117 297.465C55.9325 297.667 56.1809 297.953 56.357 298.324C56.5331 298.695 56.6212 299.132 56.6212 299.635C56.6212 300.145 56.53 300.588 56.3476 300.966C56.1652 301.343 55.9104 301.635 55.5834 301.843C55.2563 302.051 54.8695 302.154 54.4229 302.154ZM54.121 301.173C54.5046 301.173 54.8097 301.041 55.0361 300.777C55.2626 300.506 55.3758 300.129 55.3758 299.645C55.3758 299.16 55.2594 298.786 55.0267 298.522C54.8003 298.258 54.4952 298.126 54.1115 298.126C53.7341 298.126 53.4291 298.261 53.1963 298.531C52.9636 298.796 52.8473 299.17 52.8473 299.654C52.8473 300.138 52.9636 300.513 53.1963 300.777C53.4291 301.041 53.7373 301.173 54.121 301.173ZM57.7102 303.994L58.9556 301.201L59.1726 300.843L60.5312 297.248H61.7955L58.9179 303.994H57.7102ZM58.7763 302.013L56.8233 297.248H58.1159L59.7481 301.569L58.7763 302.013ZM64.2438 302.06V295.267H65.4703V302.06H64.2438ZM64.8287 299.333V298.362H68.6499V299.333H64.8287ZM64.8287 296.239V295.267H68.8763V296.239H64.8287ZM69.8929 302.06V297.248H71.0534V298.409H71.0817V302.06H69.8929ZM71.0817 299.55L70.9591 298.409C71.0723 298 71.2641 297.689 71.5346 297.475C71.8051 297.261 72.129 297.154 72.5064 297.154C72.6385 297.154 72.7328 297.166 72.7894 297.192V298.314C72.758 298.302 72.7139 298.296 72.6573 298.296C72.6007 298.289 72.5315 298.286 72.4498 298.286C71.9906 298.286 71.6478 298.387 71.4214 298.588C71.1949 298.789 71.0817 299.11 71.0817 299.55ZM75.6284 302.154C75.119 302.154 74.6724 302.047 74.2887 301.834C73.9113 301.62 73.6157 301.324 73.4018 300.947C73.1942 300.569 73.0905 300.135 73.0905 299.645C73.0905 299.154 73.1942 298.723 73.4018 298.352C73.6157 297.975 73.9113 297.682 74.2887 297.475C74.6661 297.261 75.1064 297.154 75.6096 297.154C76.0876 297.154 76.5027 297.255 76.855 297.456C77.2072 297.651 77.4808 297.928 77.6758 298.286C77.8708 298.645 77.9683 299.063 77.9683 299.541C77.9683 299.629 77.9651 299.711 77.9589 299.786C77.9526 299.862 77.9431 299.937 77.9306 300.013H73.8264V299.182H77.0154L76.7701 299.409C76.7701 298.956 76.6663 298.616 76.4587 298.39C76.2511 298.163 75.9618 298.05 75.5907 298.05C75.1881 298.05 74.8674 298.189 74.6283 298.465C74.3956 298.742 74.2793 299.142 74.2793 299.664C74.2793 300.179 74.3956 300.576 74.6283 300.852C74.8674 301.123 75.2039 301.258 75.6379 301.258C75.8895 301.258 76.1096 301.211 76.2983 301.117C76.487 301.022 76.6254 300.878 76.7135 300.683H77.8362C77.679 301.135 77.4116 301.494 77.0342 301.758C76.6631 302.022 76.1945 302.154 75.6284 302.154ZM81.083 302.154C80.5735 302.154 80.1269 302.047 79.7432 301.834C79.3658 301.62 79.0702 301.324 78.8563 300.947C78.6488 300.569 78.545 300.135 78.545 299.645C78.545 299.154 78.6488 298.723 78.8563 298.352C79.0702 297.975 79.3658 297.682 79.7432 297.475C80.1206 297.261 80.5609 297.154 81.0641 297.154C81.5421 297.154 81.9573 297.255 82.3095 297.456C82.6617 297.651 82.9354 297.928 83.1303 298.286C83.3253 298.645 83.4228 299.063 83.4228 299.541C83.4228 299.629 83.4197 299.711 83.4134 299.786C83.4071 299.862 83.3977 299.937 83.3851 300.013H79.2809V299.182H82.4699L82.2246 299.409C82.2246 298.956 82.1208 298.616 81.9132 298.39C81.7057 298.163 81.4163 298.05 81.0452 298.05C80.6427 298.05 80.3219 298.189 80.0829 298.465C79.8502 298.742 79.7338 299.142 79.7338 299.664C79.7338 300.179 79.8502 300.576 80.0829 300.852C80.3219 301.123 80.6584 301.258 81.0924 301.258C81.344 301.258 81.5642 301.211 81.7529 301.117C81.9416 301.022 82.0799 300.878 82.168 300.683H83.2907C83.1335 301.135 82.8662 301.494 82.4888 301.758C82.1177 302.022 81.6491 302.154 81.083 302.154ZM87.058 302.154C86.5988 302.154 86.2246 302.047 85.9352 301.834C85.6522 301.613 85.4761 301.312 85.4069 300.928L85.5012 300.918V303.994H84.3124V297.248H85.4729V298.333L85.3786 298.314C85.4666 297.956 85.6679 297.673 85.9824 297.465C86.2969 297.258 86.6806 297.154 87.1335 297.154C87.5612 297.154 87.9323 297.258 88.2468 297.465C88.5676 297.667 88.816 297.953 88.9921 298.324C89.1683 298.695 89.2563 299.132 89.2563 299.635C89.2563 300.145 89.1651 300.588 88.9827 300.966C88.8003 301.343 88.5456 301.635 88.2185 301.843C87.8914 302.051 87.5046 302.154 87.058 302.154ZM86.7561 301.173C87.1398 301.173 87.4448 301.041 87.6713 300.777C87.8977 300.506 88.0109 300.129 88.0109 299.645C88.0109 299.16 87.8945 298.786 87.6618 298.522C87.4354 298.258 87.1303 298.126 86.7466 298.126C86.3692 298.126 86.0642 298.261 85.8315 298.531C85.5987 298.796 85.4824 299.17 85.4824 299.654C85.4824 300.138 85.5987 300.513 85.8315 300.777C86.0642 301.041 86.3724 301.173 86.7561 301.173ZM90.1447 302.06V297.248H91.3335V302.06H90.1447ZM90.0881 296.456V295.144H91.3807V296.456H90.0881ZM92.5956 302.06V295.201H93.7844V302.06H92.5956ZM95.6997 302.06L93.5108 299.56L95.6336 297.248H97.0677L94.6147 299.777L94.6807 299.333L97.1621 302.06H95.6997ZM18.1072 314.06L16.6354 309.248H17.8808L18.7488 312.862H18.6639L19.73 309.248H20.815L21.9 312.862H21.8057L22.8718 309.248H23.9568L25.0418 312.862H24.9475L26.0231 309.248H27.1081L28.1837 312.862H28.0987L29.1649 309.248H30.2499L31.3255 312.862H31.2406L32.3067 309.248H33.3917L34.4767 312.862H34.3824L35.241 309.248H36.4581L34.9862 314.06H33.8729L32.7879 310.484H32.8822L31.7972 314.06H30.7311L29.6461 310.484H29.7404L28.646 314.06H27.5798L26.5043 310.484H26.5892L25.5042 314.06H24.438L23.353 310.484H23.4473L22.3623 314.06H21.2962L20.2112 310.484H20.3055L19.2205 314.06H18.1072ZM36.4742 314.06V312.701H37.8423V314.06H36.4742ZM38.8975 314.06V308.805C38.8975 308.276 39.0422 307.874 39.3315 307.597C39.6271 307.314 40.0674 307.173 40.6524 307.173C40.7845 307.173 40.8945 307.179 40.9826 307.191C41.0707 307.204 41.1556 307.223 41.2373 307.248V308.173C41.1933 308.154 41.1367 308.141 41.0675 308.135C40.9983 308.122 40.9197 308.116 40.8316 308.116C40.58 308.116 40.3913 308.179 40.2655 308.305C40.146 308.424 40.0863 308.6 40.0863 308.833V314.06H38.8975ZM38.0295 310.182V309.248H41.1336V310.182H38.0295ZM42.0121 314.06V309.248H43.1726V310.409H43.2009V314.06H42.0121ZM43.2009 311.55L43.0782 310.409C43.1915 310 43.3833 309.689 43.6538 309.475C43.9242 309.261 44.2482 309.154 44.6256 309.154C44.7577 309.154 44.852 309.166 44.9086 309.192V310.314C44.8772 310.302 44.8331 310.296 44.7765 310.296C44.7199 310.289 44.6507 310.286 44.569 310.286C44.1098 310.286 43.767 310.387 43.5406 310.588C43.3141 310.789 43.2009 311.11 43.2009 311.55ZM47.7476 314.154C47.2381 314.154 46.7916 314.047 46.4079 313.834C46.0305 313.62 45.7348 313.324 45.521 312.947C45.3134 312.569 45.2096 312.135 45.2096 311.645C45.2096 311.154 45.3134 310.723 45.521 310.352C45.7348 309.975 46.0305 309.682 46.4079 309.475C46.7853 309.261 47.2256 309.154 47.7288 309.154C48.2068 309.154 48.6219 309.255 48.9742 309.456C49.3264 309.651 49.6 309.928 49.795 310.286C49.99 310.645 50.0875 311.063 50.0875 311.541C50.0875 311.629 50.0843 311.711 50.078 311.786C50.0718 311.862 50.0623 311.937 50.0497 312.013H45.9456V311.182H49.1346L48.8892 311.409C48.8892 310.956 48.7855 310.616 48.5779 310.39C48.3703 310.163 48.081 310.05 47.7099 310.05C47.3073 310.05 46.9865 310.189 46.7475 310.465C46.5148 310.742 46.3984 311.142 46.3984 311.664C46.3984 312.179 46.5148 312.576 46.7475 312.852C46.9865 313.123 47.3231 313.258 47.7571 313.258C48.0087 313.258 48.2288 313.211 48.4175 313.117C48.6062 313.022 48.7446 312.878 48.8326 312.683H49.9554C49.7981 313.135 49.5308 313.494 49.1534 313.758C48.7823 314.022 48.3137 314.154 47.7476 314.154ZM53.2022 314.154C52.6927 314.154 52.2461 314.047 51.8624 313.834C51.485 313.62 51.1894 313.324 50.9755 312.947C50.768 312.569 50.6642 312.135 50.6642 311.645C50.6642 311.154 50.768 310.723 50.9755 310.352C51.1894 309.975 51.485 309.682 51.8624 309.475C52.2398 309.261 52.6801 309.154 53.1833 309.154C53.6613 309.154 54.0765 309.255 54.4287 309.456C54.7809 309.651 55.0545 309.928 55.2495 310.286C55.4445 310.645 55.542 311.063 55.542 311.541C55.542 311.629 55.5389 311.711 55.5326 311.786C55.5263 311.862 55.5169 311.937 55.5043 312.013H51.4001V311.182H54.5891L54.3438 311.409C54.3438 310.956 54.24 310.616 54.0324 310.39C53.8249 310.163 53.5355 310.05 53.1644 310.05C52.7619 310.05 52.4411 310.189 52.2021 310.465C51.9693 310.742 51.853 311.142 51.853 311.664C51.853 312.179 51.9693 312.576 52.2021 312.852C52.4411 313.123 52.7776 313.258 53.2116 313.258C53.4632 313.258 53.6833 313.211 53.872 313.117C54.0607 313.022 54.1991 312.878 54.2872 312.683H55.4099C55.2527 313.135 54.9854 313.494 54.608 313.758C54.2369 314.022 53.7683 314.154 53.2022 314.154ZM59.1772 314.154C58.718 314.154 58.3438 314.047 58.0544 313.834C57.7714 313.613 57.5953 313.312 57.5261 312.928L57.6204 312.918V315.994H56.4316V309.248H57.5921V310.333L57.4978 310.314C57.5858 309.956 57.7871 309.673 58.1016 309.465C58.4161 309.258 58.7998 309.154 59.2527 309.154C59.6804 309.154 60.0515 309.258 60.366 309.465C60.6868 309.667 60.9352 309.953 61.1113 310.324C61.2874 310.695 61.3755 311.132 61.3755 311.635C61.3755 312.145 61.2843 312.588 61.1019 312.966C60.9195 313.343 60.6647 313.635 60.3377 313.843C60.0106 314.051 59.6238 314.154 59.1772 314.154ZM58.8753 313.173C59.2589 313.173 59.564 313.041 59.7904 312.777C60.0169 312.506 60.1301 312.129 60.1301 311.645C60.1301 311.16 60.0137 310.786 59.781 310.522C59.5546 310.258 59.2495 310.126 58.8658 310.126C58.4884 310.126 58.1834 310.261 57.9506 310.531C57.7179 310.796 57.6015 311.17 57.6015 311.654C57.6015 312.138 57.7179 312.513 57.9506 312.777C58.1834 313.041 58.4916 313.173 58.8753 313.173ZM62.2639 314.06V309.248H63.4527V314.06H62.2639ZM62.2073 308.456V307.144H63.4999V308.456H62.2073ZM64.7148 314.06V307.201H65.9036V314.06H64.7148ZM67.8189 314.06L65.63 311.56L67.7528 309.248H69.1869L66.7339 311.777L66.7999 311.333L69.2813 314.06H67.8189ZM69.7543 314.06V312.701H71.1223V314.06H69.7543ZM74.088 314.154C73.6036 314.154 73.1759 314.047 72.8048 313.834C72.44 313.62 72.1507 313.324 71.9368 312.947C71.7293 312.563 71.6255 312.129 71.6255 311.645C71.6255 311.16 71.7293 310.733 71.9368 310.362C72.1507 309.984 72.44 309.689 72.8048 309.475C73.1759 309.261 73.6036 309.154 74.088 309.154C74.4842 309.154 74.8428 309.229 75.1636 309.38C75.4843 309.525 75.7485 309.733 75.9561 310.003C76.1636 310.267 76.2957 310.575 76.3523 310.928H75.2107C75.1415 310.67 75.0094 310.469 74.8145 310.324C74.6195 310.179 74.3836 310.107 74.1068 310.107C73.849 310.107 73.6257 310.17 73.437 310.296C73.2546 310.421 73.113 310.601 73.0124 310.833C72.9118 311.066 72.8614 311.337 72.8614 311.645C72.8614 311.959 72.9118 312.233 73.0124 312.466C73.113 312.698 73.2577 312.881 73.4464 313.013C73.6351 313.139 73.8552 313.201 74.1068 313.201C74.3836 313.201 74.6195 313.129 74.8145 312.984C75.0094 312.84 75.1415 312.639 75.2107 312.381H76.3523C76.2957 312.733 76.1605 313.044 75.9466 313.315C75.7391 313.579 75.4749 313.786 75.1541 313.937C74.8396 314.082 74.4842 314.154 74.088 314.154ZM79.3699 314.154C78.8604 314.154 78.4107 314.047 78.0207 313.834C77.637 313.62 77.3382 313.324 77.1244 312.947C76.9105 312.563 76.8036 312.126 76.8036 311.635C76.8036 311.145 76.9105 310.714 77.1244 310.343C77.3382 309.972 77.637 309.682 78.0207 309.475C78.4107 309.261 78.8604 309.154 79.3699 309.154C79.8857 309.154 80.3354 309.261 80.7191 309.475C81.1028 309.682 81.4015 309.972 81.6154 310.343C81.8292 310.714 81.9362 311.145 81.9362 311.635C81.9362 312.126 81.8261 312.563 81.606 312.947C81.3921 313.324 81.0933 313.62 80.7096 313.834C80.326 314.047 79.8794 314.154 79.3699 314.154ZM79.3699 313.201C79.6215 313.201 79.8479 313.139 80.0492 313.013C80.2505 312.881 80.4077 312.698 80.5209 312.466C80.6342 312.227 80.6908 311.947 80.6908 311.626C80.6908 311.154 80.565 310.783 80.3134 310.513C80.0681 310.242 79.7536 310.107 79.3699 310.107C78.9862 310.107 78.6686 310.242 78.417 310.513C78.1654 310.783 78.0396 311.154 78.0396 311.626C78.0396 311.947 78.0962 312.227 78.2094 312.466C78.3289 312.698 78.4862 312.881 78.6811 313.013C78.8824 313.139 79.112 313.201 79.3699 313.201ZM82.8106 314.06V309.248H83.9711V310.38H83.9994V314.06H82.8106ZM86.0468 314.06V310.956C86.0468 310.673 85.9744 310.465 85.8298 310.333C85.6914 310.195 85.4932 310.126 85.2354 310.126C85.0089 310.126 84.8014 310.179 84.6127 310.286C84.424 310.393 84.273 310.544 84.1598 310.739C84.0529 310.934 83.9994 311.16 83.9994 311.418L83.8767 310.314C84.0403 309.962 84.2761 309.682 84.5844 309.475C84.8926 309.261 85.2511 309.154 85.6599 309.154C86.1505 309.154 86.5374 309.295 86.8204 309.578C87.1035 309.855 87.245 310.214 87.245 310.654V314.06H86.0468ZM89.2829 314.06V310.956C89.2829 310.673 89.2137 310.465 89.0754 310.333C88.937 310.195 88.7388 310.126 88.481 310.126C88.2482 310.126 88.0375 310.179 87.8488 310.286C87.6601 310.393 87.5123 310.544 87.4054 310.739C87.2985 310.934 87.245 311.16 87.245 311.418L87.0374 310.314C87.1947 309.962 87.4337 309.682 87.7545 309.475C88.0753 309.261 88.4464 309.154 88.8678 309.154C89.371 309.154 89.7641 309.299 90.0472 309.588C90.3365 309.871 90.4812 310.248 90.4812 310.72V314.06H89.2829Z" fill="#2CB7A6"/>
</svg>
