<svg width="195" height="219" viewBox="0 0 195 219" fill="none" xmlns="http://www.w3.org/2000/svg">
<path d="M79.6006 27.2583C79.6006 27.2583 83.7093 22.4721 85.7487 22.6765C87.9674 22.9021 87.4668 24.9603 85.8682 25.7287C85.8682 25.7287 88.0346 24.9815 88.1765 26.6309C88.3185 28.2874 84.9045 28.5341 79.6006 27.2512V27.2583Z" fill="#69883A"/>
<path d="M73.0205 32.0585C73.0205 32.0585 79.6467 29.5421 81.4844 30.7615C83.479 32.0938 81.843 33.8066 79.8783 33.7432C79.8783 33.7432 82.3734 34.1168 81.574 35.7662C80.7747 37.4156 77.3757 35.9424 73.028 32.0585H73.0205Z" fill="#69883A"/>
<path d="M65.7731 39.3117C65.7731 39.3117 72.8624 35.8295 75.0438 36.9996C77.4193 38.2755 75.7908 40.3549 73.5945 40.4818C73.5945 40.4818 76.4183 40.6368 75.7161 42.5612C75.0214 44.4855 71.0621 43.1885 65.7656 39.3117H65.7731Z" fill="#69883A"/>
<path d="M59.4619 48.1088C59.4619 48.1088 68.4114 44.1685 71.0409 45.7263C73.9021 47.418 71.773 49.9062 69.0538 49.9556C69.0538 49.9556 72.5275 50.2939 71.5564 52.6271C70.5852 54.9673 65.7743 53.1628 59.4619 48.1088Z" fill="#69883A"/>
<path d="M54.165 59.7179C54.165 59.7179 64.6833 55.0868 67.7685 56.9125C71.1302 58.9073 68.6276 61.8185 65.4378 61.8819C65.4378 61.8819 69.5166 62.2766 68.3811 65.0257C67.2381 67.7747 61.5905 65.6601 54.1725 59.7179H54.165Z" fill="#69883A"/>
<path d="M73.3413 31.9103C73.3413 31.9103 75.1491 25.3901 73.6401 23.8253C71.9892 22.1195 70.398 23.8746 70.7117 25.7073C70.7117 25.7073 70.0095 23.4165 68.3735 24.3751C66.7375 25.3337 68.7172 28.3224 73.3488 31.9103H73.3413Z" fill="#69883A"/>
<path d="M65.631 39.2975C65.631 39.2975 68.4025 32.2205 66.901 30.3314C65.2575 28.2661 63.2853 30.0494 63.4198 32.1218C63.4198 32.1218 62.9044 29.4996 60.9695 30.3948C59.0347 31.29 60.8948 34.8285 65.6385 39.2975H65.631Z" fill="#69883A"/>
<path d="M59.2961 48.1369C59.2961 48.1369 61.1189 38.9735 58.8703 36.9646C56.42 34.7724 54.4031 37.3311 55.0231 39.8264C55.0231 39.8264 53.8129 36.732 51.654 38.2052C49.495 39.6713 52.5355 43.6186 59.2961 48.1369Z" fill="#69883A"/>
<path d="M54.1944 59.8167C54.1944 59.8167 54.0973 48.8628 51.027 47.0231C47.6728 45.0142 45.9621 48.3976 47.2769 51.1466C47.2769 51.1466 45.1478 47.8407 43.0038 49.9906C40.8673 52.1405 45.3196 56.0456 54.1944 59.8167Z" fill="#69883A"/>
<path d="M51.886 69.5722C51.8263 69.5158 51.7964 69.4383 51.8039 69.3537C53.4922 54.2692 61.082 43.4987 67.1554 37.1265C73.7293 30.2187 79.9969 26.8282 80.0641 26.793C80.1986 26.7225 80.3704 26.7648 80.4451 26.8917C80.5198 27.0186 80.475 27.1807 80.3405 27.2512C80.2808 27.2864 74.0804 30.6416 67.5588 37.4931C61.5526 43.8088 54.0375 54.4737 52.3641 69.4101C52.3492 69.5581 52.2073 69.6638 52.0579 69.6497C51.9906 69.6497 51.9309 69.6145 51.886 69.5722Z" fill="#69883A"/>
<path d="M141.955 75.3452C141.955 75.3452 136.704 71.6798 134.784 72.3636C132.692 73.1037 133.723 74.9787 135.478 75.3523C135.478 75.3523 133.185 75.1408 133.484 76.7761C133.79 78.4114 137.152 77.8405 141.948 75.3523L141.955 75.3452Z" fill="#69883A"/>
<path d="M149.606 78.4325C149.606 78.4325 142.516 77.5655 141.067 79.1797C139.491 80.9419 141.53 82.2107 143.42 81.682C143.42 81.682 141.104 82.6336 142.315 84.0433C143.525 85.4531 146.423 83.2186 149.606 78.4325Z" fill="#69883A"/>
<path d="M158.547 83.7404C158.547 83.7404 150.756 82.0487 148.955 83.6981C146.991 85.4955 149.12 87.1238 151.279 86.7291C151.279 86.7291 148.589 87.5467 149.777 89.2455C150.965 90.9443 154.446 88.7521 158.54 83.7474L158.547 83.7404Z" fill="#69883A"/>
<path d="M166.996 90.7538C166.996 90.7538 157.285 89.062 155.156 91.1837C152.833 93.5028 155.559 95.3989 158.204 94.8068C158.204 94.8068 154.932 95.9558 156.493 97.9858C158.054 100.016 162.23 97.14 166.996 90.7538Z" fill="#69883A"/>
<path d="M175.214 100.742C175.214 100.742 163.799 98.7542 161.304 101.25C158.577 103.977 161.775 106.205 164.882 105.507C164.882 105.507 161.035 106.853 162.873 109.243C164.711 111.632 169.611 108.249 175.214 100.742Z" fill="#69883A"/>
<path d="M149.255 78.362C149.255 78.362 145.766 72.4762 146.819 70.6083C147.962 68.5712 149.972 69.8893 150.159 71.7361C150.159 71.7361 150.233 69.3536 152.071 69.8893C153.909 70.425 152.788 73.7944 149.262 78.362H149.255Z" fill="#69883A"/>
<path d="M158.682 83.691C158.682 83.691 154.118 77.4951 155.074 75.31C156.112 72.9205 158.503 74.1822 158.921 76.2193C158.921 76.2193 158.727 73.5619 160.834 73.9707C162.94 74.3796 162.081 78.2423 158.682 83.691Z" fill="#69883A"/>
<path d="M167.168 90.7468C167.168 90.7468 162.97 82.3094 164.606 79.8282C166.391 77.1215 169.028 79.1234 169.096 81.6891C169.096 81.6891 169.439 78.4114 171.919 79.3207C174.4 80.23 172.502 84.7695 167.168 90.7468Z" fill="#69883A"/>
<path d="M175.214 100.848C175.214 100.848 172.391 90.2251 174.878 87.7157C177.59 84.9737 180.145 87.8496 179.607 90.8172C179.607 90.8172 180.787 87.1095 183.432 88.6884C186.076 90.2674 182.804 95.1029 175.214 100.848Z" fill="#69883A"/>
<path d="M180.032 109.743C180.077 109.673 180.085 109.595 180.055 109.511C174.407 95.3073 164.195 86.6796 156.628 81.9498C148.425 76.8183 141.455 75.0208 141.388 74.9997C141.239 74.9644 141.082 75.049 141.045 75.19C141.007 75.331 141.097 75.479 141.246 75.5142C141.314 75.5283 148.209 77.3117 156.344 82.4009C163.837 87.0954 173.944 95.6386 179.539 109.701C179.592 109.835 179.756 109.905 179.898 109.856C179.958 109.835 180.01 109.793 180.04 109.743H180.032Z" fill="#69883A"/>
<path d="M130.003 56.5672C129.801 56.3628 129.465 56.3135 129.211 56.4756C109.235 68.9308 70.0682 109.158 55.0827 128.817C42.4504 145.382 11.202 176.608 1.49805 186.202H3.20128C13.7419 175.763 43.7502 145.678 56.0912 129.487C71.0169 109.906 110.02 69.8331 129.898 57.4413C130.182 57.265 130.257 56.9055 130.07 56.6377C130.055 56.6095 130.033 56.5884 130.01 56.5672H130.003Z" fill="#2CB7A6"/>
<path d="M57.3094 172.224C57.3916 172.308 57.4289 172.421 57.414 172.541C57.3841 172.752 57.1749 172.901 56.9508 172.865C56.8612 172.851 47.9192 171.604 37.6251 171.864C28.1826 172.104 15.6324 173.69 9.50674 179.9C9.34986 180.055 9.09587 180.062 8.92405 179.921C8.7597 179.773 8.75223 179.533 8.90164 179.371C13.974 174.219 23.6331 171.434 37.6101 171.089C47.9715 170.828 56.9732 172.09 57.0629 172.104C57.16 172.118 57.2421 172.16 57.3019 172.224H57.3094Z" fill="#2CB7A6"/>
<path d="M51.7748 160.488C51.8794 160.594 51.9167 160.756 51.8495 160.897C51.7374 161.158 48.9435 167.382 41.3089 171.597C41.1146 171.703 40.8681 171.646 40.7486 171.456C40.6365 171.273 40.7038 171.033 40.898 170.927C48.2787 166.853 51.0651 160.657 51.095 160.594C51.1846 160.396 51.4237 160.305 51.6328 160.382C51.6926 160.403 51.7374 160.439 51.7748 160.481V160.488Z" fill="#2CB7A6"/>
<path d="M35.0932 128.091C35.123 128.141 35.1454 128.19 35.1529 128.247C38.3876 153.932 7.3857 181.606 7.07195 181.881C6.9076 182.029 6.64614 182.015 6.48926 181.86C6.33239 181.698 6.33986 181.458 6.51167 181.31C6.82543 181.035 37.5285 153.629 34.3387 128.331C34.3088 128.12 34.4731 127.929 34.6972 127.901C34.8616 127.88 35.011 127.958 35.0932 128.084V128.091Z" fill="#2CB7A6"/>
<path d="M10.2767 129.699C10.3664 129.79 10.4112 129.931 10.3738 130.058C9.18606 134.217 10.8071 138.7 13.7504 146.827C14.1613 147.962 14.5946 149.16 15.0503 150.436C18.7705 160.876 12.4581 176.616 12.1891 177.285C12.107 177.483 11.8679 177.581 11.6587 177.511C11.4496 177.433 11.345 177.208 11.4197 177.01C11.4869 176.848 17.8965 160.862 14.2734 150.69C13.8177 149.414 13.3844 148.216 12.9735 147.081C9.97791 138.806 8.32697 134.252 9.58198 129.861C9.64175 129.656 9.86586 129.53 10.0825 129.586C10.1572 129.607 10.2244 129.642 10.2767 129.699Z" fill="#2CB7A6"/>
<path d="M97.0971 123.129C97.1643 123.2 97.2017 123.291 97.2017 123.397C97.2017 123.609 97.0075 123.778 96.7834 123.771C96.4547 123.764 63.772 123.038 54.9346 130.411C54.7852 130.538 54.5685 130.538 54.4117 130.425C54.2548 130.312 54.21 130.108 54.2996 129.938C54.4042 129.748 64.7431 110.787 62.136 98.5783C62.0911 98.3668 62.2331 98.1624 62.4572 98.1201C62.6813 98.0778 62.8979 98.2117 62.9428 98.4232C64.3397 104.957 62.1136 113.289 59.992 119.118C58.4531 123.355 56.7499 126.929 55.7937 128.832C66.3642 122.319 95.5134 122.96 96.8058 122.995C96.9253 122.995 97.0299 123.045 97.1046 123.129H97.0971Z" fill="#2CB7A6"/>
<path d="M105.157 96.8725C105.217 96.9359 105.262 97.0205 105.262 97.1121C105.277 97.3236 105.105 97.5068 104.873 97.5209C96.3347 97.965 72.0113 110.589 71.7648 110.716C71.5706 110.822 71.324 110.752 71.2045 110.561C71.0925 110.378 71.1672 110.138 71.3689 110.033C72.3774 109.511 96.1031 97.1896 104.828 96.7385C104.955 96.7385 105.075 96.7808 105.157 96.8654V96.8725Z" fill="#2CB7A6"/>
<path d="M93.9669 57.5048C94.0043 57.5471 94.0342 57.5894 94.0566 57.6458C96.1557 63.6866 93.2647 74.2599 85.4582 89.0905C79.6687 100.087 73.192 109.455 73.1247 109.546C72.9977 109.722 72.7437 109.772 72.557 109.659C72.3702 109.546 72.3105 109.299 72.4374 109.123C72.6989 108.75 98.1354 71.8633 93.2722 57.8855C93.205 57.6811 93.317 57.4625 93.5337 57.3991C93.6905 57.3498 93.8624 57.3991 93.9669 57.5048Z" fill="#2CB7A6"/>
<path d="M54.3145 172.189C54.3145 172.189 64.4965 181.93 74.3499 180.246C84.2032 178.561 86.8029 170.73 92.9659 173.275C92.9659 173.275 76.6209 148.752 54.3145 172.189Z" fill="#2CB7A6"/>
<g style="mix-blend-mode:multiply" opacity="0.4">
<path d="M74.3497 180.246C80.961 179.118 84.3077 175.22 87.6544 173.549C83.6652 170.37 72.654 164.019 57.168 174.536C60.8807 177.299 67.6862 181.387 74.3497 180.246Z" fill="#2CB7A6"/>
</g>
<path d="M125.857 59.6615C125.857 59.6615 139.618 63.9824 147.589 58.2659C155.559 52.5493 154.103 44.4572 160.826 44.0766C160.826 44.0766 134.463 29.2248 125.857 59.6615Z" fill="#2CB7A6"/>
<g style="mix-blend-mode:multiply" opacity="0.4">
<path d="M147.58 58.2661C152.929 54.4315 154.035 49.5255 156.216 46.6003C151.136 45.4725 138.265 44.5279 129.524 60.5358C134.163 61.4098 142.194 62.1359 147.58 58.2661Z" fill="#2CB7A6"/>
</g>
<path d="M51.2293 160.96C51.2293 160.96 61.7177 159.572 64.9523 153.256C68.187 146.94 64.4443 141.971 68.7099 139.623C68.7099 139.623 46.3512 137.882 51.2293 160.96Z" fill="#2CB7A6"/>
<g style="mix-blend-mode:multiply" opacity="0.4">
<path d="M64.9523 153.263C67.1262 149.027 66.1551 145.389 66.5734 142.753C62.8606 143.578 54.1204 146.954 53.9336 160.41C57.2654 159.55 62.771 157.535 64.9598 153.263H64.9523Z" fill="#2CB7A6"/>
</g>
<path d="M9.3503 130.664C9.3503 130.664 2.63447 124.186 4.01649 117.962C5.3985 111.738 11.0087 110.124 9.32042 106.212C9.32042 106.212 26.3976 116.651 9.3503 130.671V130.664Z" fill="#2CB7A6"/>
<g style="mix-blend-mode:multiply" opacity="0.4">
<path d="M4.01644 117.963C4.94276 113.783 7.77402 111.682 9.02156 109.567C11.2029 112.098 15.4983 119.09 7.73667 128.853C5.84667 126.492 3.08265 122.171 4.01644 117.963Z" fill="#2CB7A6"/>
</g>
<path d="M34.6889 128.733C34.6889 128.733 29.3252 119.273 33.0828 112.626C36.8404 105.979 43.7803 105.895 43.235 100.925C43.235 100.925 58.9899 118.117 34.6889 128.733Z" fill="#2CB7A6"/>
<g style="mix-blend-mode:multiply" opacity="0.4">
<path d="M33.0834 112.634C35.6009 108.172 39.5527 106.67 41.7191 104.654C43.3103 108.214 45.7382 117.504 33.4943 126.174C32.172 122.904 30.5435 117.124 33.0834 112.634Z" fill="#2CB7A6"/>
</g>
<path d="M62.4942 99.8681C62.4942 99.8681 56.6673 92.8827 58.7142 86.9476C60.7611 81.0125 66.4086 79.9975 65.1984 76.0149C65.1984 76.0149 80.6844 87.8921 62.4942 99.861V99.8681Z" fill="#2CB7A6"/>
<g style="mix-blend-mode:multiply" opacity="0.4">
<path d="M58.7213 86.9547C60.0958 82.9721 63.0839 81.2029 64.5406 79.2715C66.3858 81.9571 69.7848 89.2033 61.1267 97.9438C59.5505 95.4555 57.3318 90.9655 58.7138 86.9547H58.7213Z" fill="#2CB7A6"/>
</g>
<path d="M93.6373 59.9294C93.6373 59.9294 85.7486 50.7801 88.3184 42.8642C90.8957 34.9484 98.366 33.4823 96.6702 28.2239C96.6702 28.2239 117.498 43.6608 93.6373 59.9294Z" fill="#2CB7A6"/>
<g style="mix-blend-mode:multiply" opacity="0.4">
<path d="M88.3263 42.8715C90.052 37.5567 93.9814 35.153 95.8714 32.552C98.3814 36.0764 103.065 45.6205 91.7851 57.4061C89.6336 54.1355 86.5857 48.2215 88.3263 42.8715Z" fill="#2CB7A6"/>
</g>
<path d="M95.7744 123.326C95.7744 123.326 104.291 130.784 111.821 129.367C119.343 127.95 120.845 121.839 125.79 123.742C125.79 123.742 111.529 104.873 95.7744 123.326Z" fill="#2CB7A6"/>
<g style="mix-blend-mode:multiply" opacity="0.4">
<path d="M111.821 129.368C116.871 128.416 119.209 125.35 121.697 124.018C118.402 121.593 109.46 116.778 98.1426 125.124C101.198 127.232 106.741 130.326 111.828 129.375L111.821 129.368Z" fill="#2CB7A6"/>
</g>
<path d="M104.298 97.3448C104.298 97.3448 112.149 99.6286 116.474 96.5483C120.807 93.468 119.776 89.14 123.541 88.9215C123.541 88.9215 108.332 81.0339 104.298 97.3448Z" fill="#2CB7A6"/>
<g style="mix-blend-mode:multiply" opacity="0.4">
<path d="M116.482 96.5483C119.388 94.483 119.881 91.8538 121.031 90.2819C118.148 89.6898 110.887 89.2176 106.39 97.803C109.019 98.2612 113.554 98.6277 116.482 96.5483Z" fill="#2CB7A6"/>
</g>
<path d="M82.0371 148.258C88.2151 151.599 102.782 151.099 107.399 145.488C109.939 142.401 109.139 136.896 104.612 136.029C99.316 135.014 95.0056 140.737 91.4273 143.444C89.5149 144.889 84.6443 149.929 82.0371 148.251" fill="#199D66"/>
<path d="M78.4883 147.018C78.4883 147.018 78.5779 147.074 78.7572 147.159C78.9365 147.243 79.2054 147.356 79.5565 147.469C79.9002 147.596 80.3409 147.701 80.8265 147.828C81.3345 147.92 81.8948 148.033 82.5148 148.089C83.1348 148.181 83.8221 148.167 84.5318 148.209C85.2489 148.174 86.0034 148.188 86.7804 148.096C87.1688 148.061 87.5647 148.019 87.9681 147.983C88.3641 147.913 88.7675 147.842 89.1709 147.786C89.9851 147.687 90.7994 147.469 91.6137 147.286C92.4354 147.138 93.2347 146.863 94.0266 146.651C94.8259 146.44 95.5953 146.179 96.3424 145.925C97.0894 145.671 97.8215 145.453 98.4864 145.178C99.1587 144.917 99.8011 144.677 100.399 144.466C101.004 144.262 101.519 144.008 102.005 143.825C102.483 143.634 102.901 143.465 103.252 143.331C103.947 143.063 104.351 142.915 104.351 142.915C104.351 142.915 103.999 143.148 103.372 143.536C103.058 143.726 102.67 143.958 102.229 144.226C101.781 144.48 101.295 144.811 100.713 145.079C100.145 145.368 99.5247 145.678 98.8599 145.989C98.2099 146.32 97.4853 146.609 96.7308 146.898C95.9763 147.187 95.2144 147.518 94.3926 147.737C93.5709 147.969 92.7641 148.265 91.905 148.434C91.0534 148.611 90.2092 148.822 89.3576 148.914C88.9318 148.977 88.506 149.027 88.0951 149.076C87.6693 149.097 87.2585 149.118 86.8476 149.139C86.0333 149.21 85.234 149.118 84.4795 149.097C83.7325 149.005 83.0228 148.935 82.3878 148.766C81.7453 148.646 81.1776 148.434 80.6771 148.265C80.184 148.061 79.7657 147.878 79.4445 147.687C79.1083 147.511 78.8767 147.335 78.7199 147.215C78.563 147.095 78.4883 147.025 78.4883 147.025V147.018Z" fill="#4BBA73"/>
<path d="M92.0537 155.829C94.9447 159.607 104.32 163.23 108.944 160.925C111.484 159.656 112.649 155.962 110.05 154.186C107.009 152.114 102.542 154.567 99.4568 155.314C97.8133 155.716 93.1967 157.584 92.0612 155.822" fill="#199D66"/>
<path d="M90.1862 154.081C90.1862 154.081 90.231 154.137 90.3132 154.243C90.4028 154.342 90.5373 154.49 90.724 154.659C90.9033 154.835 91.1499 155.018 91.4188 155.23C91.7101 155.42 92.0314 155.646 92.4123 155.85C92.7709 156.076 93.2117 156.252 93.6524 156.47C94.1156 156.64 94.5862 156.858 95.1091 157.006C95.3631 157.084 95.6321 157.168 95.8935 157.253C96.1699 157.316 96.4388 157.38 96.7152 157.45C97.2606 157.605 97.8433 157.69 98.411 157.795C98.9788 157.922 99.5615 157.965 100.129 158.042C100.697 158.127 101.265 158.162 101.81 158.204C102.355 158.247 102.886 158.303 103.394 158.31C103.902 158.324 104.38 158.352 104.821 158.374C105.261 158.409 105.672 158.388 106.031 158.402C106.389 158.409 106.711 158.416 106.972 158.423C107.495 158.444 107.794 158.458 107.794 158.458C107.794 158.458 107.502 158.507 106.987 158.585C106.725 158.62 106.412 158.663 106.053 158.712C105.695 158.754 105.284 158.832 104.835 158.839C104.387 158.867 103.902 158.895 103.386 158.916C102.871 158.952 102.325 158.937 101.765 158.916C101.205 158.895 100.615 158.902 100.032 158.818C99.4419 158.74 98.8443 158.712 98.2467 158.585C97.6565 158.465 97.0589 158.374 96.4911 158.197C96.1998 158.12 95.9234 158.042 95.6395 157.958C95.3631 157.859 95.0942 157.76 94.8327 157.662C94.2949 157.485 93.8168 157.21 93.3461 156.999C92.8979 156.738 92.4721 156.506 92.121 156.224C91.7475 155.97 91.4561 155.688 91.1872 155.448C90.9407 155.187 90.7315 154.955 90.5821 154.75C90.4252 154.553 90.3356 154.37 90.2684 154.257C90.2086 154.137 90.1787 154.074 90.1787 154.074L90.1862 154.081Z" fill="#4BBA73"/>
<path d="M117.759 38.79C121.404 33.024 121.128 19.2648 115.264 14.817C112.036 12.364 106.195 13.0266 105.194 17.2841C104.028 22.2605 110.012 26.4264 112.821 29.8521C114.315 31.6777 119.574 36.3581 117.751 38.79" fill="#199D66"/>
<path d="M116.377 42.1172C116.377 42.1172 116.437 42.0326 116.527 41.8635C116.616 41.6943 116.743 41.4476 116.87 41.1163C117.012 40.7921 117.132 40.3832 117.274 39.925C117.378 39.4528 117.513 38.9241 117.58 38.332C117.692 37.754 117.685 37.1055 117.737 36.4359C117.707 35.7592 117.737 35.0473 117.655 34.3072C117.625 33.9406 117.588 33.567 117.55 33.1864C117.483 32.8128 117.416 32.4322 117.363 32.0445C117.274 31.2762 117.057 30.5008 116.878 29.7325C116.736 28.9501 116.46 28.1958 116.243 27.4416C116.034 26.6874 115.765 25.9543 115.511 25.2494C115.257 24.5445 115.04 23.8467 114.756 23.2123C114.487 22.5709 114.256 21.9576 114.032 21.3937C113.822 20.8228 113.568 20.3223 113.382 19.8641C113.188 19.406 113.016 19.0112 112.881 18.6799C112.612 18.0174 112.463 17.6367 112.463 17.6367C112.463 17.6367 112.702 17.9751 113.105 18.5742C113.3 18.8773 113.546 19.2438 113.815 19.6668C114.076 20.0968 114.42 20.5549 114.689 21.1118C114.98 21.6545 115.302 22.2466 115.623 22.874C115.966 23.4943 116.258 24.1851 116.549 24.897C116.841 25.6089 117.184 26.3349 117.401 27.1174C117.632 27.8927 117.931 28.6611 118.096 29.4717C118.267 30.2752 118.477 31.0788 118.559 31.8894C118.618 32.2912 118.663 32.693 118.708 33.0877C118.723 33.4895 118.738 33.8772 118.753 34.2649C118.813 35.0402 118.701 35.7874 118.671 36.4993C118.559 37.2042 118.477 37.8738 118.282 38.473C118.14 39.0792 117.909 39.6079 117.722 40.0801C117.498 40.5383 117.296 40.933 117.087 41.2361C116.9 41.5463 116.699 41.7648 116.572 41.9128C116.445 42.0608 116.362 42.1313 116.362 42.1313L116.377 42.1172Z" fill="#4BBA73"/>
<path d="M125.946 29.4716C130.003 26.8072 133.999 18.0314 131.639 13.6259C130.339 11.2081 126.439 10.0451 124.52 12.4628C122.271 15.2965 124.796 19.5469 125.536 22.4792C125.931 24.037 127.836 28.4213 125.946 29.4716Z" fill="#199D66"/>
<path d="M124.063 31.1983C124.063 31.1983 124.131 31.1631 124.235 31.0785C124.34 30.9939 124.497 30.8741 124.684 30.6979C124.87 30.5357 125.072 30.3031 125.304 30.0494C125.513 29.7745 125.759 29.4784 125.983 29.126C126.23 28.7876 126.424 28.3788 126.663 27.97C126.85 27.533 127.089 27.0959 127.253 26.6025C127.343 26.3629 127.433 26.1161 127.53 25.8694C127.604 25.6157 127.672 25.3549 127.754 25.0941C127.933 24.5795 128.023 24.0367 128.15 23.501C128.299 22.9653 128.351 22.4155 128.441 21.8798C128.538 21.3441 128.591 20.8084 128.643 20.2938C128.695 19.7793 128.77 19.2788 128.785 18.7995C128.807 18.3202 128.844 17.869 128.882 17.4532C128.927 17.0373 128.912 16.6496 128.934 16.3113C128.949 15.9729 128.964 15.6698 128.971 15.4302C129.001 14.9367 129.024 14.6548 129.024 14.6548C129.024 14.6548 129.076 14.9297 129.143 15.4231C129.173 15.6698 129.218 15.9659 129.263 16.3042C129.3 16.6425 129.375 17.0302 129.382 17.4532C129.405 17.8761 129.427 18.3343 129.435 18.8206C129.465 19.307 129.435 19.8216 129.405 20.3502C129.375 20.8789 129.367 21.4287 129.27 21.9855C129.181 22.5424 129.136 23.1063 128.994 23.6632C128.859 24.22 128.747 24.7839 128.553 25.3126C128.471 25.5804 128.374 25.8483 128.284 26.1091C128.172 26.3629 128.06 26.6166 127.956 26.8704C127.761 27.3779 127.462 27.822 127.223 28.259C126.94 28.6749 126.686 29.0766 126.379 29.4009C126.103 29.7463 125.797 30.0212 125.543 30.2679C125.259 30.5005 125.012 30.6908 124.788 30.8247C124.571 30.9728 124.385 31.0574 124.258 31.1137C124.131 31.1701 124.063 31.1913 124.063 31.1913V31.1983Z" fill="#4BBA73"/>
<path d="M139.819 153.185C139.819 153.185 138.504 170.582 116.093 172.471C116.093 172.471 114.659 159.177 139.819 153.185Z" fill="#339159"/>
<path d="M140.858 121.24C140.858 121.24 141.762 132.018 132.357 138.15C132.357 138.15 129.802 124.948 140.858 121.24Z" fill="#339159"/>
<path d="M143.562 137.375C143.562 137.375 139.23 151.486 155.829 158.93C155.829 158.93 161.095 141.682 143.562 137.375Z" fill="#339159"/>
<path d="M135.629 109.095C135.629 109.095 139.409 117.215 156.538 121.212C156.538 121.212 151.735 104.936 135.629 109.095Z" fill="#339159"/>
<path d="M123.071 167.797C123.071 167.797 123.385 167.621 123.923 167.311C124.461 167.001 125.223 166.536 126.119 165.972C126.567 165.69 127.053 165.372 127.561 165.034C128.069 164.696 128.592 164.329 129.137 163.956C129.675 163.575 130.228 163.166 130.781 162.75C131.333 162.334 131.886 161.897 132.432 161.453C132.969 161.009 133.507 160.551 134.015 160.086C134.523 159.621 135.024 159.162 135.48 158.697C135.711 158.465 135.935 158.239 136.152 158.006C136.368 157.781 136.578 157.555 136.779 157.33C136.981 157.104 137.175 156.893 137.347 156.674C137.526 156.456 137.706 156.251 137.863 156.047C138.019 155.842 138.176 155.645 138.318 155.455C138.46 155.264 138.587 155.081 138.714 154.912C138.961 154.567 139.155 154.257 139.327 154.003C139.64 153.488 139.82 153.192 139.82 153.192C139.82 153.192 139.782 153.27 139.715 153.418C139.64 153.566 139.551 153.777 139.409 154.052C139.259 154.313 139.088 154.644 138.871 155.004C138.759 155.187 138.639 155.377 138.512 155.582C138.385 155.779 138.236 155.983 138.087 156.202C137.78 156.632 137.444 157.09 137.056 157.548C136.869 157.781 136.667 158.021 136.451 158.253C136.241 158.493 136.017 158.733 135.793 158.972C135.569 159.212 135.33 159.451 135.091 159.691C134.852 159.938 134.598 160.17 134.344 160.403C133.836 160.875 133.298 161.341 132.753 161.799C132.2 162.243 131.64 162.687 131.079 163.103C130.519 163.526 129.951 163.913 129.399 164.287C128.846 164.661 128.301 165.006 127.778 165.323C127.255 165.647 126.754 165.936 126.284 166.197C125.35 166.726 124.543 167.121 123.983 167.395C123.415 167.67 123.086 167.804 123.086 167.804L123.071 167.797Z" fill="#227744"/>
<path d="M140.858 121.24C140.858 121.24 140.53 121.839 140.022 122.727C139.768 123.171 139.469 123.686 139.155 124.236C138.998 124.511 138.834 124.8 138.669 125.089C138.505 125.378 138.333 125.674 138.176 125.97C137.84 126.555 137.526 127.154 137.235 127.718C137.093 128 136.951 128.275 136.824 128.528C136.697 128.789 136.585 129.036 136.473 129.269C136.361 129.494 136.279 129.713 136.197 129.903C136.115 130.093 136.047 130.255 135.995 130.396C135.89 130.671 135.823 130.833 135.823 130.833C135.823 130.833 135.846 130.664 135.898 130.375C135.92 130.227 135.958 130.051 136.017 129.854C136.077 129.656 136.122 129.424 136.212 129.184C136.294 128.944 136.376 128.676 136.488 128.409C136.6 128.141 136.712 127.845 136.847 127.556C136.989 127.267 137.116 126.964 137.272 126.668C137.429 126.372 137.579 126.061 137.751 125.765C137.915 125.469 138.087 125.173 138.266 124.884C138.438 124.595 138.617 124.313 138.789 124.045C138.961 123.771 139.14 123.517 139.304 123.277C139.469 123.037 139.633 122.805 139.79 122.6C140.403 121.769 140.858 121.254 140.858 121.254V121.24Z" fill="#227744"/>
<path d="M151.451 152.093C151.451 152.093 151.384 151.839 151.272 151.388C151.159 150.937 150.973 150.302 150.741 149.541C150.51 148.78 150.226 147.899 149.89 146.961C149.725 146.496 149.531 146.017 149.344 145.53C149.15 145.044 148.941 144.557 148.717 144.078C148.493 143.599 148.268 143.12 148.014 142.661C147.768 142.203 147.514 141.752 147.245 141.329C146.976 140.906 146.707 140.511 146.431 140.138C146.154 139.771 145.878 139.44 145.609 139.137C145.333 138.841 145.079 138.573 144.832 138.355C144.593 138.122 144.361 137.953 144.175 137.805C143.988 137.657 143.824 137.558 143.719 137.48C143.614 137.41 143.555 137.368 143.555 137.368C143.555 137.368 143.614 137.403 143.734 137.459C143.846 137.523 144.025 137.6 144.227 137.734C144.429 137.868 144.683 138.016 144.944 138.228C145.221 138.425 145.504 138.679 145.803 138.961C145.945 139.109 146.11 139.257 146.259 139.419C146.408 139.588 146.565 139.757 146.715 139.933C147.013 140.3 147.32 140.688 147.596 141.118C147.88 141.541 148.164 141.985 148.418 142.457C148.679 142.922 148.918 143.409 149.15 143.895C149.374 144.388 149.583 144.882 149.77 145.375C149.964 145.869 150.129 146.355 150.285 146.834C150.442 147.314 150.569 147.779 150.696 148.216C150.816 148.66 150.92 149.076 151.003 149.47C151.182 150.253 151.279 150.908 151.354 151.367C151.421 151.825 151.443 152.093 151.443 152.093H151.451Z" fill="#227744"/>
<path d="M145.967 114.064C145.967 114.064 145.429 113.578 144.555 112.944C144.339 112.782 144.092 112.619 143.838 112.443C143.577 112.274 143.308 112.098 143.016 111.922C142.725 111.752 142.426 111.569 142.113 111.407C141.956 111.322 141.799 111.238 141.642 111.153C141.478 111.076 141.321 110.998 141.156 110.921C140.835 110.751 140.499 110.618 140.178 110.477C139.856 110.329 139.52 110.216 139.207 110.096C139.124 110.068 139.05 110.033 138.968 110.004C138.885 109.976 138.811 109.955 138.728 109.927C138.572 109.877 138.422 109.828 138.273 109.779C137.974 109.673 137.69 109.603 137.421 109.532C137.152 109.469 136.913 109.384 136.697 109.342C136.48 109.292 136.286 109.25 136.129 109.222C135.815 109.151 135.636 109.109 135.636 109.109C135.636 109.109 135.822 109.109 136.144 109.137C136.308 109.151 136.502 109.166 136.734 109.18C136.958 109.194 137.212 109.243 137.488 109.285C137.63 109.306 137.772 109.335 137.922 109.356C138.071 109.377 138.22 109.426 138.377 109.462C138.684 109.546 139.027 109.603 139.348 109.722C139.513 109.779 139.685 109.835 139.856 109.892C139.939 109.92 140.028 109.948 140.118 109.976C140.2 110.011 140.282 110.047 140.372 110.082C140.708 110.223 141.059 110.357 141.388 110.526C141.552 110.611 141.717 110.695 141.888 110.773C142.045 110.864 142.21 110.956 142.367 111.041C142.688 111.21 142.979 111.421 143.27 111.604C143.562 111.795 143.823 111.999 144.07 112.189C144.316 112.387 144.548 112.57 144.742 112.76C144.951 112.937 145.123 113.12 145.28 113.275C145.437 113.43 145.564 113.578 145.668 113.691C145.878 113.931 145.982 114.079 145.982 114.079L145.967 114.064Z" fill="#227744"/>
<g style="mix-blend-mode:overlay" opacity="0.4">
<path d="M116.102 171.491C116.057 172.111 116.095 172.471 116.095 172.471C138.506 170.574 139.82 153.185 139.82 153.185C139.708 153.213 139.596 153.241 139.484 153.27C138.782 157.034 135.017 169.806 116.11 171.491H116.102Z" fill="white"/>
</g>
<g style="mix-blend-mode:overlay" opacity="0.4">
<path d="M132.252 137.459C132.304 137.896 132.357 138.15 132.357 138.15C141.754 132.018 140.858 121.24 140.858 121.24C140.791 121.261 140.716 121.289 140.649 121.318C140.664 123.756 140.118 132.243 132.252 137.466V137.459Z" fill="white"/>
</g>
<g style="mix-blend-mode:overlay" opacity="0.4">
<path d="M155.321 158.683C155.492 158.761 155.664 158.845 155.836 158.923C155.836 158.923 161.103 141.674 143.57 137.368C143.57 137.368 143.532 137.495 143.473 137.727C158.697 141.808 155.993 155.955 155.321 158.676V158.683Z" fill="white"/>
</g>
<g style="mix-blend-mode:overlay" opacity="0.4">
<path d="M155.447 120.944C155.806 121.036 156.172 121.127 156.545 121.212C156.545 121.212 153.34 110.364 143.397 108.644C152.175 110.843 155.253 120.288 155.455 120.944H155.447Z" fill="white"/>
</g>
<g style="mix-blend-mode:multiply" opacity="0.4">
<path d="M122.002 161.256C127.672 159.473 133.417 159.818 137.383 160.459C139.565 156.54 139.819 153.185 139.819 153.185C131.034 155.279 125.498 158.26 122.002 161.256Z" fill="#339159"/>
</g>
<g style="mix-blend-mode:multiply" opacity="0.4">
<path d="M140.858 121.24C136.062 122.847 133.829 126.245 132.835 129.579C135.786 126.209 139.147 123.559 140.88 122.283C140.888 121.621 140.858 121.24 140.858 121.24Z" fill="#339159"/>
</g>
<g style="mix-blend-mode:multiply" opacity="0.4">
<path d="M150.33 140.3C148.657 139.13 146.558 138.157 143.943 137.473C143.786 137.579 143.629 137.685 143.465 137.791C143.077 139.461 141.986 145.876 146.491 151.874C146.625 146.637 148.679 142.661 150.33 140.3Z" fill="#339159"/>
</g>
<g style="mix-blend-mode:multiply" opacity="0.4">
<path d="M135.629 109.095C135.629 109.095 136.428 110.801 138.938 113.042C142.875 111.393 147.26 111.322 149.837 111.477C146.603 109.003 142.001 107.445 135.629 109.095Z" fill="#339159"/>
</g>
<path d="M129.369 99.8189C129.369 99.8189 129.526 99.9881 129.81 100.319C130.094 100.651 130.505 101.13 130.998 101.771C131.491 102.406 132.081 103.188 132.731 104.105C133.059 104.563 133.388 105.056 133.747 105.571C134.09 106.099 134.456 106.649 134.815 107.234C135.555 108.397 136.294 109.694 137.041 111.076C137.773 112.472 138.528 113.952 139.2 115.524C139.372 115.918 139.551 116.313 139.716 116.715C139.88 117.117 140.037 117.526 140.201 117.934C140.283 118.139 140.365 118.343 140.448 118.548C140.522 118.759 140.597 118.963 140.672 119.175C140.821 119.598 140.971 120.014 141.12 120.444C141.262 120.867 141.389 121.304 141.523 121.734C141.65 122.164 141.8 122.594 141.912 123.038C142.143 123.912 142.405 124.793 142.584 125.681L142.875 127.013C142.95 127.464 143.032 127.908 143.107 128.352C143.279 129.241 143.376 130.143 143.488 131.031C143.518 131.257 143.54 131.475 143.57 131.694C143.585 131.919 143.6 132.138 143.623 132.356C143.652 132.8 143.682 133.237 143.712 133.674C143.75 134.111 143.742 134.548 143.75 134.978C143.75 135.408 143.764 135.838 143.764 136.268C143.764 136.691 143.735 137.114 143.72 137.537C143.697 137.953 143.682 138.369 143.66 138.778C143.593 139.595 143.488 140.392 143.413 141.167C143.376 141.555 143.294 141.936 143.234 142.309C143.167 142.683 143.107 143.049 143.047 143.416C143.017 143.599 142.988 143.775 142.95 143.951C142.905 144.128 142.868 144.304 142.823 144.473C142.741 144.818 142.659 145.157 142.577 145.488C142.495 145.819 142.412 146.144 142.338 146.461C142.241 146.771 142.143 147.074 142.046 147.377C141.852 147.969 141.68 148.533 141.501 149.055C141.299 149.569 141.105 150.056 140.926 150.5C140.836 150.725 140.754 150.937 140.672 151.141C140.634 151.24 140.59 151.346 140.552 151.437C140.507 151.536 140.463 151.628 140.418 151.712C140.074 152.431 139.798 152.995 139.611 153.376C139.424 153.756 139.32 153.961 139.32 153.961C139.32 153.961 139.402 153.749 139.559 153.355C139.716 152.96 139.94 152.375 140.238 151.642C140.276 151.55 140.313 151.458 140.351 151.36C140.38 151.261 140.418 151.162 140.448 151.057C140.515 150.852 140.59 150.634 140.664 150.408C140.814 149.957 140.978 149.471 141.15 148.942C141.299 148.413 141.434 147.842 141.591 147.25C141.665 146.954 141.747 146.651 141.83 146.334C141.889 146.017 141.957 145.693 142.024 145.361C142.091 145.03 142.158 144.692 142.226 144.353C142.263 144.184 142.293 144.008 142.33 143.832C142.36 143.655 142.375 143.479 142.405 143.296C142.495 142.577 142.622 141.837 142.696 141.076C142.748 140.307 142.823 139.525 142.868 138.721C142.868 137.918 142.913 137.093 142.913 136.254C142.898 135.838 142.883 135.415 142.868 134.985C142.846 134.562 142.853 134.132 142.808 133.703C142.771 133.273 142.734 132.843 142.696 132.406C142.681 132.187 142.659 131.969 142.644 131.75C142.614 131.531 142.584 131.313 142.562 131.094C142.45 130.22 142.345 129.339 142.173 128.465C142.091 128.028 142.016 127.584 141.934 127.147L141.643 125.836C141.471 124.955 141.217 124.095 140.993 123.228C140.888 122.791 140.746 122.368 140.619 121.945C140.485 121.522 140.365 121.092 140.224 120.669C139.648 118.992 139.081 117.342 138.408 115.784C137.766 114.22 137.071 112.732 136.391 111.33C136.033 110.639 135.704 109.955 135.353 109.314C135.181 108.989 135.009 108.672 134.845 108.355C134.673 108.045 134.501 107.742 134.337 107.446C133.665 106.262 133.022 105.183 132.432 104.239C131.842 103.294 131.304 102.483 130.848 101.828C130.385 101.172 130.027 100.651 129.773 100.305C129.519 99.9599 129.377 99.7766 129.377 99.7766L129.369 99.8189Z" fill="#339159"/>
<path d="M21.9814 48.0307C21.9814 48.0307 23.3933 30.6413 45.8118 28.8579C45.8118 28.8579 47.1789 42.159 21.9814 48.0307Z" fill="#339159"/>
<path d="M20.7714 79.9762C20.7714 79.9762 19.9273 69.1915 29.3623 63.1013C29.3623 63.1013 31.8499 76.3178 20.7714 79.9762Z" fill="#339159"/>
<path d="M18.1506 63.8272C18.1506 63.8272 22.5655 49.7296 5.99633 42.2156C5.99633 42.2156 0.632637 59.4358 18.1506 63.8272Z" fill="#339159"/>
<path d="M25.9337 92.1423C25.9337 92.1423 22.1985 84.008 5.08398 79.9268C5.08398 79.9268 9.79776 96.2236 25.9337 92.1423Z" fill="#339159"/>
<path d="M38.8069 33.5032C38.8069 33.5032 38.4932 33.6723 37.9553 33.9825C37.41 34.2926 36.648 34.7508 35.7516 35.3147C35.3033 35.5967 34.8178 35.9068 34.3098 36.2452C33.8018 36.5765 33.2714 36.943 32.7261 37.3166C32.1807 37.6972 31.6279 38.099 31.0751 38.5149C30.5149 38.9308 29.9695 39.3678 29.4167 39.8048C28.8714 40.2489 28.3335 40.7 27.8255 41.1652C27.3176 41.6305 26.8096 42.0816 26.3539 42.5468C26.1223 42.7724 25.8982 43.005 25.6816 43.2376C25.4649 43.4631 25.2483 43.6887 25.054 43.9143C24.8523 44.1328 24.6581 44.3513 24.4788 44.5698C24.2995 44.7883 24.1128 44.9857 23.9634 45.1971C23.8065 45.4016 23.6496 45.5989 23.5002 45.7822C23.3583 45.9725 23.2238 46.1558 23.1043 46.325C22.8503 46.6633 22.6635 46.9805 22.4917 47.2272C22.1705 47.7418 21.9912 48.0378 21.9912 48.0378C21.9912 48.0378 22.0286 47.9603 22.0958 47.8123C22.1705 47.6642 22.2676 47.4528 22.4021 47.1779C22.5515 46.9171 22.7233 46.5858 22.9474 46.2263C23.0595 46.043 23.179 45.8527 23.306 45.6553C23.4405 45.458 23.5824 45.2535 23.7318 45.035C24.0381 44.6121 24.3817 44.1539 24.7702 43.6887C24.9569 43.4561 25.1661 43.2164 25.3753 42.9838C25.5844 42.7442 25.8085 42.5045 26.0401 42.2719C26.2642 42.0322 26.5033 41.7926 26.7498 41.5529C26.9889 41.3133 27.2429 41.0806 27.5043 40.841C28.0198 40.3687 28.5576 39.9105 29.103 39.4594C29.6558 39.0153 30.216 38.5783 30.7838 38.1695C31.3441 37.7536 31.9193 37.3659 32.4721 36.9923C33.0249 36.6187 33.5777 36.2804 34.1006 35.9632C34.6235 35.646 35.1315 35.357 35.6022 35.0962C36.5359 34.5746 37.3502 34.1799 37.9105 33.912C38.4782 33.6442 38.8069 33.5102 38.8069 33.5102V33.5032Z" fill="#227744"/>
<path d="M20.7725 79.9761C20.7725 79.9761 21.1012 79.377 21.6166 78.4959C21.8706 78.0518 22.1694 77.5372 22.4906 76.9874C22.6475 76.7125 22.8119 76.4306 22.9837 76.1345C23.1555 75.8455 23.3198 75.5495 23.4842 75.2534C23.8204 74.6684 24.1416 74.0692 24.4404 73.5124C24.5823 73.2304 24.7243 72.9555 24.8587 72.7018C24.9857 72.4409 25.1053 72.1942 25.2098 71.9687C25.3219 71.7431 25.4041 71.5246 25.4937 71.3413C25.5834 71.151 25.6431 70.9889 25.6954 70.8479C25.8075 70.573 25.8672 70.4109 25.8672 70.4109C25.8672 70.4109 25.8448 70.5801 25.7851 70.8691C25.7626 71.0171 25.7253 71.1933 25.6655 71.3907C25.6058 71.588 25.5535 71.8207 25.4713 72.0603C25.3891 72.3 25.2995 72.5678 25.1874 72.8357C25.0754 73.1035 24.9633 73.3925 24.8214 73.6815C24.6794 73.9705 24.5524 74.2736 24.3881 74.5697C24.2312 74.8657 24.0743 75.1688 23.9025 75.4719C23.7307 75.768 23.5589 76.064 23.3871 76.353C23.2153 76.642 23.0285 76.9169 22.8567 77.1918C22.6849 77.4667 22.5056 77.7135 22.3338 77.9602C22.1619 78.1998 21.9976 78.4254 21.8482 78.6368C21.2356 79.4686 20.7725 79.9832 20.7725 79.9832V79.9761Z" fill="#227744"/>
<path d="M10.3444 49.0671C10.3444 49.0671 10.4116 49.3279 10.5237 49.7791C10.6357 50.2302 10.815 50.8646 11.0391 51.6329C11.2632 52.3942 11.5471 53.2823 11.8758 54.2128C12.0401 54.685 12.2269 55.1573 12.4137 55.6437C12.6079 56.13 12.8096 56.6164 13.0337 57.0957C13.2503 57.575 13.4819 58.0544 13.7284 58.5196C13.975 58.9778 14.2215 59.4289 14.4904 59.8518C14.7519 60.2747 15.0208 60.6765 15.2972 61.0431C15.5736 61.4096 15.85 61.7479 16.1115 62.044C16.3879 62.34 16.6344 62.6079 16.8884 62.8264C17.1274 63.059 17.359 63.2282 17.5458 63.3833C17.7325 63.5313 17.8969 63.63 17.994 63.7075C18.0986 63.785 18.1583 63.8203 18.1583 63.8203C18.1583 63.8203 18.0986 63.785 17.9791 63.7287C17.867 63.6652 17.6877 63.5877 17.486 63.4538C17.2843 63.3198 17.0303 63.1647 16.7689 62.9533C16.4925 62.7559 16.2086 62.5022 15.9098 62.2202C15.7678 62.0722 15.611 61.9242 15.4616 61.762C15.3122 61.5929 15.1627 61.4237 15.0133 61.2404C14.7145 60.8739 14.4157 60.4792 14.1318 60.0562C13.8554 59.6333 13.5716 59.1822 13.3176 58.717C13.0561 58.2517 12.8245 57.7654 12.593 57.279C12.3688 56.7856 12.1671 56.2922 11.9804 55.7988C11.7936 55.3053 11.6293 54.8119 11.4724 54.3326C11.3155 53.8533 11.1885 53.3881 11.069 52.944C10.9495 52.4999 10.8524 52.077 10.7702 51.6893C10.5984 50.9069 10.5013 50.2513 10.4266 49.7932C10.3593 49.335 10.3369 49.0671 10.3369 49.0671H10.3444Z" fill="#227744"/>
<path d="M15.6256 87.1235C15.6256 87.1235 16.1635 87.6099 17.0375 88.2513C17.2542 88.4135 17.5007 88.5756 17.7472 88.7518C18.0087 88.921 18.2776 89.0972 18.5689 89.2805C18.8603 89.4567 19.1591 89.6329 19.4729 89.8021C19.6297 89.8867 19.7866 89.9713 19.9435 90.0629C20.1078 90.1404 20.2647 90.218 20.4291 90.3025C20.7503 90.4717 21.0864 90.6056 21.4077 90.7537C21.7289 90.9017 22.0651 91.0145 22.3788 91.1414C22.461 91.1695 22.5357 91.2048 22.6179 91.233C22.7 91.2612 22.7747 91.2823 22.8569 91.3105C23.0138 91.3599 23.1632 91.4092 23.3126 91.4586C23.6114 91.5643 23.8953 91.6348 24.1568 91.7123C24.4257 91.7757 24.6647 91.8603 24.8814 91.9097C25.098 91.959 25.2922 92.0013 25.4491 92.0366C25.7629 92.1141 25.9422 92.1564 25.9422 92.1564C25.9422 92.1564 25.7554 92.1493 25.4342 92.1282C25.2698 92.1141 25.0756 92.1 24.844 92.0859C24.6199 92.0718 24.3659 92.0154 24.0895 91.9731C23.9476 91.952 23.8056 91.9238 23.6562 91.9026C23.5068 91.8815 23.3574 91.8321 23.2006 91.7969C22.8943 91.7123 22.5581 91.6489 22.2294 91.529C22.0651 91.4726 21.8932 91.4163 21.7214 91.3599C21.6393 91.3317 21.5496 91.3035 21.4674 91.2753C21.3853 91.24 21.3031 91.2048 21.2134 91.1696C20.8773 91.0286 20.5262 90.8946 20.1975 90.7184C20.0331 90.6338 19.8688 90.5493 19.7044 90.4647C19.5476 90.373 19.3832 90.2814 19.2263 90.1898C18.9051 90.0135 18.6138 89.8091 18.3224 89.6188C18.0386 89.4285 17.7771 89.2241 17.5231 89.0338C17.2766 88.8364 17.0525 88.6461 16.8508 88.4628C16.6491 88.2795 16.4698 88.1033 16.3129 87.9482C16.156 87.7932 16.029 87.6451 15.9244 87.5253C15.7153 87.2857 15.6182 87.1376 15.6182 87.1376L15.6256 87.1235Z" fill="#227744"/>
<g style="mix-blend-mode:overlay" opacity="0.4">
<path d="M45.7969 29.8377C45.8491 29.2174 45.8118 28.8579 45.8118 28.8579C23.3933 30.6413 21.9814 48.0307 21.9814 48.0307C22.0935 48.0025 22.2056 47.9743 22.3176 47.9461C23.0422 44.182 26.8745 31.4307 45.7894 29.8306L45.7969 29.8377Z" fill="white"/>
</g>
<g style="mix-blend-mode:overlay" opacity="0.4">
<path d="M29.4594 63.7921C29.4071 63.3551 29.3623 63.1013 29.3623 63.1013C19.9273 69.1915 20.7714 79.9762 20.7714 79.9762C20.8386 79.955 20.9133 79.9268 20.9806 79.9057C20.9806 77.4668 21.5707 68.98 29.4594 63.7992V63.7921Z" fill="white"/>
</g>
<g style="mix-blend-mode:overlay" opacity="0.4">
<path d="M6.51179 42.4552C6.33997 42.3707 6.16815 42.2931 5.99633 42.2156C5.99633 42.2156 0.632637 59.4358 18.1506 63.8272C18.1506 63.8272 18.1879 63.7003 18.2477 63.4677C3.04555 59.3089 5.82452 45.1831 6.51179 42.4623V42.4552Z" fill="white"/>
</g>
<g style="mix-blend-mode:overlay" opacity="0.4">
<path d="M6.18344 80.1946C5.82487 80.1029 5.45882 80.0113 5.09277 79.9197C5.09277 79.9197 8.23778 90.7889 18.1733 92.5511C9.40315 90.3096 6.38514 80.8501 6.18344 80.1946Z" fill="white"/>
</g>
<g style="mix-blend-mode:multiply" opacity="0.4">
<path d="M39.843 40.0447C34.1656 41.7998 28.4209 41.4333 24.4541 40.7637C22.2504 44.6757 21.9814 48.031 21.9814 48.031C30.774 45.9798 36.332 43.0263 39.843 40.0447Z" fill="#339159"/>
</g>
<g style="mix-blend-mode:multiply" opacity="0.4">
<path d="M20.773 79.9761C25.5765 78.3902 27.8325 74.9997 28.841 71.6797C25.8753 75.0349 22.4987 77.6712 20.7581 78.9329C20.7431 79.5955 20.773 79.9761 20.773 79.9761Z" fill="#339159"/>
</g>
<g style="mix-blend-mode:multiply" opacity="0.4">
<path d="M11.4043 60.8667C13.0702 62.0438 15.1619 63.0307 17.7765 63.7215C17.9334 63.6157 18.0902 63.517 18.2621 63.4043C18.658 61.7337 19.786 55.3263 15.3113 49.3066C15.1469 54.5439 13.0702 58.5053 11.4043 60.8596V60.8667Z" fill="#339159"/>
</g>
<g style="mix-blend-mode:multiply" opacity="0.4">
<path d="M25.9339 92.1423C25.9339 92.1423 25.1495 90.4295 22.6469 88.1809C18.6951 89.8162 14.3175 89.8585 11.7402 89.6894C14.9599 92.1846 19.5542 93.7565 25.9413 92.1423H25.9339Z" fill="#339159"/>
</g>
<path d="M32.1416 101.447C32.1416 101.447 31.9847 101.278 31.7083 100.946C31.4319 100.615 31.021 100.129 30.528 99.4943C30.0349 98.8529 29.4523 98.0704 28.8098 97.1541C28.4811 96.6959 28.1524 96.2025 27.8013 95.6809C27.4651 95.1522 27.0991 94.6024 26.7405 94.0103C26.0084 92.8402 25.2763 91.5432 24.5368 90.1546C23.8122 88.759 23.0651 87.2717 22.4003 85.6927C22.2359 85.298 22.0566 84.9033 21.8923 84.5015C21.7354 84.0997 21.5711 83.6909 21.4142 83.282C21.332 83.0776 21.2573 82.8732 21.1751 82.6617C21.1004 82.4503 21.0257 82.2459 20.951 82.0344C20.8016 81.6115 20.6597 81.1885 20.5103 80.7656C20.3683 80.3356 20.2413 79.9057 20.1143 79.4757C19.9873 79.0457 19.8379 78.6157 19.7334 78.1717C19.5092 77.2906 19.2553 76.4165 19.076 75.5213L18.7921 74.1891C18.7174 73.738 18.6427 73.2939 18.568 72.8498C18.4036 71.9617 18.3065 71.0594 18.2019 70.1713C18.1795 69.9457 18.1496 69.7272 18.1272 69.5087C18.1123 69.2831 18.0974 69.0646 18.0824 68.8461C18.0525 68.402 18.0301 67.965 18.0002 67.528C17.9629 67.0909 17.9778 66.6539 17.9704 66.2239C17.9704 65.7939 17.9704 65.364 17.9629 64.934C17.9629 64.5111 18.0002 64.0881 18.0152 63.6652C18.0376 63.2493 18.06 62.8334 18.0749 62.4246C18.1496 61.607 18.2542 60.8104 18.3364 60.0351C18.3738 59.6474 18.4634 59.2668 18.5232 58.8932C18.5904 58.5196 18.6576 58.153 18.7174 57.7865C18.7547 57.6032 18.7772 57.427 18.8145 57.2508C18.8593 57.0746 18.9042 56.8984 18.9415 56.7292C19.0237 56.3838 19.1133 56.0454 19.1955 55.7142C19.2777 55.3829 19.3598 55.0586 19.442 54.7414C19.5391 54.4313 19.6362 54.1282 19.7334 53.8321C19.9276 53.24 20.1069 52.6761 20.2936 52.1545C20.5028 51.6399 20.697 51.1606 20.8763 50.7095C20.966 50.4839 21.0556 50.2725 21.1378 50.0681C21.1751 49.9694 21.22 49.8636 21.2573 49.772C21.3021 49.6733 21.3469 49.5817 21.3918 49.4971C21.7354 48.7781 22.0193 48.2142 22.2135 47.8336C22.4003 47.453 22.5049 47.2485 22.5049 47.2485C22.5049 47.2485 22.4227 47.46 22.2583 47.8547C22.1015 48.2495 21.8699 48.8275 21.5636 49.5605C21.5262 49.6522 21.4814 49.7438 21.4515 49.8425C21.4217 49.9412 21.3843 50.0399 21.3469 50.1456C21.2797 50.35 21.205 50.5685 21.1303 50.7941C20.9809 51.2452 20.8166 51.7316 20.6373 52.2532C20.4804 52.7818 20.3459 53.3458 20.1816 53.9449C20.0994 54.241 20.0172 54.5441 19.9351 54.8542C19.8678 55.1714 19.8006 55.4956 19.7334 55.8199C19.6661 56.1512 19.5989 56.4895 19.5317 56.8279C19.4943 56.997 19.4644 57.1733 19.4271 57.3495C19.3972 57.5257 19.3748 57.7019 19.3524 57.8852C19.2627 58.6042 19.1283 59.3443 19.0536 60.1056C18.9938 60.8739 18.9191 61.6563 18.8668 62.4599C18.8593 63.2634 18.8145 64.0881 18.8145 64.9269C18.8294 65.3428 18.8369 65.7658 18.8519 66.1957C18.8668 66.6187 18.8593 67.0486 18.9042 67.4786C18.9415 67.9086 18.9714 68.3386 19.0087 68.7756C19.0237 68.9941 19.0386 69.2126 19.061 69.4311C19.0909 69.6496 19.1133 69.8682 19.1432 70.0867C19.2553 70.9607 19.3524 71.8418 19.5167 72.7159C19.5914 73.1529 19.6736 73.597 19.7483 74.034L20.0396 75.3451C20.2115 76.2262 20.458 77.0861 20.6746 77.9531C20.7792 78.3902 20.9211 78.8131 21.0407 79.2431C21.1677 79.666 21.2947 80.096 21.4291 80.5189C21.9969 82.1965 22.5571 83.8459 23.2145 85.4108C23.8495 86.9756 24.5368 88.47 25.2091 89.8727C25.5602 90.5705 25.8889 91.2472 26.24 91.8957C26.4118 92.2199 26.5762 92.5371 26.748 92.8543C26.9198 93.1645 27.0916 93.4676 27.256 93.7707C27.9208 94.9619 28.5633 96.0404 29.146 96.9849C29.7287 97.9295 30.2665 98.7401 30.7147 99.4027C31.1704 100.065 31.529 100.58 31.783 100.925C32.037 101.278 32.1789 101.454 32.1789 101.454L32.1416 101.447Z" fill="#339159"/>
<path d="M42.9675 79.3701C42.9675 80.4697 42.0187 81.3649 40.8534 81.3649C39.688 81.3649 38.7393 80.4697 38.7393 79.3701C38.7393 78.2704 39.688 77.3752 40.8534 77.3752C42.0187 77.3752 42.9675 78.2704 42.9675 79.3701Z" fill="white"/>
<path d="M123.526 143.162C123.526 144.261 122.577 145.157 121.412 145.157C120.247 145.157 119.298 144.261 119.298 143.162C119.298 142.062 120.247 141.167 121.412 141.167C122.577 141.167 123.526 142.062 123.526 143.162Z" fill="white"/>
<path d="M172.084 130.002C172.084 131.102 171.135 131.997 169.97 131.997C168.804 131.997 167.855 131.102 167.855 130.002C167.855 128.902 168.804 128.007 169.97 128.007C171.135 128.007 172.084 128.902 172.084 130.002Z" fill="white"/>
<path d="M154.402 172.062C154.402 173.162 153.453 174.057 152.288 174.057C151.123 174.057 150.174 173.162 150.174 172.062C150.174 170.962 151.123 170.067 152.288 170.067C153.453 170.067 154.402 170.962 154.402 172.062Z" fill="white"/>
<path d="M18.194 25.207C18.194 26.3066 17.2453 27.2018 16.0799 27.2018C14.9146 27.2018 13.9658 26.3066 13.9658 25.207C13.9658 24.1074 14.9146 23.2122 16.0799 23.2122C17.2453 23.2122 18.194 24.1074 18.194 25.207Z" fill="white"/>
<path d="M2.62739 67.6198C3.24625 67.6198 3.74794 67.1464 3.74794 66.5624C3.74794 65.9785 3.24625 65.5051 2.62739 65.5051C2.00852 65.5051 1.50684 65.9785 1.50684 66.5624C1.50684 67.1464 2.00852 67.6198 2.62739 67.6198Z" fill="#2CB7A6"/>
<path d="M22.5502 133.173C23.1691 133.173 23.6708 132.7 23.6708 132.116C23.6708 131.532 23.1691 131.059 22.5502 131.059C21.9314 131.059 21.4297 131.532 21.4297 132.116C21.4297 132.7 21.9314 133.173 22.5502 133.173Z" fill="#2CB7A6"/>
<path d="M103.476 176.876C104.095 176.876 104.597 176.403 104.597 175.819C104.597 175.235 104.095 174.762 103.476 174.762C102.857 174.762 102.355 175.235 102.355 175.819C102.355 176.403 102.857 176.876 103.476 176.876Z" fill="#2CB7A6"/>
<path d="M93.7651 114.847C94.3839 114.847 94.8856 114.373 94.8856 113.789C94.8856 113.205 94.3839 112.732 93.7651 112.732C93.1462 112.732 92.6445 113.205 92.6445 113.789C92.6445 114.373 93.1462 114.847 93.7651 114.847Z" fill="#2CB7A6"/>
<path d="M192.874 159.726C193.493 159.726 193.995 159.253 193.995 158.669C193.995 158.085 193.493 157.612 192.874 157.612C192.256 157.612 191.754 158.085 191.754 158.669C191.754 159.253 192.256 159.726 192.874 159.726Z" fill="#2CB7A6"/>
<path d="M141.576 95.5824C142.194 95.5824 142.696 95.109 142.696 94.5251C142.696 93.9412 142.194 93.4678 141.576 93.4678C140.957 93.4678 140.455 93.9412 140.455 94.5251C140.455 95.109 140.957 95.5824 141.576 95.5824Z" fill="#2CB7A6"/>
<path d="M80.8198 68.557C81.4386 68.557 81.9403 68.0836 81.9403 67.4997C81.9403 66.9158 81.4386 66.4424 80.8198 66.4424C80.2009 66.4424 79.6992 66.9158 79.6992 67.4997C79.6992 68.0836 80.2009 68.557 80.8198 68.557Z" fill="#2CB7A6"/>
<path d="M142.824 26.504C143.443 26.504 143.944 26.0307 143.944 25.4467C143.944 24.8628 143.443 24.3894 142.824 24.3894C142.205 24.3894 141.703 24.8628 141.703 25.4467C141.703 26.0307 142.205 26.504 142.824 26.504Z" fill="#2CB7A6"/>
<path d="M182.663 73.9635C183.281 73.9635 183.783 73.4901 183.783 72.9062C183.783 72.3223 183.281 71.8489 182.663 71.8489C182.044 71.8489 181.542 72.3223 181.542 72.9062C181.542 73.4901 182.044 73.9635 182.663 73.9635Z" fill="#2CB7A6"/>
<path d="M193.374 112.5C193.993 112.5 194.495 112.026 194.495 111.442C194.495 110.858 193.993 110.385 193.374 110.385C192.756 110.385 192.254 110.858 192.254 111.442C192.254 112.026 192.756 112.5 193.374 112.5Z" fill="#227744"/>
<path d="M116.43 75.4933C117.049 75.4933 117.551 75.0199 117.551 74.436C117.551 73.852 117.049 73.3787 116.43 73.3787C115.811 73.3787 115.31 73.852 115.31 74.436C115.31 75.0199 115.811 75.4933 116.43 75.4933Z" fill="#227744"/>
<path d="M110.828 55.0517C111.446 55.0517 111.948 54.5783 111.948 53.9943C111.948 53.4104 111.446 52.937 110.828 52.937C110.209 52.937 109.707 53.4104 109.707 53.9943C109.707 54.5783 110.209 55.0517 110.828 55.0517Z" fill="#227744"/>
<path d="M54.0522 19.6881C54.6711 19.6881 55.1727 19.2147 55.1727 18.6308C55.1727 18.0469 54.6711 17.5735 54.0522 17.5735C53.4333 17.5735 52.9316 18.0469 52.9316 18.6308C52.9316 19.2147 53.4333 19.6881 54.0522 19.6881Z" fill="#227744"/>
<path d="M94.6381 2.77089C95.257 2.77089 95.7587 2.29751 95.7587 1.71357C95.7587 1.12963 95.257 0.65625 94.6381 0.65625C94.0193 0.65625 93.5176 1.12963 93.5176 1.71357C93.5176 2.29751 94.0193 2.77089 94.6381 2.77089Z" fill="#227744"/>
<path d="M4.74774 163.603C4.74774 164.703 3.79901 165.598 2.63363 165.598C1.46826 165.598 0.519531 164.703 0.519531 163.603C0.519531 162.504 1.46826 161.609 2.63363 161.609C3.79901 161.609 4.74774 162.504 4.74774 163.603Z" fill="white"/>
<path opacity="0.65" d="M8.68419 200.144V198.896H10.9162C11.5722 198.896 12.1322 198.764 12.5962 198.5C13.0602 198.236 13.4122 197.868 13.6522 197.396C13.9002 196.924 14.0242 196.384 14.0242 195.776C14.0242 195.176 13.9002 194.648 13.6522 194.192C13.4122 193.736 13.0602 193.384 12.5962 193.136C12.1402 192.88 11.5802 192.752 10.9162 192.752H8.70819V191.504H10.9162C11.8602 191.504 12.6842 191.68 13.3882 192.032C14.0922 192.384 14.6362 192.884 15.0202 193.532C15.4122 194.172 15.6082 194.928 15.6082 195.8C15.6082 196.672 15.4122 197.436 15.0202 198.092C14.6282 198.74 14.0802 199.244 13.3762 199.604C12.6802 199.964 11.8642 200.144 10.9282 200.144H8.68419ZM7.73619 200.144V191.504H9.29619V200.144H7.73619ZM19.5676 200.264C18.9196 200.264 18.3516 200.128 17.8636 199.856C17.3836 199.584 17.0076 199.208 16.7356 198.728C16.4716 198.248 16.3396 197.696 16.3396 197.072C16.3396 196.448 16.4716 195.9 16.7356 195.428C17.0076 194.948 17.3836 194.576 17.8636 194.312C18.3436 194.04 18.9036 193.904 19.5436 193.904C20.1516 193.904 20.6796 194.032 21.1276 194.288C21.5756 194.536 21.9236 194.888 22.1716 195.344C22.4196 195.8 22.5436 196.332 22.5436 196.94C22.5436 197.052 22.5396 197.156 22.5316 197.252C22.5236 197.348 22.5116 197.444 22.4956 197.54H17.2756V196.484H21.3316L21.0196 196.772C21.0196 196.196 20.8876 195.764 20.6236 195.476C20.3596 195.188 19.9916 195.044 19.5196 195.044C19.0076 195.044 18.5996 195.22 18.2956 195.572C17.9996 195.924 17.8516 196.432 17.8516 197.096C17.8516 197.752 17.9996 198.256 18.2956 198.608C18.5996 198.952 19.0276 199.124 19.5796 199.124C19.8996 199.124 20.1796 199.064 20.4196 198.944C20.6596 198.824 20.8356 198.64 20.9476 198.392H22.3756C22.1756 198.968 21.8356 199.424 21.3556 199.76C20.8836 200.096 20.2876 200.264 19.5676 200.264ZM26.0503 200.264C25.2023 200.264 24.5263 200.088 24.0223 199.736C23.5183 199.376 23.2423 198.88 23.1943 198.248H24.5743C24.6143 198.56 24.7623 198.796 25.0183 198.956C25.2743 199.116 25.6183 199.196 26.0503 199.196C26.4423 199.196 26.7343 199.136 26.9263 199.016C27.1263 198.888 27.2263 198.708 27.2263 198.476C27.2263 198.308 27.1703 198.172 27.0583 198.068C26.9463 197.956 26.7343 197.864 26.4223 197.792L25.4383 197.564C24.7663 197.42 24.2663 197.196 23.9383 196.892C23.6183 196.58 23.4583 196.192 23.4583 195.728C23.4583 195.16 23.6743 194.716 24.1063 194.396C24.5463 194.068 25.1503 193.904 25.9183 193.904C26.6783 193.904 27.2863 194.068 27.7423 194.396C28.2063 194.716 28.4623 195.16 28.5103 195.728H27.1303C27.0903 195.48 26.9623 195.292 26.7463 195.164C26.5383 195.036 26.2503 194.972 25.8823 194.972C25.5383 194.972 25.2783 195.028 25.1023 195.14C24.9263 195.244 24.8383 195.4 24.8383 195.608C24.8383 195.768 24.9063 195.904 25.0423 196.016C25.1783 196.12 25.4063 196.212 25.7263 196.292L26.7823 196.532C27.3823 196.668 27.8343 196.904 28.1383 197.24C28.4503 197.576 28.6063 197.972 28.6063 198.428C28.6063 199.012 28.3823 199.464 27.9343 199.784C27.4863 200.104 26.8583 200.264 26.0503 200.264ZM29.6751 200.144V194.024H31.1871V200.144H29.6751ZM29.6031 193.016V191.348H31.2471V193.016H29.6031ZM35.4334 202.724C34.6254 202.724 33.9614 202.548 33.4414 202.196C32.9294 201.844 32.6254 201.368 32.5294 200.768H33.9694C34.0414 200.976 34.1974 201.136 34.4374 201.248C34.6854 201.368 35.0054 201.428 35.3974 201.428C35.9654 201.428 36.3854 201.3 36.6574 201.044C36.9294 200.796 37.0654 200.416 37.0654 199.904V198.584L37.1734 198.608C37.0774 199.056 36.8334 199.416 36.4414 199.688C36.0494 199.952 35.5694 200.084 35.0014 200.084C34.4574 200.084 33.9814 199.956 33.5734 199.7C33.1734 199.444 32.8614 199.088 32.6374 198.632C32.4134 198.168 32.3014 197.628 32.3014 197.012C32.3014 196.388 32.4174 195.844 32.6494 195.38C32.8814 194.916 33.2054 194.556 33.6214 194.3C34.0454 194.036 34.5374 193.904 35.0974 193.904C35.6734 193.904 36.1454 194.044 36.5134 194.324C36.8894 194.596 37.1214 194.976 37.2094 195.464L37.1134 195.476V194.024H38.5894V199.892C38.5894 200.764 38.3054 201.452 37.7374 201.956C37.1774 202.468 36.4094 202.724 35.4334 202.724ZM35.4934 198.884C35.9814 198.884 36.3694 198.72 36.6574 198.392C36.9534 198.056 37.1014 197.588 37.1014 196.988C37.1014 196.388 36.9534 195.924 36.6574 195.596C36.3614 195.268 35.9694 195.104 35.4814 195.104C35.0014 195.104 34.6134 195.272 34.3174 195.608C34.0214 195.936 33.8734 196.4 33.8734 197C33.8734 197.6 34.0214 198.064 34.3174 198.392C34.6134 198.72 35.0054 198.884 35.4934 198.884ZM40.1985 200.144V194.024H41.6745V195.464H41.7105V200.144H40.1985ZM44.4945 200.144V196.28C44.4945 195.904 44.3985 195.62 44.2065 195.428C44.0145 195.236 43.7345 195.14 43.3665 195.14C43.0465 195.14 42.7585 195.212 42.5025 195.356C42.2545 195.5 42.0585 195.7 41.9145 195.956C41.7785 196.212 41.7105 196.508 41.7105 196.844L41.5545 195.38C41.7625 194.932 42.0665 194.576 42.4665 194.312C42.8665 194.04 43.3465 193.904 43.9065 193.904C44.5705 193.904 45.0865 194.092 45.4545 194.468C45.8305 194.844 46.0185 195.344 46.0185 195.968V200.144H44.4945ZM50.2942 200.264C49.6462 200.264 49.0782 200.128 48.5902 199.856C48.1102 199.584 47.7342 199.208 47.4622 198.728C47.1982 198.248 47.0662 197.696 47.0662 197.072C47.0662 196.448 47.1982 195.9 47.4622 195.428C47.7342 194.948 48.1102 194.576 48.5902 194.312C49.0702 194.04 49.6302 193.904 50.2702 193.904C50.8782 193.904 51.4062 194.032 51.8542 194.288C52.3022 194.536 52.6502 194.888 52.8982 195.344C53.1462 195.8 53.2702 196.332 53.2702 196.94C53.2702 197.052 53.2662 197.156 53.2582 197.252C53.2502 197.348 53.2382 197.444 53.2222 197.54H48.0022V196.484H52.0582L51.7462 196.772C51.7462 196.196 51.6142 195.764 51.3502 195.476C51.0862 195.188 50.7182 195.044 50.2462 195.044C49.7342 195.044 49.3262 195.22 49.0222 195.572C48.7262 195.924 48.5782 196.432 48.5782 197.096C48.5782 197.752 48.7262 198.256 49.0222 198.608C49.3262 198.952 49.7542 199.124 50.3062 199.124C50.6262 199.124 50.9062 199.064 51.1462 198.944C51.3862 198.824 51.5622 198.64 51.6742 198.392H53.1022C52.9022 198.968 52.5622 199.424 52.0822 199.76C51.6102 200.096 51.0142 200.264 50.2942 200.264ZM58.8283 200.144V198.764L58.9483 198.788C58.8443 199.236 58.5923 199.596 58.1923 199.868C57.7923 200.132 57.3163 200.264 56.7643 200.264C56.2043 200.264 55.7163 200.136 55.3003 199.88C54.8923 199.616 54.5763 199.248 54.3523 198.776C54.1283 198.304 54.0163 197.748 54.0163 197.108C54.0163 196.46 54.1323 195.896 54.3643 195.416C54.5963 194.936 54.9203 194.564 55.3363 194.3C55.7603 194.036 56.2523 193.904 56.8123 193.904C57.3883 193.904 57.8643 194.044 58.2403 194.324C58.6163 194.596 58.8483 194.976 58.9363 195.464L58.7803 195.476V191.504H60.3043V200.144H58.8283ZM57.2083 199.028C57.6963 199.028 58.0843 198.86 58.3723 198.524C58.6683 198.18 58.8163 197.7 58.8163 197.084C58.8163 196.468 58.6683 195.992 58.3723 195.656C58.0763 195.32 57.6843 195.152 57.1963 195.152C56.7163 195.152 56.3283 195.324 56.0323 195.668C55.7363 196.004 55.5883 196.48 55.5883 197.096C55.5883 197.712 55.7363 198.188 56.0323 198.524C56.3283 198.86 56.7203 199.028 57.2083 199.028ZM67.7257 200.264C67.1417 200.264 66.6617 200.128 66.2857 199.856C65.9177 199.576 65.6897 199.192 65.6017 198.704L65.7097 198.692V200.144H64.2337V191.504H65.7457V195.404L65.6377 195.38C65.7417 194.924 65.9857 194.564 66.3697 194.3C66.7617 194.036 67.2457 193.904 67.8217 193.904C68.3657 193.904 68.8377 194.036 69.2377 194.3C69.6457 194.556 69.9617 194.92 70.1857 195.392C70.4097 195.864 70.5217 196.42 70.5217 197.06C70.5217 197.708 70.4057 198.272 70.1737 198.752C69.9417 199.232 69.6177 199.604 69.2017 199.868C68.7857 200.132 68.2937 200.264 67.7257 200.264ZM67.3417 199.016C67.8297 199.016 68.2177 198.848 68.5057 198.512C68.7937 198.168 68.9377 197.688 68.9377 197.072C68.9377 196.456 68.7897 195.98 68.4937 195.644C68.2057 195.308 67.8177 195.14 67.3297 195.14C66.8497 195.14 66.4617 195.312 66.1657 195.656C65.8697 195.992 65.7217 196.468 65.7217 197.084C65.7217 197.7 65.8697 198.176 66.1657 198.512C66.4617 198.848 66.8537 199.016 67.3417 199.016ZM71.9068 202.604L73.4908 199.052L73.7668 198.596L75.4948 194.024H77.1028L73.4428 202.604H71.9068ZM73.2628 200.084L70.7788 194.024H72.4228L74.4988 199.52L73.2628 200.084ZM80.2167 200.144V191.504H81.7767V200.144H80.2167ZM80.9607 196.676V195.44H85.8207V196.676H80.9607ZM80.9607 192.74V191.504H86.1087V192.74H80.9607ZM87.4017 200.144V194.024H88.8777V195.5H88.9137V200.144H87.4017ZM88.9137 196.952L88.7577 195.5C88.9017 194.98 89.1457 194.584 89.4897 194.312C89.8337 194.04 90.2457 193.904 90.7257 193.904C90.8937 193.904 91.0137 193.92 91.0857 193.952V195.38C91.0457 195.364 90.9897 195.356 90.9177 195.356C90.8457 195.348 90.7577 195.344 90.6537 195.344C90.0697 195.344 89.6337 195.472 89.3457 195.728C89.0577 195.984 88.9137 196.392 88.9137 196.952ZM94.6965 200.264C94.0485 200.264 93.4805 200.128 92.9925 199.856C92.5125 199.584 92.1365 199.208 91.8645 198.728C91.6005 198.248 91.4685 197.696 91.4685 197.072C91.4685 196.448 91.6005 195.9 91.8645 195.428C92.1365 194.948 92.5125 194.576 92.9925 194.312C93.4725 194.04 94.0325 193.904 94.6725 193.904C95.2805 193.904 95.8085 194.032 96.2565 194.288C96.7045 194.536 97.0525 194.888 97.3005 195.344C97.5485 195.8 97.6725 196.332 97.6725 196.94C97.6725 197.052 97.6685 197.156 97.6605 197.252C97.6525 197.348 97.6405 197.444 97.6245 197.54H92.4045V196.484H96.4605L96.1485 196.772C96.1485 196.196 96.0165 195.764 95.7525 195.476C95.4885 195.188 95.1205 195.044 94.6485 195.044C94.1365 195.044 93.7285 195.22 93.4245 195.572C93.1285 195.924 92.9805 196.432 92.9805 197.096C92.9805 197.752 93.1285 198.256 93.4245 198.608C93.7285 198.952 94.1565 199.124 94.7085 199.124C95.0285 199.124 95.3085 199.064 95.5485 198.944C95.7885 198.824 95.9645 198.64 96.0765 198.392H97.5045C97.3045 198.968 96.9645 199.424 96.4845 199.76C96.0125 200.096 95.4165 200.264 94.6965 200.264ZM101.634 200.264C100.986 200.264 100.418 200.128 99.93 199.856C99.45 199.584 99.074 199.208 98.802 198.728C98.538 198.248 98.406 197.696 98.406 197.072C98.406 196.448 98.538 195.9 98.802 195.428C99.074 194.948 99.45 194.576 99.93 194.312C100.41 194.04 100.97 193.904 101.61 193.904C102.218 193.904 102.746 194.032 103.194 194.288C103.642 194.536 103.99 194.888 104.238 195.344C104.486 195.8 104.61 196.332 104.61 196.94C104.61 197.052 104.606 197.156 104.598 197.252C104.59 197.348 104.578 197.444 104.562 197.54H99.342V196.484H103.398L103.086 196.772C103.086 196.196 102.954 195.764 102.69 195.476C102.426 195.188 102.058 195.044 101.586 195.044C101.074 195.044 100.666 195.22 100.362 195.572C100.066 195.924 99.918 196.432 99.918 197.096C99.918 197.752 100.066 198.256 100.362 198.608C100.666 198.952 101.094 199.124 101.646 199.124C101.966 199.124 102.246 199.064 102.486 198.944C102.726 198.824 102.902 198.64 103.014 198.392H104.442C104.242 198.968 103.902 199.424 103.422 199.76C102.95 200.096 102.354 200.264 101.634 200.264ZM109.234 200.264C108.65 200.264 108.174 200.128 107.806 199.856C107.446 199.576 107.222 199.192 107.134 198.704L107.254 198.692V202.604H105.742V194.024H107.218V195.404L107.098 195.38C107.21 194.924 107.466 194.564 107.866 194.3C108.266 194.036 108.754 193.904 109.33 193.904C109.874 193.904 110.346 194.036 110.746 194.3C111.154 194.556 111.47 194.92 111.694 195.392C111.918 195.864 112.03 196.42 112.03 197.06C112.03 197.708 111.914 198.272 111.682 198.752C111.45 199.232 111.126 199.604 110.71 199.868C110.294 200.132 109.802 200.264 109.234 200.264ZM108.85 199.016C109.338 199.016 109.726 198.848 110.014 198.512C110.302 198.168 110.446 197.688 110.446 197.072C110.446 196.456 110.298 195.98 110.002 195.644C109.714 195.308 109.326 195.14 108.838 195.14C108.358 195.14 107.97 195.312 107.674 195.656C107.378 195.992 107.23 196.468 107.23 197.084C107.23 197.7 107.378 198.176 107.674 198.512C107.97 198.848 108.362 199.016 108.85 199.016ZM113.159 200.144V194.024H114.671V200.144H113.159ZM113.087 193.016V191.348H114.731V193.016H113.087ZM116.277 200.144V191.42H117.789V200.144H116.277ZM120.225 200.144L117.441 196.964L120.141 194.024H121.965L118.845 197.24L118.929 196.676L122.085 200.144H120.225ZM21.5367 215.144L19.6647 209.024H21.2487L22.3527 213.62H22.2447L23.6007 209.024H24.9807L26.3607 213.62H26.2407L27.5967 209.024H28.9767L30.3567 213.62H30.2367L31.6047 209.024H32.9847L34.3527 213.62H34.2447L35.6007 209.024H36.9807L38.3487 213.62H38.2407L39.5967 209.024H40.9767L42.3567 213.62H42.2367L43.3287 209.024H44.8767L43.0047 215.144H41.5887L40.2087 210.596H40.3287L38.9487 215.144H37.5927L36.2127 210.596H36.3327L34.9407 215.144H33.5847L32.2167 210.596H32.3247L30.9447 215.144H29.5887L28.2087 210.596H28.3287L26.9487 215.144H25.5927L24.2127 210.596H24.3327L22.9527 215.144H21.5367ZM44.8972 215.144V213.416H46.6372V215.144H44.8972ZM47.9793 215.144V208.46C47.9793 207.788 48.1633 207.276 48.5313 206.924C48.9073 206.564 49.4673 206.384 50.2113 206.384C50.3793 206.384 50.5193 206.392 50.6313 206.408C50.7433 206.424 50.8513 206.448 50.9553 206.48V207.656C50.8993 207.632 50.8273 207.616 50.7393 207.608C50.6513 207.592 50.5513 207.584 50.4393 207.584C50.1193 207.584 49.8793 207.664 49.7193 207.824C49.5673 207.976 49.4913 208.2 49.4913 208.496V215.144H47.9793ZM46.8753 210.212V209.024H50.8233V210.212H46.8753ZM51.9407 215.144V209.024H53.4167V210.5H53.4527V215.144H51.9407ZM53.4527 211.952L53.2967 210.5C53.4407 209.98 53.6847 209.584 54.0287 209.312C54.3727 209.04 54.7847 208.904 55.2647 208.904C55.4327 208.904 55.5527 208.92 55.6247 208.952V210.38C55.5847 210.364 55.5287 210.356 55.4567 210.356C55.3847 210.348 55.2967 210.344 55.1927 210.344C54.6087 210.344 54.1727 210.472 53.8847 210.728C53.5967 210.984 53.4527 211.392 53.4527 211.952ZM59.2356 215.264C58.5876 215.264 58.0196 215.128 57.5316 214.856C57.0516 214.584 56.6756 214.208 56.4036 213.728C56.1396 213.248 56.0076 212.696 56.0076 212.072C56.0076 211.448 56.1396 210.9 56.4036 210.428C56.6756 209.948 57.0516 209.576 57.5316 209.312C58.0116 209.04 58.5716 208.904 59.2116 208.904C59.8196 208.904 60.3476 209.032 60.7956 209.288C61.2436 209.536 61.5916 209.888 61.8396 210.344C62.0876 210.8 62.2116 211.332 62.2116 211.94C62.2116 212.052 62.2076 212.156 62.1996 212.252C62.1916 212.348 62.1796 212.444 62.1636 212.54H56.9436V211.484H60.9996L60.6876 211.772C60.6876 211.196 60.5556 210.764 60.2916 210.476C60.0276 210.188 59.6596 210.044 59.1876 210.044C58.6756 210.044 58.2676 210.22 57.9636 210.572C57.6676 210.924 57.5196 211.432 57.5196 212.096C57.5196 212.752 57.6676 213.256 57.9636 213.608C58.2676 213.952 58.6956 214.124 59.2476 214.124C59.5676 214.124 59.8476 214.064 60.0876 213.944C60.3276 213.824 60.5036 213.64 60.6156 213.392H62.0436C61.8436 213.968 61.5036 214.424 61.0236 214.76C60.5516 215.096 59.9556 215.264 59.2356 215.264ZM66.1731 215.264C65.5251 215.264 64.9571 215.128 64.4691 214.856C63.9891 214.584 63.6131 214.208 63.3411 213.728C63.0771 213.248 62.9451 212.696 62.9451 212.072C62.9451 211.448 63.0771 210.9 63.3411 210.428C63.6131 209.948 63.9891 209.576 64.4691 209.312C64.9491 209.04 65.5091 208.904 66.1491 208.904C66.7571 208.904 67.2851 209.032 67.7331 209.288C68.1811 209.536 68.5291 209.888 68.7771 210.344C69.0251 210.8 69.1491 211.332 69.1491 211.94C69.1491 212.052 69.1451 212.156 69.1371 212.252C69.1291 212.348 69.1171 212.444 69.1011 212.54H63.8811V211.484H67.9371L67.6251 211.772C67.6251 211.196 67.4931 210.764 67.2291 210.476C66.9651 210.188 66.5971 210.044 66.1251 210.044C65.6131 210.044 65.2051 210.22 64.9011 210.572C64.6051 210.924 64.4571 211.432 64.4571 212.096C64.4571 212.752 64.6051 213.256 64.9011 213.608C65.2051 213.952 65.6331 214.124 66.1851 214.124C66.5051 214.124 66.7851 214.064 67.0251 213.944C67.2651 213.824 67.4411 213.64 67.5531 213.392H68.9811C68.7811 213.968 68.4411 214.424 67.9611 214.76C67.4891 215.096 66.8931 215.264 66.1731 215.264ZM73.7726 215.264C73.1886 215.264 72.7126 215.128 72.3446 214.856C71.9846 214.576 71.7606 214.192 71.6726 213.704L71.7926 213.692V217.604H70.2806V209.024H71.7566V210.404L71.6366 210.38C71.7486 209.924 72.0046 209.564 72.4046 209.3C72.8046 209.036 73.2926 208.904 73.8686 208.904C74.4126 208.904 74.8846 209.036 75.2846 209.3C75.6926 209.556 76.0086 209.92 76.2326 210.392C76.4566 210.864 76.5686 211.42 76.5686 212.06C76.5686 212.708 76.4526 213.272 76.2206 213.752C75.9886 214.232 75.6646 214.604 75.2486 214.868C74.8326 215.132 74.3406 215.264 73.7726 215.264ZM73.3886 214.016C73.8766 214.016 74.2646 213.848 74.5526 213.512C74.8406 213.168 74.9846 212.688 74.9846 212.072C74.9846 211.456 74.8366 210.98 74.5406 210.644C74.2526 210.308 73.8646 210.14 73.3766 210.14C72.8966 210.14 72.5086 210.312 72.2126 210.656C71.9166 210.992 71.7686 211.468 71.7686 212.084C71.7686 212.7 71.9166 213.176 72.2126 213.512C72.5086 213.848 72.9006 214.016 73.3886 214.016ZM77.6985 215.144V209.024H79.2105V215.144H77.6985ZM77.6265 208.016V206.348H79.2705V208.016H77.6265ZM80.8157 215.144V206.42H82.3277V215.144H80.8157ZM84.7637 215.144L81.9797 211.964L84.6797 209.024H86.5037L83.3837 212.24L83.4677 211.676L86.6237 215.144H84.7637ZM87.2253 215.144V213.416H88.9653V215.144H87.2253ZM92.7373 215.264C92.1213 215.264 91.5773 215.128 91.1053 214.856C90.6413 214.584 90.2733 214.208 90.0013 213.728C89.7373 213.24 89.6053 212.688 89.6053 212.072C89.6053 211.456 89.7373 210.912 90.0013 210.44C90.2733 209.96 90.6413 209.584 91.1053 209.312C91.5773 209.04 92.1213 208.904 92.7373 208.904C93.2413 208.904 93.6973 209 94.1053 209.192C94.5133 209.376 94.8493 209.64 95.1133 209.984C95.3773 210.32 95.5453 210.712 95.6172 211.16H94.1653C94.0773 210.832 93.9093 210.576 93.6613 210.392C93.4133 210.208 93.1133 210.116 92.7613 210.116C92.4333 210.116 92.1493 210.196 91.9093 210.356C91.6773 210.516 91.4973 210.744 91.3693 211.04C91.2413 211.336 91.1773 211.68 91.1773 212.072C91.1773 212.472 91.2413 212.82 91.3693 213.116C91.4973 213.412 91.6813 213.644 91.9213 213.812C92.1613 213.972 92.4413 214.052 92.7613 214.052C93.1133 214.052 93.4133 213.96 93.6613 213.776C93.9093 213.592 94.0773 213.336 94.1653 213.008H95.6172C95.5453 213.456 95.3733 213.852 95.1013 214.196C94.8373 214.532 94.5013 214.796 94.0933 214.988C93.6933 215.172 93.2413 215.264 92.7373 215.264ZM99.4552 215.264C98.8072 215.264 98.2352 215.128 97.7392 214.856C97.2512 214.584 96.8712 214.208 96.5992 213.728C96.3272 213.24 96.1912 212.684 96.1912 212.06C96.1912 211.436 96.3272 210.888 96.5992 210.416C96.8712 209.944 97.2512 209.576 97.7392 209.312C98.2352 209.04 98.8072 208.904 99.4552 208.904C100.111 208.904 100.683 209.04 101.171 209.312C101.659 209.576 102.039 209.944 102.311 210.416C102.583 210.888 102.719 211.436 102.719 212.06C102.719 212.684 102.579 213.24 102.299 213.728C102.027 214.208 101.647 214.584 101.159 214.856C100.671 215.128 100.103 215.264 99.4552 215.264ZM99.4552 214.052C99.7752 214.052 100.063 213.972 100.319 213.812C100.575 213.644 100.775 213.412 100.919 213.116C101.063 212.812 101.135 212.456 101.135 212.048C101.135 211.448 100.975 210.976 100.655 210.632C100.343 210.288 99.9432 210.116 99.4552 210.116C98.9672 210.116 98.5632 210.288 98.2432 210.632C97.9232 210.976 97.7632 211.448 97.7632 212.048C97.7632 212.456 97.8352 212.812 97.9792 213.116C98.1312 213.412 98.3312 213.644 98.5792 213.812C98.8352 213.972 99.1272 214.052 99.4552 214.052ZM103.831 215.144V209.024H105.307V210.464H105.343V215.144H103.831ZM107.947 215.144V211.196C107.947 210.836 107.855 210.572 107.671 210.404C107.495 210.228 107.243 210.14 106.915 210.14C106.627 210.14 106.363 210.208 106.123 210.344C105.883 210.48 105.691 210.672 105.547 210.92C105.411 211.168 105.343 211.456 105.343 211.784L105.187 210.38C105.395 209.932 105.695 209.576 106.087 209.312C106.479 209.04 106.935 208.904 107.455 208.904C108.079 208.904 108.571 209.084 108.931 209.444C109.291 209.796 109.471 210.252 109.471 210.812V215.144H107.947ZM112.063 215.144V211.196C112.063 210.836 111.975 210.572 111.799 210.404C111.623 210.228 111.371 210.14 111.043 210.14C110.747 210.14 110.479 210.208 110.239 210.344C109.999 210.48 109.811 210.672 109.675 210.92C109.539 211.168 109.471 211.456 109.471 211.784L109.207 210.38C109.407 209.932 109.711 209.576 110.119 209.312C110.527 209.04 110.999 208.904 111.535 208.904C112.175 208.904 112.675 209.088 113.035 209.456C113.403 209.816 113.587 210.296 113.587 210.896V215.144H112.063Z" fill="#2CB7A6"/>
</svg>
